%TF.GenerationSoftware,KiCad,Pcbnew,7.0.7-7.0.7~ubuntu22.04.1*%
%TF.CreationDate,2023-09-26T14:07:11+13:00*%
%TF.ProjectId,VCA,5643412e-6b69-4636-9164-5f7063625858,rev?*%
%TF.SameCoordinates,Original*%
%TF.FileFunction,Drillmap*%
%TF.FilePolarity,Positive*%
%FSLAX45Y45*%
G04 Gerber Fmt 4.5, Leading zero omitted, Abs format (unit mm)*
G04 Created by KiCad (PCBNEW 7.0.7-7.0.7~ubuntu22.04.1) date 2023-09-26 14:07:11*
%MOMM*%
%LPD*%
G01*
G04 APERTURE LIST*
%ADD10C,0.100000*%
%ADD11C,0.200000*%
%ADD12C,0.040000*%
%ADD13C,0.080000*%
%ADD14C,0.119000*%
G04 APERTURE END LIST*
D10*
X17500000Y-9800000D02*
X17300000Y-9800000D01*
X12500000Y-9600000D02*
X12500000Y-9100000D01*
X12900000Y-11700000D02*
G75*
G03*
X12500000Y-11700000I-200000J0D01*
G01*
X12900000Y-13800000D02*
X12900000Y-11700000D01*
X12900000Y-9600000D02*
X12900000Y-9100000D01*
X8100000Y-10200000D02*
G75*
G03*
X8100000Y-9800000I0J200000D01*
G01*
X12500000Y-13800000D02*
G75*
G03*
X12900000Y-13800000I200000J0D01*
G01*
X17500000Y-15000000D02*
G75*
G03*
X17700000Y-14800000I0J200000D01*
G01*
X7900000Y-15000000D02*
X12300000Y-15000000D01*
X13100000Y-15000000D02*
X17500000Y-15000000D01*
X7700000Y-14800000D02*
X7700000Y-10400000D01*
X12300000Y-9800000D02*
X11800000Y-9800000D01*
X13730000Y-14760000D02*
G75*
G03*
X13730000Y-14760000I-150000J0D01*
G01*
X7900000Y-5000000D02*
G75*
G03*
X7700000Y-5200000I0J-200000D01*
G01*
X12900000Y-14600000D02*
G75*
G03*
X12500000Y-14600000I-200000J0D01*
G01*
X8900000Y-9800000D02*
G75*
G03*
X8900000Y-10200000I0J-200000D01*
G01*
X11000000Y-10200000D02*
G75*
G03*
X11000000Y-9800000I0J200000D01*
G01*
X17500000Y-10200000D02*
X17300000Y-10200000D01*
X13100000Y-10200000D02*
X13600000Y-10200000D01*
X12500000Y-10400000D02*
X12500000Y-10900000D01*
X13100000Y-5000000D02*
X17500000Y-5000000D01*
X13730000Y-11300000D02*
G75*
G03*
X13730000Y-11300000I-150000J0D01*
G01*
X8900000Y-10200000D02*
X11000000Y-10200000D01*
X12500000Y-8300000D02*
G75*
G03*
X12900000Y-8300000I200000J0D01*
G01*
X12500000Y-5200000D02*
X12500000Y-5400000D01*
X12900000Y-8300000D02*
X12900000Y-6200000D01*
X11930000Y-14760000D02*
G75*
G03*
X11930000Y-14760000I-150000J0D01*
G01*
X12300000Y-9800000D02*
G75*
G03*
X12500000Y-9600000I0J200000D01*
G01*
X14400000Y-10200000D02*
X16500000Y-10200000D01*
X13730000Y-6100000D02*
G75*
G03*
X13730000Y-6100000I-150000J0D01*
G01*
X16500000Y-10200000D02*
G75*
G03*
X16500000Y-9800000I0J200000D01*
G01*
X12900000Y-9100000D02*
G75*
G03*
X12500000Y-9100000I-200000J0D01*
G01*
X17130000Y-6100000D02*
G75*
G03*
X17130000Y-6100000I-150000J0D01*
G01*
X7900000Y-5000000D02*
X12300000Y-5000000D01*
X12500000Y-10900000D02*
G75*
G03*
X12900000Y-10900000I200000J0D01*
G01*
X12500000Y-5200000D02*
G75*
G03*
X12300000Y-5000000I-200000J0D01*
G01*
X11930000Y-9560000D02*
G75*
G03*
X11930000Y-9560000I-150000J0D01*
G01*
X12900000Y-14800000D02*
X12900000Y-14600000D01*
X13730000Y-9560000D02*
G75*
G03*
X13730000Y-9560000I-150000J0D01*
G01*
X12500000Y-5400000D02*
G75*
G03*
X12900000Y-5400000I200000J0D01*
G01*
X11800000Y-9800000D02*
G75*
G03*
X11800000Y-10200000I0J-200000D01*
G01*
X12900000Y-5200000D02*
X12900000Y-5400000D01*
X12300000Y-10200000D02*
X11800000Y-10200000D01*
X17500000Y-9800000D02*
G75*
G03*
X17700000Y-9600000I0J200000D01*
G01*
X12500000Y-10400000D02*
G75*
G03*
X12300000Y-10200000I-200000J0D01*
G01*
X16500000Y-9800000D02*
X14400000Y-9800000D01*
X13600000Y-10200000D02*
G75*
G03*
X13600000Y-9800000I0J200000D01*
G01*
X11930000Y-11300000D02*
G75*
G03*
X11930000Y-11300000I-150000J0D01*
G01*
X17700000Y-5200000D02*
G75*
G03*
X17500000Y-5000000I-200000J0D01*
G01*
X13100000Y-9800000D02*
X13600000Y-9800000D01*
X13100000Y-10200000D02*
G75*
G03*
X12900000Y-10400000I0J-200000D01*
G01*
X12500000Y-14800000D02*
X12500000Y-14600000D01*
X7900000Y-10200000D02*
G75*
G03*
X7700000Y-10400000I0J-200000D01*
G01*
X12900000Y-10400000D02*
X12900000Y-10900000D01*
X12500000Y-6200000D02*
X12500000Y-8300000D01*
X7700000Y-9600000D02*
X7700000Y-5200000D01*
X12300000Y-15000000D02*
G75*
G03*
X12500000Y-14800000I0J200000D01*
G01*
X13100000Y-5000000D02*
G75*
G03*
X12900000Y-5200000I0J-200000D01*
G01*
X17700000Y-10400000D02*
X17700000Y-14800000D01*
X12900000Y-6200000D02*
G75*
G03*
X12500000Y-6200000I-200000J0D01*
G01*
X12900000Y-9600000D02*
G75*
G03*
X13100000Y-9800000I200000J0D01*
G01*
X17130000Y-11300000D02*
G75*
G03*
X17130000Y-11300000I-150000J0D01*
G01*
X12900000Y-14800000D02*
G75*
G03*
X13100000Y-15000000I200000J0D01*
G01*
X11000000Y-9800000D02*
X8900000Y-9800000D01*
X8530000Y-9560000D02*
G75*
G03*
X8530000Y-9560000I-150000J0D01*
G01*
X17700000Y-5200000D02*
X17700000Y-9600000D01*
X17130000Y-9560000D02*
G75*
G03*
X17130000Y-9560000I-150000J0D01*
G01*
X11930000Y-6100000D02*
G75*
G03*
X11930000Y-6100000I-150000J0D01*
G01*
X17300000Y-9800000D02*
G75*
G03*
X17300000Y-10200000I0J-200000D01*
G01*
X12500000Y-11700000D02*
X12500000Y-13800000D01*
X17130000Y-14760000D02*
G75*
G03*
X17130000Y-14760000I-150000J0D01*
G01*
X8530000Y-11300000D02*
G75*
G03*
X8530000Y-11300000I-150000J0D01*
G01*
X7900000Y-9800000D02*
X8100000Y-9800000D01*
X8530000Y-14760000D02*
G75*
G03*
X8530000Y-14760000I-150000J0D01*
G01*
X7700000Y-9600000D02*
G75*
G03*
X7900000Y-9800000I200000J0D01*
G01*
X7900000Y-10200000D02*
X8100000Y-10200000D01*
X7700000Y-14800000D02*
G75*
G03*
X7900000Y-15000000I200000J0D01*
G01*
X17700000Y-10400000D02*
G75*
G03*
X17500000Y-10200000I-200000J0D01*
G01*
X8530000Y-6100000D02*
G75*
G03*
X8530000Y-6100000I-150000J0D01*
G01*
X14400000Y-9800000D02*
G75*
G03*
X14400000Y-10200000I0J-200000D01*
G01*
D11*
D12*
X8502000Y-12070000D02*
X8542000Y-12110000D01*
X8542000Y-12070000D02*
X8502000Y-12110000D01*
X8502000Y-6870000D02*
X8542000Y-6910000D01*
X8542000Y-6870000D02*
X8502000Y-6910000D01*
X8502500Y-11890000D02*
X8542500Y-11930000D01*
X8542500Y-11890000D02*
X8502500Y-11930000D01*
X8502500Y-6690000D02*
X8542500Y-6730000D01*
X8542500Y-6690000D02*
X8502500Y-6730000D01*
X8692000Y-11900000D02*
X8732000Y-11940000D01*
X8732000Y-11900000D02*
X8692000Y-11940000D01*
X8692000Y-12070000D02*
X8732000Y-12110000D01*
X8732000Y-12070000D02*
X8692000Y-12110000D01*
X8692000Y-6700000D02*
X8732000Y-6740000D01*
X8732000Y-6700000D02*
X8692000Y-6740000D01*
X8692000Y-6870000D02*
X8732000Y-6910000D01*
X8732000Y-6870000D02*
X8692000Y-6910000D01*
X9112000Y-11100000D02*
X9152000Y-11140000D01*
X9152000Y-11100000D02*
X9112000Y-11140000D01*
X9112000Y-5900000D02*
X9152000Y-5940000D01*
X9152000Y-5900000D02*
X9112000Y-5940000D01*
X9122000Y-10690000D02*
X9162000Y-10730000D01*
X9162000Y-10690000D02*
X9122000Y-10730000D01*
X9122000Y-5490000D02*
X9162000Y-5530000D01*
X9162000Y-5490000D02*
X9122000Y-5530000D01*
X9202000Y-13210000D02*
X9242000Y-13250000D01*
X9242000Y-13210000D02*
X9202000Y-13250000D01*
X9202000Y-8010000D02*
X9242000Y-8050000D01*
X9242000Y-8010000D02*
X9202000Y-8050000D01*
X9262000Y-11110000D02*
X9302000Y-11150000D01*
X9302000Y-11110000D02*
X9262000Y-11150000D01*
X9262000Y-5910000D02*
X9302000Y-5950000D01*
X9302000Y-5910000D02*
X9262000Y-5950000D01*
X9892000Y-11990000D02*
X9932000Y-12030000D01*
X9932000Y-11990000D02*
X9892000Y-12030000D01*
X9892000Y-6790000D02*
X9932000Y-6830000D01*
X9932000Y-6790000D02*
X9892000Y-6830000D01*
X9902000Y-12290000D02*
X9942000Y-12330000D01*
X9942000Y-12290000D02*
X9902000Y-12330000D01*
X9902000Y-7090000D02*
X9942000Y-7130000D01*
X9942000Y-7090000D02*
X9902000Y-7130000D01*
X10022000Y-12179950D02*
X10062000Y-12219950D01*
X10062000Y-12179950D02*
X10022000Y-12219950D01*
X10022000Y-6979950D02*
X10062000Y-7019950D01*
X10062000Y-6979950D02*
X10022000Y-7019950D01*
X10662000Y-12700000D02*
X10702000Y-12740000D01*
X10702000Y-12700000D02*
X10662000Y-12740000D01*
X10662000Y-7500000D02*
X10702000Y-7540000D01*
X10702000Y-7500000D02*
X10662000Y-7540000D01*
X11092000Y-11860000D02*
X11132000Y-11900000D01*
X11132000Y-11860000D02*
X11092000Y-11900000D01*
X11092000Y-6660000D02*
X11132000Y-6700000D01*
X11132000Y-6660000D02*
X11092000Y-6700000D01*
X13702000Y-6870000D02*
X13742000Y-6910000D01*
X13742000Y-6870000D02*
X13702000Y-6910000D01*
X13702000Y-12070000D02*
X13742000Y-12110000D01*
X13742000Y-12070000D02*
X13702000Y-12110000D01*
X13702500Y-6690000D02*
X13742500Y-6730000D01*
X13742500Y-6690000D02*
X13702500Y-6730000D01*
X13702500Y-11890000D02*
X13742500Y-11930000D01*
X13742500Y-11890000D02*
X13702500Y-11930000D01*
X13892000Y-6700000D02*
X13932000Y-6740000D01*
X13932000Y-6700000D02*
X13892000Y-6740000D01*
X13892000Y-6870000D02*
X13932000Y-6910000D01*
X13932000Y-6870000D02*
X13892000Y-6910000D01*
X13892000Y-11900000D02*
X13932000Y-11940000D01*
X13932000Y-11900000D02*
X13892000Y-11940000D01*
X13892000Y-12070000D02*
X13932000Y-12110000D01*
X13932000Y-12070000D02*
X13892000Y-12110000D01*
X14312000Y-5900000D02*
X14352000Y-5940000D01*
X14352000Y-5900000D02*
X14312000Y-5940000D01*
X14312000Y-11100000D02*
X14352000Y-11140000D01*
X14352000Y-11100000D02*
X14312000Y-11140000D01*
X14322000Y-5490000D02*
X14362000Y-5530000D01*
X14362000Y-5490000D02*
X14322000Y-5530000D01*
X14322000Y-10690000D02*
X14362000Y-10730000D01*
X14362000Y-10690000D02*
X14322000Y-10730000D01*
X14402000Y-8010000D02*
X14442000Y-8050000D01*
X14442000Y-8010000D02*
X14402000Y-8050000D01*
X14402000Y-13210000D02*
X14442000Y-13250000D01*
X14442000Y-13210000D02*
X14402000Y-13250000D01*
X14462000Y-5910000D02*
X14502000Y-5950000D01*
X14502000Y-5910000D02*
X14462000Y-5950000D01*
X14462000Y-11110000D02*
X14502000Y-11150000D01*
X14502000Y-11110000D02*
X14462000Y-11150000D01*
X15092000Y-6790000D02*
X15132000Y-6830000D01*
X15132000Y-6790000D02*
X15092000Y-6830000D01*
X15092000Y-11990000D02*
X15132000Y-12030000D01*
X15132000Y-11990000D02*
X15092000Y-12030000D01*
X15102000Y-7090000D02*
X15142000Y-7130000D01*
X15142000Y-7090000D02*
X15102000Y-7130000D01*
X15102000Y-12290000D02*
X15142000Y-12330000D01*
X15142000Y-12290000D02*
X15102000Y-12330000D01*
X15222000Y-6979950D02*
X15262000Y-7019950D01*
X15262000Y-6979950D02*
X15222000Y-7019950D01*
X15222000Y-12179950D02*
X15262000Y-12219950D01*
X15262000Y-12179950D02*
X15222000Y-12219950D01*
X15862000Y-7500000D02*
X15902000Y-7540000D01*
X15902000Y-7500000D02*
X15862000Y-7540000D01*
X15862000Y-12700000D02*
X15902000Y-12740000D01*
X15902000Y-12700000D02*
X15862000Y-12740000D01*
X16292000Y-6660000D02*
X16332000Y-6700000D01*
X16332000Y-6660000D02*
X16292000Y-6700000D01*
X16292000Y-11860000D02*
X16332000Y-11900000D01*
X16332000Y-11860000D02*
X16292000Y-11900000D01*
D13*
X9148000Y-11686000D02*
G75*
G03*
X9148000Y-11686000I-40000J0D01*
G01*
X9148000Y-6486000D02*
G75*
G03*
X9148000Y-6486000I-40000J0D01*
G01*
X9402000Y-11686000D02*
G75*
G03*
X9402000Y-11686000I-40000J0D01*
G01*
X9402000Y-6486000D02*
G75*
G03*
X9402000Y-6486000I-40000J0D01*
G01*
X9468500Y-10685500D02*
G75*
G03*
X9468500Y-10685500I-40000J0D01*
G01*
X9468500Y-5485500D02*
G75*
G03*
X9468500Y-5485500I-40000J0D01*
G01*
X9656000Y-11686000D02*
G75*
G03*
X9656000Y-11686000I-40000J0D01*
G01*
X9656000Y-6486000D02*
G75*
G03*
X9656000Y-6486000I-40000J0D01*
G01*
X9722500Y-10939500D02*
G75*
G03*
X9722500Y-10939500I-40000J0D01*
G01*
X9722500Y-5739500D02*
G75*
G03*
X9722500Y-5739500I-40000J0D01*
G01*
X9740000Y-12300000D02*
G75*
G03*
X9740000Y-12300000I-40000J0D01*
G01*
X9740000Y-12554000D02*
G75*
G03*
X9740000Y-12554000I-40000J0D01*
G01*
X9740000Y-12808000D02*
G75*
G03*
X9740000Y-12808000I-40000J0D01*
G01*
X9740000Y-13062000D02*
G75*
G03*
X9740000Y-13062000I-40000J0D01*
G01*
X9740000Y-7100000D02*
G75*
G03*
X9740000Y-7100000I-40000J0D01*
G01*
X9740000Y-7354000D02*
G75*
G03*
X9740000Y-7354000I-40000J0D01*
G01*
X9740000Y-7608000D02*
G75*
G03*
X9740000Y-7608000I-40000J0D01*
G01*
X9740000Y-7862000D02*
G75*
G03*
X9740000Y-7862000I-40000J0D01*
G01*
X9868000Y-11686000D02*
G75*
G03*
X9868000Y-11686000I-40000J0D01*
G01*
X9868000Y-6486000D02*
G75*
G03*
X9868000Y-6486000I-40000J0D01*
G01*
X9976500Y-10685500D02*
G75*
G03*
X9976500Y-10685500I-40000J0D01*
G01*
X9976500Y-5485500D02*
G75*
G03*
X9976500Y-5485500I-40000J0D01*
G01*
X10122000Y-11686000D02*
G75*
G03*
X10122000Y-11686000I-40000J0D01*
G01*
X10122000Y-6486000D02*
G75*
G03*
X10122000Y-6486000I-40000J0D01*
G01*
X10268500Y-10685500D02*
G75*
G03*
X10268500Y-10685500I-40000J0D01*
G01*
X10268500Y-5485500D02*
G75*
G03*
X10268500Y-5485500I-40000J0D01*
G01*
X10376000Y-11686000D02*
G75*
G03*
X10376000Y-11686000I-40000J0D01*
G01*
X10376000Y-6486000D02*
G75*
G03*
X10376000Y-6486000I-40000J0D01*
G01*
X10502000Y-12300000D02*
G75*
G03*
X10502000Y-12300000I-40000J0D01*
G01*
X10502000Y-12554000D02*
G75*
G03*
X10502000Y-12554000I-40000J0D01*
G01*
X10502000Y-12808000D02*
G75*
G03*
X10502000Y-12808000I-40000J0D01*
G01*
X10502000Y-13062000D02*
G75*
G03*
X10502000Y-13062000I-40000J0D01*
G01*
X10502000Y-7100000D02*
G75*
G03*
X10502000Y-7100000I-40000J0D01*
G01*
X10502000Y-7354000D02*
G75*
G03*
X10502000Y-7354000I-40000J0D01*
G01*
X10502000Y-7608000D02*
G75*
G03*
X10502000Y-7608000I-40000J0D01*
G01*
X10502000Y-7862000D02*
G75*
G03*
X10502000Y-7862000I-40000J0D01*
G01*
X10522500Y-10939500D02*
G75*
G03*
X10522500Y-10939500I-40000J0D01*
G01*
X10522500Y-5739500D02*
G75*
G03*
X10522500Y-5739500I-40000J0D01*
G01*
X10589000Y-11685000D02*
G75*
G03*
X10589000Y-11685000I-40000J0D01*
G01*
X10589000Y-6485000D02*
G75*
G03*
X10589000Y-6485000I-40000J0D01*
G01*
X10776500Y-10685500D02*
G75*
G03*
X10776500Y-10685500I-40000J0D01*
G01*
X10776500Y-5485500D02*
G75*
G03*
X10776500Y-5485500I-40000J0D01*
G01*
X10843000Y-11685000D02*
G75*
G03*
X10843000Y-11685000I-40000J0D01*
G01*
X10843000Y-6485000D02*
G75*
G03*
X10843000Y-6485000I-40000J0D01*
G01*
X11097000Y-11685000D02*
G75*
G03*
X11097000Y-11685000I-40000J0D01*
G01*
X11097000Y-6485000D02*
G75*
G03*
X11097000Y-6485000I-40000J0D01*
G01*
X14348000Y-6486000D02*
G75*
G03*
X14348000Y-6486000I-40000J0D01*
G01*
X14348000Y-11686000D02*
G75*
G03*
X14348000Y-11686000I-40000J0D01*
G01*
X14602000Y-6486000D02*
G75*
G03*
X14602000Y-6486000I-40000J0D01*
G01*
X14602000Y-11686000D02*
G75*
G03*
X14602000Y-11686000I-40000J0D01*
G01*
X14668500Y-5485500D02*
G75*
G03*
X14668500Y-5485500I-40000J0D01*
G01*
X14668500Y-10685500D02*
G75*
G03*
X14668500Y-10685500I-40000J0D01*
G01*
X14856000Y-6486000D02*
G75*
G03*
X14856000Y-6486000I-40000J0D01*
G01*
X14856000Y-11686000D02*
G75*
G03*
X14856000Y-11686000I-40000J0D01*
G01*
X14922500Y-5739500D02*
G75*
G03*
X14922500Y-5739500I-40000J0D01*
G01*
X14922500Y-10939500D02*
G75*
G03*
X14922500Y-10939500I-40000J0D01*
G01*
X14940000Y-7100000D02*
G75*
G03*
X14940000Y-7100000I-40000J0D01*
G01*
X14940000Y-7354000D02*
G75*
G03*
X14940000Y-7354000I-40000J0D01*
G01*
X14940000Y-7608000D02*
G75*
G03*
X14940000Y-7608000I-40000J0D01*
G01*
X14940000Y-7862000D02*
G75*
G03*
X14940000Y-7862000I-40000J0D01*
G01*
X14940000Y-12300000D02*
G75*
G03*
X14940000Y-12300000I-40000J0D01*
G01*
X14940000Y-12554000D02*
G75*
G03*
X14940000Y-12554000I-40000J0D01*
G01*
X14940000Y-12808000D02*
G75*
G03*
X14940000Y-12808000I-40000J0D01*
G01*
X14940000Y-13062000D02*
G75*
G03*
X14940000Y-13062000I-40000J0D01*
G01*
X15068000Y-6486000D02*
G75*
G03*
X15068000Y-6486000I-40000J0D01*
G01*
X15068000Y-11686000D02*
G75*
G03*
X15068000Y-11686000I-40000J0D01*
G01*
X15176500Y-5485500D02*
G75*
G03*
X15176500Y-5485500I-40000J0D01*
G01*
X15176500Y-10685500D02*
G75*
G03*
X15176500Y-10685500I-40000J0D01*
G01*
X15322000Y-6486000D02*
G75*
G03*
X15322000Y-6486000I-40000J0D01*
G01*
X15322000Y-11686000D02*
G75*
G03*
X15322000Y-11686000I-40000J0D01*
G01*
X15468500Y-5485500D02*
G75*
G03*
X15468500Y-5485500I-40000J0D01*
G01*
X15468500Y-10685500D02*
G75*
G03*
X15468500Y-10685500I-40000J0D01*
G01*
X15576000Y-6486000D02*
G75*
G03*
X15576000Y-6486000I-40000J0D01*
G01*
X15576000Y-11686000D02*
G75*
G03*
X15576000Y-11686000I-40000J0D01*
G01*
X15702000Y-7100000D02*
G75*
G03*
X15702000Y-7100000I-40000J0D01*
G01*
X15702000Y-7354000D02*
G75*
G03*
X15702000Y-7354000I-40000J0D01*
G01*
X15702000Y-7608000D02*
G75*
G03*
X15702000Y-7608000I-40000J0D01*
G01*
X15702000Y-7862000D02*
G75*
G03*
X15702000Y-7862000I-40000J0D01*
G01*
X15702000Y-12300000D02*
G75*
G03*
X15702000Y-12300000I-40000J0D01*
G01*
X15702000Y-12554000D02*
G75*
G03*
X15702000Y-12554000I-40000J0D01*
G01*
X15702000Y-12808000D02*
G75*
G03*
X15702000Y-12808000I-40000J0D01*
G01*
X15702000Y-13062000D02*
G75*
G03*
X15702000Y-13062000I-40000J0D01*
G01*
X15722500Y-5739500D02*
G75*
G03*
X15722500Y-5739500I-40000J0D01*
G01*
X15722500Y-10939500D02*
G75*
G03*
X15722500Y-10939500I-40000J0D01*
G01*
X15789000Y-6485000D02*
G75*
G03*
X15789000Y-6485000I-40000J0D01*
G01*
X15789000Y-11685000D02*
G75*
G03*
X15789000Y-11685000I-40000J0D01*
G01*
X15976500Y-5485500D02*
G75*
G03*
X15976500Y-5485500I-40000J0D01*
G01*
X15976500Y-10685500D02*
G75*
G03*
X15976500Y-10685500I-40000J0D01*
G01*
X16043000Y-6485000D02*
G75*
G03*
X16043000Y-6485000I-40000J0D01*
G01*
X16043000Y-11685000D02*
G75*
G03*
X16043000Y-11685000I-40000J0D01*
G01*
X16297000Y-6485000D02*
G75*
G03*
X16297000Y-6485000I-40000J0D01*
G01*
X16297000Y-11685000D02*
G75*
G03*
X16297000Y-11685000I-40000J0D01*
G01*
D10*
X7922294Y-11678000D02*
X7922294Y-11778000D01*
X7872294Y-11728000D02*
X7972294Y-11728000D01*
X7922294Y-11932000D02*
X7922294Y-12032000D01*
X7872294Y-11982000D02*
X7972294Y-11982000D01*
X7922294Y-14056000D02*
X7922294Y-14156000D01*
X7872294Y-14106000D02*
X7972294Y-14106000D01*
X7922294Y-14310000D02*
X7922294Y-14410000D01*
X7872294Y-14360000D02*
X7972294Y-14360000D01*
X7922294Y-6478000D02*
X7922294Y-6578000D01*
X7872294Y-6528000D02*
X7972294Y-6528000D01*
X7922294Y-6732000D02*
X7922294Y-6832000D01*
X7872294Y-6782000D02*
X7972294Y-6782000D01*
X7922294Y-8856000D02*
X7922294Y-8956000D01*
X7872294Y-8906000D02*
X7972294Y-8906000D01*
X7922294Y-9110000D02*
X7922294Y-9210000D01*
X7872294Y-9160000D02*
X7972294Y-9160000D01*
X9092000Y-13400000D02*
X9092000Y-13500000D01*
X9042000Y-13450000D02*
X9142000Y-13450000D01*
X9092000Y-8200000D02*
X9092000Y-8300000D01*
X9042000Y-8250000D02*
X9142000Y-8250000D01*
X9342000Y-13400000D02*
X9342000Y-13500000D01*
X9292000Y-13450000D02*
X9392000Y-13450000D01*
X9342000Y-8200000D02*
X9342000Y-8300000D01*
X9292000Y-8250000D02*
X9392000Y-8250000D01*
X9592000Y-13400000D02*
X9592000Y-13500000D01*
X9542000Y-13450000D02*
X9642000Y-13450000D01*
X9592000Y-8200000D02*
X9592000Y-8300000D01*
X9542000Y-8250000D02*
X9642000Y-8250000D01*
X10572000Y-13400000D02*
X10572000Y-13500000D01*
X10522000Y-13450000D02*
X10622000Y-13450000D01*
X10572000Y-8200000D02*
X10572000Y-8300000D01*
X10522000Y-8250000D02*
X10622000Y-8250000D01*
X10822000Y-13400000D02*
X10822000Y-13500000D01*
X10772000Y-13450000D02*
X10872000Y-13450000D01*
X10822000Y-8200000D02*
X10822000Y-8300000D01*
X10772000Y-8250000D02*
X10872000Y-8250000D01*
X11072000Y-13400000D02*
X11072000Y-13500000D01*
X11022000Y-13450000D02*
X11122000Y-13450000D01*
X11072000Y-8200000D02*
X11072000Y-8300000D01*
X11022000Y-8250000D02*
X11122000Y-8250000D01*
X12320000Y-14063500D02*
X12320000Y-14163500D01*
X12270000Y-14113500D02*
X12370000Y-14113500D01*
X12320000Y-14317500D02*
X12320000Y-14417500D01*
X12270000Y-14367500D02*
X12370000Y-14367500D01*
X12320000Y-8863500D02*
X12320000Y-8963500D01*
X12270000Y-8913500D02*
X12370000Y-8913500D01*
X12320000Y-9117500D02*
X12320000Y-9217500D01*
X12270000Y-9167500D02*
X12370000Y-9167500D01*
X13122294Y-6478000D02*
X13122294Y-6578000D01*
X13072294Y-6528000D02*
X13172294Y-6528000D01*
X13122294Y-6732000D02*
X13122294Y-6832000D01*
X13072294Y-6782000D02*
X13172294Y-6782000D01*
X13122294Y-8856000D02*
X13122294Y-8956000D01*
X13072294Y-8906000D02*
X13172294Y-8906000D01*
X13122294Y-9110000D02*
X13122294Y-9210000D01*
X13072294Y-9160000D02*
X13172294Y-9160000D01*
X13122294Y-11678000D02*
X13122294Y-11778000D01*
X13072294Y-11728000D02*
X13172294Y-11728000D01*
X13122294Y-11932000D02*
X13122294Y-12032000D01*
X13072294Y-11982000D02*
X13172294Y-11982000D01*
X13122294Y-14056000D02*
X13122294Y-14156000D01*
X13072294Y-14106000D02*
X13172294Y-14106000D01*
X13122294Y-14310000D02*
X13122294Y-14410000D01*
X13072294Y-14360000D02*
X13172294Y-14360000D01*
X14292000Y-8200000D02*
X14292000Y-8300000D01*
X14242000Y-8250000D02*
X14342000Y-8250000D01*
X14292000Y-13400000D02*
X14292000Y-13500000D01*
X14242000Y-13450000D02*
X14342000Y-13450000D01*
X14542000Y-8200000D02*
X14542000Y-8300000D01*
X14492000Y-8250000D02*
X14592000Y-8250000D01*
X14542000Y-13400000D02*
X14542000Y-13500000D01*
X14492000Y-13450000D02*
X14592000Y-13450000D01*
X14792000Y-8200000D02*
X14792000Y-8300000D01*
X14742000Y-8250000D02*
X14842000Y-8250000D01*
X14792000Y-13400000D02*
X14792000Y-13500000D01*
X14742000Y-13450000D02*
X14842000Y-13450000D01*
X15772000Y-8200000D02*
X15772000Y-8300000D01*
X15722000Y-8250000D02*
X15822000Y-8250000D01*
X15772000Y-13400000D02*
X15772000Y-13500000D01*
X15722000Y-13450000D02*
X15822000Y-13450000D01*
X16022000Y-8200000D02*
X16022000Y-8300000D01*
X15972000Y-8250000D02*
X16072000Y-8250000D01*
X16022000Y-13400000D02*
X16022000Y-13500000D01*
X15972000Y-13450000D02*
X16072000Y-13450000D01*
X16272000Y-8200000D02*
X16272000Y-8300000D01*
X16222000Y-8250000D02*
X16322000Y-8250000D01*
X16272000Y-13400000D02*
X16272000Y-13500000D01*
X16222000Y-13450000D02*
X16322000Y-13450000D01*
X17520000Y-8863500D02*
X17520000Y-8963500D01*
X17470000Y-8913500D02*
X17570000Y-8913500D01*
X17520000Y-9117500D02*
X17520000Y-9217500D01*
X17470000Y-9167500D02*
X17570000Y-9167500D01*
X17520000Y-14063500D02*
X17520000Y-14163500D01*
X17470000Y-14113500D02*
X17570000Y-14113500D01*
X17520000Y-14317500D02*
X17520000Y-14417500D01*
X17470000Y-14367500D02*
X17570000Y-14367500D01*
D14*
X8094073Y-10494073D02*
X8094073Y-10409927D01*
X8009927Y-10409927D01*
X8009927Y-10494073D01*
X8094073Y-10494073D01*
X8094073Y-10748073D02*
X8094073Y-10663927D01*
X8009927Y-10663927D01*
X8009927Y-10748073D01*
X8094073Y-10748073D01*
X8094073Y-11002073D02*
X8094073Y-10917927D01*
X8009927Y-10917927D01*
X8009927Y-11002073D01*
X8094073Y-11002073D01*
X8094073Y-5294073D02*
X8094073Y-5209927D01*
X8009927Y-5209927D01*
X8009927Y-5294073D01*
X8094073Y-5294073D01*
X8094073Y-5548073D02*
X8094073Y-5463927D01*
X8009927Y-5463927D01*
X8009927Y-5548073D01*
X8094073Y-5548073D01*
X8094073Y-5802073D02*
X8094073Y-5717927D01*
X8009927Y-5717927D01*
X8009927Y-5802073D01*
X8094073Y-5802073D01*
X12190073Y-10492073D02*
X12190073Y-10407927D01*
X12105927Y-10407927D01*
X12105927Y-10492073D01*
X12190073Y-10492073D01*
X12190073Y-10746073D02*
X12190073Y-10661927D01*
X12105927Y-10661927D01*
X12105927Y-10746073D01*
X12190073Y-10746073D01*
X12190073Y-11000073D02*
X12190073Y-10915927D01*
X12105927Y-10915927D01*
X12105927Y-11000073D01*
X12190073Y-11000073D01*
X12190073Y-5292073D02*
X12190073Y-5207927D01*
X12105927Y-5207927D01*
X12105927Y-5292073D01*
X12190073Y-5292073D01*
X12190073Y-5546073D02*
X12190073Y-5461927D01*
X12105927Y-5461927D01*
X12105927Y-5546073D01*
X12190073Y-5546073D01*
X12190073Y-5800073D02*
X12190073Y-5715927D01*
X12105927Y-5715927D01*
X12105927Y-5800073D01*
X12190073Y-5800073D01*
X13294073Y-5294073D02*
X13294073Y-5209927D01*
X13209927Y-5209927D01*
X13209927Y-5294073D01*
X13294073Y-5294073D01*
X13294073Y-5548073D02*
X13294073Y-5463927D01*
X13209927Y-5463927D01*
X13209927Y-5548073D01*
X13294073Y-5548073D01*
X13294073Y-5802073D02*
X13294073Y-5717927D01*
X13209927Y-5717927D01*
X13209927Y-5802073D01*
X13294073Y-5802073D01*
X13294073Y-10494073D02*
X13294073Y-10409927D01*
X13209927Y-10409927D01*
X13209927Y-10494073D01*
X13294073Y-10494073D01*
X13294073Y-10748073D02*
X13294073Y-10663927D01*
X13209927Y-10663927D01*
X13209927Y-10748073D01*
X13294073Y-10748073D01*
X13294073Y-11002073D02*
X13294073Y-10917927D01*
X13209927Y-10917927D01*
X13209927Y-11002073D01*
X13294073Y-11002073D01*
X17390073Y-5292073D02*
X17390073Y-5207927D01*
X17305927Y-5207927D01*
X17305927Y-5292073D01*
X17390073Y-5292073D01*
X17390073Y-5546073D02*
X17390073Y-5461927D01*
X17305927Y-5461927D01*
X17305927Y-5546073D01*
X17390073Y-5546073D01*
X17390073Y-5800073D02*
X17390073Y-5715927D01*
X17305927Y-5715927D01*
X17305927Y-5800073D01*
X17390073Y-5800073D01*
X17390073Y-10492073D02*
X17390073Y-10407927D01*
X17305927Y-10407927D01*
X17305927Y-10492073D01*
X17390073Y-10492073D01*
X17390073Y-10746073D02*
X17390073Y-10661927D01*
X17305927Y-10661927D01*
X17305927Y-10746073D01*
X17390073Y-10746073D01*
X17390073Y-11000073D02*
X17390073Y-10915927D01*
X17305927Y-10915927D01*
X17305927Y-11000073D01*
X17390073Y-11000073D01*
D11*
X7955777Y-15316484D02*
X7955777Y-15116484D01*
X7955777Y-15116484D02*
X8003396Y-15116484D01*
X8003396Y-15116484D02*
X8031967Y-15126008D01*
X8031967Y-15126008D02*
X8051015Y-15145055D01*
X8051015Y-15145055D02*
X8060539Y-15164103D01*
X8060539Y-15164103D02*
X8070062Y-15202198D01*
X8070062Y-15202198D02*
X8070062Y-15230769D01*
X8070062Y-15230769D02*
X8060539Y-15268865D01*
X8060539Y-15268865D02*
X8051015Y-15287912D01*
X8051015Y-15287912D02*
X8031967Y-15306960D01*
X8031967Y-15306960D02*
X8003396Y-15316484D01*
X8003396Y-15316484D02*
X7955777Y-15316484D01*
X8155777Y-15316484D02*
X8155777Y-15183150D01*
X8155777Y-15221246D02*
X8165300Y-15202198D01*
X8165300Y-15202198D02*
X8174824Y-15192674D01*
X8174824Y-15192674D02*
X8193872Y-15183150D01*
X8193872Y-15183150D02*
X8212920Y-15183150D01*
X8279586Y-15316484D02*
X8279586Y-15183150D01*
X8279586Y-15116484D02*
X8270062Y-15126008D01*
X8270062Y-15126008D02*
X8279586Y-15135531D01*
X8279586Y-15135531D02*
X8289110Y-15126008D01*
X8289110Y-15126008D02*
X8279586Y-15116484D01*
X8279586Y-15116484D02*
X8279586Y-15135531D01*
X8403396Y-15316484D02*
X8384348Y-15306960D01*
X8384348Y-15306960D02*
X8374824Y-15287912D01*
X8374824Y-15287912D02*
X8374824Y-15116484D01*
X8508158Y-15316484D02*
X8489110Y-15306960D01*
X8489110Y-15306960D02*
X8479586Y-15287912D01*
X8479586Y-15287912D02*
X8479586Y-15116484D01*
X8736729Y-15316484D02*
X8736729Y-15116484D01*
X8736729Y-15116484D02*
X8803396Y-15259341D01*
X8803396Y-15259341D02*
X8870062Y-15116484D01*
X8870062Y-15116484D02*
X8870062Y-15316484D01*
X9051015Y-15316484D02*
X9051015Y-15211722D01*
X9051015Y-15211722D02*
X9041491Y-15192674D01*
X9041491Y-15192674D02*
X9022443Y-15183150D01*
X9022443Y-15183150D02*
X8984348Y-15183150D01*
X8984348Y-15183150D02*
X8965301Y-15192674D01*
X9051015Y-15306960D02*
X9031967Y-15316484D01*
X9031967Y-15316484D02*
X8984348Y-15316484D01*
X8984348Y-15316484D02*
X8965301Y-15306960D01*
X8965301Y-15306960D02*
X8955777Y-15287912D01*
X8955777Y-15287912D02*
X8955777Y-15268865D01*
X8955777Y-15268865D02*
X8965301Y-15249817D01*
X8965301Y-15249817D02*
X8984348Y-15240293D01*
X8984348Y-15240293D02*
X9031967Y-15240293D01*
X9031967Y-15240293D02*
X9051015Y-15230769D01*
X9146253Y-15183150D02*
X9146253Y-15383150D01*
X9146253Y-15192674D02*
X9165301Y-15183150D01*
X9165301Y-15183150D02*
X9203396Y-15183150D01*
X9203396Y-15183150D02*
X9222443Y-15192674D01*
X9222443Y-15192674D02*
X9231967Y-15202198D01*
X9231967Y-15202198D02*
X9241491Y-15221246D01*
X9241491Y-15221246D02*
X9241491Y-15278388D01*
X9241491Y-15278388D02*
X9231967Y-15297436D01*
X9231967Y-15297436D02*
X9222443Y-15306960D01*
X9222443Y-15306960D02*
X9203396Y-15316484D01*
X9203396Y-15316484D02*
X9165301Y-15316484D01*
X9165301Y-15316484D02*
X9146253Y-15306960D01*
X9327205Y-15297436D02*
X9336729Y-15306960D01*
X9336729Y-15306960D02*
X9327205Y-15316484D01*
X9327205Y-15316484D02*
X9317682Y-15306960D01*
X9317682Y-15306960D02*
X9327205Y-15297436D01*
X9327205Y-15297436D02*
X9327205Y-15316484D01*
X9327205Y-15192674D02*
X9336729Y-15202198D01*
X9336729Y-15202198D02*
X9327205Y-15211722D01*
X9327205Y-15211722D02*
X9317682Y-15202198D01*
X9317682Y-15202198D02*
X9327205Y-15192674D01*
X9327205Y-15192674D02*
X9327205Y-15211722D01*
D12*
X7655000Y-15625000D02*
X7695000Y-15665000D01*
X7695000Y-15625000D02*
X7655000Y-15665000D01*
D11*
X7993872Y-15536484D02*
X8012920Y-15536484D01*
X8012920Y-15536484D02*
X8031967Y-15546008D01*
X8031967Y-15546008D02*
X8041491Y-15555531D01*
X8041491Y-15555531D02*
X8051015Y-15574579D01*
X8051015Y-15574579D02*
X8060539Y-15612674D01*
X8060539Y-15612674D02*
X8060539Y-15660293D01*
X8060539Y-15660293D02*
X8051015Y-15698388D01*
X8051015Y-15698388D02*
X8041491Y-15717436D01*
X8041491Y-15717436D02*
X8031967Y-15726960D01*
X8031967Y-15726960D02*
X8012920Y-15736484D01*
X8012920Y-15736484D02*
X7993872Y-15736484D01*
X7993872Y-15736484D02*
X7974824Y-15726960D01*
X7974824Y-15726960D02*
X7965300Y-15717436D01*
X7965300Y-15717436D02*
X7955777Y-15698388D01*
X7955777Y-15698388D02*
X7946253Y-15660293D01*
X7946253Y-15660293D02*
X7946253Y-15612674D01*
X7946253Y-15612674D02*
X7955777Y-15574579D01*
X7955777Y-15574579D02*
X7965300Y-15555531D01*
X7965300Y-15555531D02*
X7974824Y-15546008D01*
X7974824Y-15546008D02*
X7993872Y-15536484D01*
X8146253Y-15717436D02*
X8155777Y-15726960D01*
X8155777Y-15726960D02*
X8146253Y-15736484D01*
X8146253Y-15736484D02*
X8136729Y-15726960D01*
X8136729Y-15726960D02*
X8146253Y-15717436D01*
X8146253Y-15717436D02*
X8146253Y-15736484D01*
X8327205Y-15603150D02*
X8327205Y-15736484D01*
X8279586Y-15526960D02*
X8231967Y-15669817D01*
X8231967Y-15669817D02*
X8355777Y-15669817D01*
X8470062Y-15536484D02*
X8489110Y-15536484D01*
X8489110Y-15536484D02*
X8508158Y-15546008D01*
X8508158Y-15546008D02*
X8517682Y-15555531D01*
X8517682Y-15555531D02*
X8527205Y-15574579D01*
X8527205Y-15574579D02*
X8536729Y-15612674D01*
X8536729Y-15612674D02*
X8536729Y-15660293D01*
X8536729Y-15660293D02*
X8527205Y-15698388D01*
X8527205Y-15698388D02*
X8517682Y-15717436D01*
X8517682Y-15717436D02*
X8508158Y-15726960D01*
X8508158Y-15726960D02*
X8489110Y-15736484D01*
X8489110Y-15736484D02*
X8470062Y-15736484D01*
X8470062Y-15736484D02*
X8451015Y-15726960D01*
X8451015Y-15726960D02*
X8441491Y-15717436D01*
X8441491Y-15717436D02*
X8431967Y-15698388D01*
X8431967Y-15698388D02*
X8422443Y-15660293D01*
X8422443Y-15660293D02*
X8422443Y-15612674D01*
X8422443Y-15612674D02*
X8431967Y-15574579D01*
X8431967Y-15574579D02*
X8441491Y-15555531D01*
X8441491Y-15555531D02*
X8451015Y-15546008D01*
X8451015Y-15546008D02*
X8470062Y-15536484D01*
X8660539Y-15536484D02*
X8679586Y-15536484D01*
X8679586Y-15536484D02*
X8698634Y-15546008D01*
X8698634Y-15546008D02*
X8708158Y-15555531D01*
X8708158Y-15555531D02*
X8717682Y-15574579D01*
X8717682Y-15574579D02*
X8727205Y-15612674D01*
X8727205Y-15612674D02*
X8727205Y-15660293D01*
X8727205Y-15660293D02*
X8717682Y-15698388D01*
X8717682Y-15698388D02*
X8708158Y-15717436D01*
X8708158Y-15717436D02*
X8698634Y-15726960D01*
X8698634Y-15726960D02*
X8679586Y-15736484D01*
X8679586Y-15736484D02*
X8660539Y-15736484D01*
X8660539Y-15736484D02*
X8641491Y-15726960D01*
X8641491Y-15726960D02*
X8631967Y-15717436D01*
X8631967Y-15717436D02*
X8622443Y-15698388D01*
X8622443Y-15698388D02*
X8612920Y-15660293D01*
X8612920Y-15660293D02*
X8612920Y-15612674D01*
X8612920Y-15612674D02*
X8622443Y-15574579D01*
X8622443Y-15574579D02*
X8631967Y-15555531D01*
X8631967Y-15555531D02*
X8641491Y-15546008D01*
X8641491Y-15546008D02*
X8660539Y-15536484D01*
X8812920Y-15736484D02*
X8812920Y-15603150D01*
X8812920Y-15622198D02*
X8822443Y-15612674D01*
X8822443Y-15612674D02*
X8841491Y-15603150D01*
X8841491Y-15603150D02*
X8870063Y-15603150D01*
X8870063Y-15603150D02*
X8889110Y-15612674D01*
X8889110Y-15612674D02*
X8898634Y-15631722D01*
X8898634Y-15631722D02*
X8898634Y-15736484D01*
X8898634Y-15631722D02*
X8908158Y-15612674D01*
X8908158Y-15612674D02*
X8927205Y-15603150D01*
X8927205Y-15603150D02*
X8955777Y-15603150D01*
X8955777Y-15603150D02*
X8974824Y-15612674D01*
X8974824Y-15612674D02*
X8984348Y-15631722D01*
X8984348Y-15631722D02*
X8984348Y-15736484D01*
X9079586Y-15736484D02*
X9079586Y-15603150D01*
X9079586Y-15622198D02*
X9089110Y-15612674D01*
X9089110Y-15612674D02*
X9108158Y-15603150D01*
X9108158Y-15603150D02*
X9136729Y-15603150D01*
X9136729Y-15603150D02*
X9155777Y-15612674D01*
X9155777Y-15612674D02*
X9165301Y-15631722D01*
X9165301Y-15631722D02*
X9165301Y-15736484D01*
X9165301Y-15631722D02*
X9174824Y-15612674D01*
X9174824Y-15612674D02*
X9193872Y-15603150D01*
X9193872Y-15603150D02*
X9222443Y-15603150D01*
X9222443Y-15603150D02*
X9241491Y-15612674D01*
X9241491Y-15612674D02*
X9251015Y-15631722D01*
X9251015Y-15631722D02*
X9251015Y-15736484D01*
X9641491Y-15526960D02*
X9470063Y-15784103D01*
X9898634Y-15536484D02*
X9917682Y-15536484D01*
X9917682Y-15536484D02*
X9936729Y-15546008D01*
X9936729Y-15546008D02*
X9946253Y-15555531D01*
X9946253Y-15555531D02*
X9955777Y-15574579D01*
X9955777Y-15574579D02*
X9965301Y-15612674D01*
X9965301Y-15612674D02*
X9965301Y-15660293D01*
X9965301Y-15660293D02*
X9955777Y-15698388D01*
X9955777Y-15698388D02*
X9946253Y-15717436D01*
X9946253Y-15717436D02*
X9936729Y-15726960D01*
X9936729Y-15726960D02*
X9917682Y-15736484D01*
X9917682Y-15736484D02*
X9898634Y-15736484D01*
X9898634Y-15736484D02*
X9879586Y-15726960D01*
X9879586Y-15726960D02*
X9870063Y-15717436D01*
X9870063Y-15717436D02*
X9860539Y-15698388D01*
X9860539Y-15698388D02*
X9851015Y-15660293D01*
X9851015Y-15660293D02*
X9851015Y-15612674D01*
X9851015Y-15612674D02*
X9860539Y-15574579D01*
X9860539Y-15574579D02*
X9870063Y-15555531D01*
X9870063Y-15555531D02*
X9879586Y-15546008D01*
X9879586Y-15546008D02*
X9898634Y-15536484D01*
X10051015Y-15717436D02*
X10060539Y-15726960D01*
X10060539Y-15726960D02*
X10051015Y-15736484D01*
X10051015Y-15736484D02*
X10041491Y-15726960D01*
X10041491Y-15726960D02*
X10051015Y-15717436D01*
X10051015Y-15717436D02*
X10051015Y-15736484D01*
X10184348Y-15536484D02*
X10203396Y-15536484D01*
X10203396Y-15536484D02*
X10222444Y-15546008D01*
X10222444Y-15546008D02*
X10231967Y-15555531D01*
X10231967Y-15555531D02*
X10241491Y-15574579D01*
X10241491Y-15574579D02*
X10251015Y-15612674D01*
X10251015Y-15612674D02*
X10251015Y-15660293D01*
X10251015Y-15660293D02*
X10241491Y-15698388D01*
X10241491Y-15698388D02*
X10231967Y-15717436D01*
X10231967Y-15717436D02*
X10222444Y-15726960D01*
X10222444Y-15726960D02*
X10203396Y-15736484D01*
X10203396Y-15736484D02*
X10184348Y-15736484D01*
X10184348Y-15736484D02*
X10165301Y-15726960D01*
X10165301Y-15726960D02*
X10155777Y-15717436D01*
X10155777Y-15717436D02*
X10146253Y-15698388D01*
X10146253Y-15698388D02*
X10136729Y-15660293D01*
X10136729Y-15660293D02*
X10136729Y-15612674D01*
X10136729Y-15612674D02*
X10146253Y-15574579D01*
X10146253Y-15574579D02*
X10155777Y-15555531D01*
X10155777Y-15555531D02*
X10165301Y-15546008D01*
X10165301Y-15546008D02*
X10184348Y-15536484D01*
X10441491Y-15736484D02*
X10327206Y-15736484D01*
X10384348Y-15736484D02*
X10384348Y-15536484D01*
X10384348Y-15536484D02*
X10365301Y-15565055D01*
X10365301Y-15565055D02*
X10346253Y-15584103D01*
X10346253Y-15584103D02*
X10327206Y-15593627D01*
X10622444Y-15536484D02*
X10527206Y-15536484D01*
X10527206Y-15536484D02*
X10517682Y-15631722D01*
X10517682Y-15631722D02*
X10527206Y-15622198D01*
X10527206Y-15622198D02*
X10546253Y-15612674D01*
X10546253Y-15612674D02*
X10593872Y-15612674D01*
X10593872Y-15612674D02*
X10612920Y-15622198D01*
X10612920Y-15622198D02*
X10622444Y-15631722D01*
X10622444Y-15631722D02*
X10631967Y-15650769D01*
X10631967Y-15650769D02*
X10631967Y-15698388D01*
X10631967Y-15698388D02*
X10622444Y-15717436D01*
X10622444Y-15717436D02*
X10612920Y-15726960D01*
X10612920Y-15726960D02*
X10593872Y-15736484D01*
X10593872Y-15736484D02*
X10546253Y-15736484D01*
X10546253Y-15736484D02*
X10527206Y-15726960D01*
X10527206Y-15726960D02*
X10517682Y-15717436D01*
X10698634Y-15536484D02*
X10831967Y-15536484D01*
X10831967Y-15536484D02*
X10746253Y-15736484D01*
X10898634Y-15536484D02*
X10898634Y-15574579D01*
X10974825Y-15536484D02*
X10974825Y-15574579D01*
X11270063Y-15812674D02*
X11260539Y-15803150D01*
X11260539Y-15803150D02*
X11241491Y-15774579D01*
X11241491Y-15774579D02*
X11231967Y-15755531D01*
X11231967Y-15755531D02*
X11222444Y-15726960D01*
X11222444Y-15726960D02*
X11212920Y-15679341D01*
X11212920Y-15679341D02*
X11212920Y-15641246D01*
X11212920Y-15641246D02*
X11222444Y-15593627D01*
X11222444Y-15593627D02*
X11231967Y-15565055D01*
X11231967Y-15565055D02*
X11241491Y-15546008D01*
X11241491Y-15546008D02*
X11260539Y-15517436D01*
X11260539Y-15517436D02*
X11270063Y-15507912D01*
X11441491Y-15536484D02*
X11346253Y-15536484D01*
X11346253Y-15536484D02*
X11336729Y-15631722D01*
X11336729Y-15631722D02*
X11346253Y-15622198D01*
X11346253Y-15622198D02*
X11365301Y-15612674D01*
X11365301Y-15612674D02*
X11412920Y-15612674D01*
X11412920Y-15612674D02*
X11431967Y-15622198D01*
X11431967Y-15622198D02*
X11441491Y-15631722D01*
X11441491Y-15631722D02*
X11451015Y-15650769D01*
X11451015Y-15650769D02*
X11451015Y-15698388D01*
X11451015Y-15698388D02*
X11441491Y-15717436D01*
X11441491Y-15717436D02*
X11431967Y-15726960D01*
X11431967Y-15726960D02*
X11412920Y-15736484D01*
X11412920Y-15736484D02*
X11365301Y-15736484D01*
X11365301Y-15736484D02*
X11346253Y-15726960D01*
X11346253Y-15726960D02*
X11336729Y-15717436D01*
X11527206Y-15555531D02*
X11536729Y-15546008D01*
X11536729Y-15546008D02*
X11555777Y-15536484D01*
X11555777Y-15536484D02*
X11603396Y-15536484D01*
X11603396Y-15536484D02*
X11622444Y-15546008D01*
X11622444Y-15546008D02*
X11631967Y-15555531D01*
X11631967Y-15555531D02*
X11641491Y-15574579D01*
X11641491Y-15574579D02*
X11641491Y-15593627D01*
X11641491Y-15593627D02*
X11631967Y-15622198D01*
X11631967Y-15622198D02*
X11517682Y-15736484D01*
X11517682Y-15736484D02*
X11641491Y-15736484D01*
X11879587Y-15736484D02*
X11879587Y-15536484D01*
X11965301Y-15736484D02*
X11965301Y-15631722D01*
X11965301Y-15631722D02*
X11955777Y-15612674D01*
X11955777Y-15612674D02*
X11936729Y-15603150D01*
X11936729Y-15603150D02*
X11908158Y-15603150D01*
X11908158Y-15603150D02*
X11889110Y-15612674D01*
X11889110Y-15612674D02*
X11879587Y-15622198D01*
X12089110Y-15736484D02*
X12070063Y-15726960D01*
X12070063Y-15726960D02*
X12060539Y-15717436D01*
X12060539Y-15717436D02*
X12051015Y-15698388D01*
X12051015Y-15698388D02*
X12051015Y-15641246D01*
X12051015Y-15641246D02*
X12060539Y-15622198D01*
X12060539Y-15622198D02*
X12070063Y-15612674D01*
X12070063Y-15612674D02*
X12089110Y-15603150D01*
X12089110Y-15603150D02*
X12117682Y-15603150D01*
X12117682Y-15603150D02*
X12136729Y-15612674D01*
X12136729Y-15612674D02*
X12146253Y-15622198D01*
X12146253Y-15622198D02*
X12155777Y-15641246D01*
X12155777Y-15641246D02*
X12155777Y-15698388D01*
X12155777Y-15698388D02*
X12146253Y-15717436D01*
X12146253Y-15717436D02*
X12136729Y-15726960D01*
X12136729Y-15726960D02*
X12117682Y-15736484D01*
X12117682Y-15736484D02*
X12089110Y-15736484D01*
X12270063Y-15736484D02*
X12251015Y-15726960D01*
X12251015Y-15726960D02*
X12241491Y-15707912D01*
X12241491Y-15707912D02*
X12241491Y-15536484D01*
X12422444Y-15726960D02*
X12403396Y-15736484D01*
X12403396Y-15736484D02*
X12365301Y-15736484D01*
X12365301Y-15736484D02*
X12346253Y-15726960D01*
X12346253Y-15726960D02*
X12336729Y-15707912D01*
X12336729Y-15707912D02*
X12336729Y-15631722D01*
X12336729Y-15631722D02*
X12346253Y-15612674D01*
X12346253Y-15612674D02*
X12365301Y-15603150D01*
X12365301Y-15603150D02*
X12403396Y-15603150D01*
X12403396Y-15603150D02*
X12422444Y-15612674D01*
X12422444Y-15612674D02*
X12431968Y-15631722D01*
X12431968Y-15631722D02*
X12431968Y-15650769D01*
X12431968Y-15650769D02*
X12336729Y-15669817D01*
X12508158Y-15726960D02*
X12527206Y-15736484D01*
X12527206Y-15736484D02*
X12565301Y-15736484D01*
X12565301Y-15736484D02*
X12584349Y-15726960D01*
X12584349Y-15726960D02*
X12593872Y-15707912D01*
X12593872Y-15707912D02*
X12593872Y-15698388D01*
X12593872Y-15698388D02*
X12584349Y-15679341D01*
X12584349Y-15679341D02*
X12565301Y-15669817D01*
X12565301Y-15669817D02*
X12536729Y-15669817D01*
X12536729Y-15669817D02*
X12517682Y-15660293D01*
X12517682Y-15660293D02*
X12508158Y-15641246D01*
X12508158Y-15641246D02*
X12508158Y-15631722D01*
X12508158Y-15631722D02*
X12517682Y-15612674D01*
X12517682Y-15612674D02*
X12536729Y-15603150D01*
X12536729Y-15603150D02*
X12565301Y-15603150D01*
X12565301Y-15603150D02*
X12584349Y-15612674D01*
X12660539Y-15812674D02*
X12670063Y-15803150D01*
X12670063Y-15803150D02*
X12689110Y-15774579D01*
X12689110Y-15774579D02*
X12698634Y-15755531D01*
X12698634Y-15755531D02*
X12708158Y-15726960D01*
X12708158Y-15726960D02*
X12717682Y-15679341D01*
X12717682Y-15679341D02*
X12717682Y-15641246D01*
X12717682Y-15641246D02*
X12708158Y-15593627D01*
X12708158Y-15593627D02*
X12698634Y-15565055D01*
X12698634Y-15565055D02*
X12689110Y-15546008D01*
X12689110Y-15546008D02*
X12670063Y-15517436D01*
X12670063Y-15517436D02*
X12660539Y-15507912D01*
D13*
X7695000Y-15909000D02*
G75*
G03*
X7695000Y-15909000I-40000J0D01*
G01*
D11*
X7993872Y-15800484D02*
X8012920Y-15800484D01*
X8012920Y-15800484D02*
X8031967Y-15810008D01*
X8031967Y-15810008D02*
X8041491Y-15819531D01*
X8041491Y-15819531D02*
X8051015Y-15838579D01*
X8051015Y-15838579D02*
X8060539Y-15876674D01*
X8060539Y-15876674D02*
X8060539Y-15924293D01*
X8060539Y-15924293D02*
X8051015Y-15962388D01*
X8051015Y-15962388D02*
X8041491Y-15981436D01*
X8041491Y-15981436D02*
X8031967Y-15990960D01*
X8031967Y-15990960D02*
X8012920Y-16000484D01*
X8012920Y-16000484D02*
X7993872Y-16000484D01*
X7993872Y-16000484D02*
X7974824Y-15990960D01*
X7974824Y-15990960D02*
X7965300Y-15981436D01*
X7965300Y-15981436D02*
X7955777Y-15962388D01*
X7955777Y-15962388D02*
X7946253Y-15924293D01*
X7946253Y-15924293D02*
X7946253Y-15876674D01*
X7946253Y-15876674D02*
X7955777Y-15838579D01*
X7955777Y-15838579D02*
X7965300Y-15819531D01*
X7965300Y-15819531D02*
X7974824Y-15810008D01*
X7974824Y-15810008D02*
X7993872Y-15800484D01*
X8146253Y-15981436D02*
X8155777Y-15990960D01*
X8155777Y-15990960D02*
X8146253Y-16000484D01*
X8146253Y-16000484D02*
X8136729Y-15990960D01*
X8136729Y-15990960D02*
X8146253Y-15981436D01*
X8146253Y-15981436D02*
X8146253Y-16000484D01*
X8270062Y-15886198D02*
X8251015Y-15876674D01*
X8251015Y-15876674D02*
X8241491Y-15867150D01*
X8241491Y-15867150D02*
X8231967Y-15848103D01*
X8231967Y-15848103D02*
X8231967Y-15838579D01*
X8231967Y-15838579D02*
X8241491Y-15819531D01*
X8241491Y-15819531D02*
X8251015Y-15810008D01*
X8251015Y-15810008D02*
X8270062Y-15800484D01*
X8270062Y-15800484D02*
X8308158Y-15800484D01*
X8308158Y-15800484D02*
X8327205Y-15810008D01*
X8327205Y-15810008D02*
X8336729Y-15819531D01*
X8336729Y-15819531D02*
X8346253Y-15838579D01*
X8346253Y-15838579D02*
X8346253Y-15848103D01*
X8346253Y-15848103D02*
X8336729Y-15867150D01*
X8336729Y-15867150D02*
X8327205Y-15876674D01*
X8327205Y-15876674D02*
X8308158Y-15886198D01*
X8308158Y-15886198D02*
X8270062Y-15886198D01*
X8270062Y-15886198D02*
X8251015Y-15895722D01*
X8251015Y-15895722D02*
X8241491Y-15905246D01*
X8241491Y-15905246D02*
X8231967Y-15924293D01*
X8231967Y-15924293D02*
X8231967Y-15962388D01*
X8231967Y-15962388D02*
X8241491Y-15981436D01*
X8241491Y-15981436D02*
X8251015Y-15990960D01*
X8251015Y-15990960D02*
X8270062Y-16000484D01*
X8270062Y-16000484D02*
X8308158Y-16000484D01*
X8308158Y-16000484D02*
X8327205Y-15990960D01*
X8327205Y-15990960D02*
X8336729Y-15981436D01*
X8336729Y-15981436D02*
X8346253Y-15962388D01*
X8346253Y-15962388D02*
X8346253Y-15924293D01*
X8346253Y-15924293D02*
X8336729Y-15905246D01*
X8336729Y-15905246D02*
X8327205Y-15895722D01*
X8327205Y-15895722D02*
X8308158Y-15886198D01*
X8470062Y-15800484D02*
X8489110Y-15800484D01*
X8489110Y-15800484D02*
X8508158Y-15810008D01*
X8508158Y-15810008D02*
X8517682Y-15819531D01*
X8517682Y-15819531D02*
X8527205Y-15838579D01*
X8527205Y-15838579D02*
X8536729Y-15876674D01*
X8536729Y-15876674D02*
X8536729Y-15924293D01*
X8536729Y-15924293D02*
X8527205Y-15962388D01*
X8527205Y-15962388D02*
X8517682Y-15981436D01*
X8517682Y-15981436D02*
X8508158Y-15990960D01*
X8508158Y-15990960D02*
X8489110Y-16000484D01*
X8489110Y-16000484D02*
X8470062Y-16000484D01*
X8470062Y-16000484D02*
X8451015Y-15990960D01*
X8451015Y-15990960D02*
X8441491Y-15981436D01*
X8441491Y-15981436D02*
X8431967Y-15962388D01*
X8431967Y-15962388D02*
X8422443Y-15924293D01*
X8422443Y-15924293D02*
X8422443Y-15876674D01*
X8422443Y-15876674D02*
X8431967Y-15838579D01*
X8431967Y-15838579D02*
X8441491Y-15819531D01*
X8441491Y-15819531D02*
X8451015Y-15810008D01*
X8451015Y-15810008D02*
X8470062Y-15800484D01*
X8660539Y-15800484D02*
X8679586Y-15800484D01*
X8679586Y-15800484D02*
X8698634Y-15810008D01*
X8698634Y-15810008D02*
X8708158Y-15819531D01*
X8708158Y-15819531D02*
X8717682Y-15838579D01*
X8717682Y-15838579D02*
X8727205Y-15876674D01*
X8727205Y-15876674D02*
X8727205Y-15924293D01*
X8727205Y-15924293D02*
X8717682Y-15962388D01*
X8717682Y-15962388D02*
X8708158Y-15981436D01*
X8708158Y-15981436D02*
X8698634Y-15990960D01*
X8698634Y-15990960D02*
X8679586Y-16000484D01*
X8679586Y-16000484D02*
X8660539Y-16000484D01*
X8660539Y-16000484D02*
X8641491Y-15990960D01*
X8641491Y-15990960D02*
X8631967Y-15981436D01*
X8631967Y-15981436D02*
X8622443Y-15962388D01*
X8622443Y-15962388D02*
X8612920Y-15924293D01*
X8612920Y-15924293D02*
X8612920Y-15876674D01*
X8612920Y-15876674D02*
X8622443Y-15838579D01*
X8622443Y-15838579D02*
X8631967Y-15819531D01*
X8631967Y-15819531D02*
X8641491Y-15810008D01*
X8641491Y-15810008D02*
X8660539Y-15800484D01*
X8812920Y-16000484D02*
X8812920Y-15867150D01*
X8812920Y-15886198D02*
X8822443Y-15876674D01*
X8822443Y-15876674D02*
X8841491Y-15867150D01*
X8841491Y-15867150D02*
X8870063Y-15867150D01*
X8870063Y-15867150D02*
X8889110Y-15876674D01*
X8889110Y-15876674D02*
X8898634Y-15895722D01*
X8898634Y-15895722D02*
X8898634Y-16000484D01*
X8898634Y-15895722D02*
X8908158Y-15876674D01*
X8908158Y-15876674D02*
X8927205Y-15867150D01*
X8927205Y-15867150D02*
X8955777Y-15867150D01*
X8955777Y-15867150D02*
X8974824Y-15876674D01*
X8974824Y-15876674D02*
X8984348Y-15895722D01*
X8984348Y-15895722D02*
X8984348Y-16000484D01*
X9079586Y-16000484D02*
X9079586Y-15867150D01*
X9079586Y-15886198D02*
X9089110Y-15876674D01*
X9089110Y-15876674D02*
X9108158Y-15867150D01*
X9108158Y-15867150D02*
X9136729Y-15867150D01*
X9136729Y-15867150D02*
X9155777Y-15876674D01*
X9155777Y-15876674D02*
X9165301Y-15895722D01*
X9165301Y-15895722D02*
X9165301Y-16000484D01*
X9165301Y-15895722D02*
X9174824Y-15876674D01*
X9174824Y-15876674D02*
X9193872Y-15867150D01*
X9193872Y-15867150D02*
X9222443Y-15867150D01*
X9222443Y-15867150D02*
X9241491Y-15876674D01*
X9241491Y-15876674D02*
X9251015Y-15895722D01*
X9251015Y-15895722D02*
X9251015Y-16000484D01*
X9641491Y-15790960D02*
X9470063Y-16048103D01*
X9898634Y-15800484D02*
X9917682Y-15800484D01*
X9917682Y-15800484D02*
X9936729Y-15810008D01*
X9936729Y-15810008D02*
X9946253Y-15819531D01*
X9946253Y-15819531D02*
X9955777Y-15838579D01*
X9955777Y-15838579D02*
X9965301Y-15876674D01*
X9965301Y-15876674D02*
X9965301Y-15924293D01*
X9965301Y-15924293D02*
X9955777Y-15962388D01*
X9955777Y-15962388D02*
X9946253Y-15981436D01*
X9946253Y-15981436D02*
X9936729Y-15990960D01*
X9936729Y-15990960D02*
X9917682Y-16000484D01*
X9917682Y-16000484D02*
X9898634Y-16000484D01*
X9898634Y-16000484D02*
X9879586Y-15990960D01*
X9879586Y-15990960D02*
X9870063Y-15981436D01*
X9870063Y-15981436D02*
X9860539Y-15962388D01*
X9860539Y-15962388D02*
X9851015Y-15924293D01*
X9851015Y-15924293D02*
X9851015Y-15876674D01*
X9851015Y-15876674D02*
X9860539Y-15838579D01*
X9860539Y-15838579D02*
X9870063Y-15819531D01*
X9870063Y-15819531D02*
X9879586Y-15810008D01*
X9879586Y-15810008D02*
X9898634Y-15800484D01*
X10051015Y-15981436D02*
X10060539Y-15990960D01*
X10060539Y-15990960D02*
X10051015Y-16000484D01*
X10051015Y-16000484D02*
X10041491Y-15990960D01*
X10041491Y-15990960D02*
X10051015Y-15981436D01*
X10051015Y-15981436D02*
X10051015Y-16000484D01*
X10184348Y-15800484D02*
X10203396Y-15800484D01*
X10203396Y-15800484D02*
X10222444Y-15810008D01*
X10222444Y-15810008D02*
X10231967Y-15819531D01*
X10231967Y-15819531D02*
X10241491Y-15838579D01*
X10241491Y-15838579D02*
X10251015Y-15876674D01*
X10251015Y-15876674D02*
X10251015Y-15924293D01*
X10251015Y-15924293D02*
X10241491Y-15962388D01*
X10241491Y-15962388D02*
X10231967Y-15981436D01*
X10231967Y-15981436D02*
X10222444Y-15990960D01*
X10222444Y-15990960D02*
X10203396Y-16000484D01*
X10203396Y-16000484D02*
X10184348Y-16000484D01*
X10184348Y-16000484D02*
X10165301Y-15990960D01*
X10165301Y-15990960D02*
X10155777Y-15981436D01*
X10155777Y-15981436D02*
X10146253Y-15962388D01*
X10146253Y-15962388D02*
X10136729Y-15924293D01*
X10136729Y-15924293D02*
X10136729Y-15876674D01*
X10136729Y-15876674D02*
X10146253Y-15838579D01*
X10146253Y-15838579D02*
X10155777Y-15819531D01*
X10155777Y-15819531D02*
X10165301Y-15810008D01*
X10165301Y-15810008D02*
X10184348Y-15800484D01*
X10317682Y-15800484D02*
X10441491Y-15800484D01*
X10441491Y-15800484D02*
X10374825Y-15876674D01*
X10374825Y-15876674D02*
X10403396Y-15876674D01*
X10403396Y-15876674D02*
X10422444Y-15886198D01*
X10422444Y-15886198D02*
X10431967Y-15895722D01*
X10431967Y-15895722D02*
X10441491Y-15914769D01*
X10441491Y-15914769D02*
X10441491Y-15962388D01*
X10441491Y-15962388D02*
X10431967Y-15981436D01*
X10431967Y-15981436D02*
X10422444Y-15990960D01*
X10422444Y-15990960D02*
X10403396Y-16000484D01*
X10403396Y-16000484D02*
X10346253Y-16000484D01*
X10346253Y-16000484D02*
X10327206Y-15990960D01*
X10327206Y-15990960D02*
X10317682Y-15981436D01*
X10631967Y-16000484D02*
X10517682Y-16000484D01*
X10574825Y-16000484D02*
X10574825Y-15800484D01*
X10574825Y-15800484D02*
X10555777Y-15829055D01*
X10555777Y-15829055D02*
X10536729Y-15848103D01*
X10536729Y-15848103D02*
X10517682Y-15857627D01*
X10812920Y-15800484D02*
X10717682Y-15800484D01*
X10717682Y-15800484D02*
X10708158Y-15895722D01*
X10708158Y-15895722D02*
X10717682Y-15886198D01*
X10717682Y-15886198D02*
X10736729Y-15876674D01*
X10736729Y-15876674D02*
X10784348Y-15876674D01*
X10784348Y-15876674D02*
X10803396Y-15886198D01*
X10803396Y-15886198D02*
X10812920Y-15895722D01*
X10812920Y-15895722D02*
X10822444Y-15914769D01*
X10822444Y-15914769D02*
X10822444Y-15962388D01*
X10822444Y-15962388D02*
X10812920Y-15981436D01*
X10812920Y-15981436D02*
X10803396Y-15990960D01*
X10803396Y-15990960D02*
X10784348Y-16000484D01*
X10784348Y-16000484D02*
X10736729Y-16000484D01*
X10736729Y-16000484D02*
X10717682Y-15990960D01*
X10717682Y-15990960D02*
X10708158Y-15981436D01*
X10898634Y-15800484D02*
X10898634Y-15838579D01*
X10974825Y-15800484D02*
X10974825Y-15838579D01*
X11270063Y-16076674D02*
X11260539Y-16067150D01*
X11260539Y-16067150D02*
X11241491Y-16038579D01*
X11241491Y-16038579D02*
X11231967Y-16019531D01*
X11231967Y-16019531D02*
X11222444Y-15990960D01*
X11222444Y-15990960D02*
X11212920Y-15943341D01*
X11212920Y-15943341D02*
X11212920Y-15905246D01*
X11212920Y-15905246D02*
X11222444Y-15857627D01*
X11222444Y-15857627D02*
X11231967Y-15829055D01*
X11231967Y-15829055D02*
X11241491Y-15810008D01*
X11241491Y-15810008D02*
X11260539Y-15781436D01*
X11260539Y-15781436D02*
X11270063Y-15771912D01*
X11355777Y-16000484D02*
X11393872Y-16000484D01*
X11393872Y-16000484D02*
X11412920Y-15990960D01*
X11412920Y-15990960D02*
X11422444Y-15981436D01*
X11422444Y-15981436D02*
X11441491Y-15952865D01*
X11441491Y-15952865D02*
X11451015Y-15914769D01*
X11451015Y-15914769D02*
X11451015Y-15838579D01*
X11451015Y-15838579D02*
X11441491Y-15819531D01*
X11441491Y-15819531D02*
X11431967Y-15810008D01*
X11431967Y-15810008D02*
X11412920Y-15800484D01*
X11412920Y-15800484D02*
X11374825Y-15800484D01*
X11374825Y-15800484D02*
X11355777Y-15810008D01*
X11355777Y-15810008D02*
X11346253Y-15819531D01*
X11346253Y-15819531D02*
X11336729Y-15838579D01*
X11336729Y-15838579D02*
X11336729Y-15886198D01*
X11336729Y-15886198D02*
X11346253Y-15905246D01*
X11346253Y-15905246D02*
X11355777Y-15914769D01*
X11355777Y-15914769D02*
X11374825Y-15924293D01*
X11374825Y-15924293D02*
X11412920Y-15924293D01*
X11412920Y-15924293D02*
X11431967Y-15914769D01*
X11431967Y-15914769D02*
X11441491Y-15905246D01*
X11441491Y-15905246D02*
X11451015Y-15886198D01*
X11527206Y-15819531D02*
X11536729Y-15810008D01*
X11536729Y-15810008D02*
X11555777Y-15800484D01*
X11555777Y-15800484D02*
X11603396Y-15800484D01*
X11603396Y-15800484D02*
X11622444Y-15810008D01*
X11622444Y-15810008D02*
X11631967Y-15819531D01*
X11631967Y-15819531D02*
X11641491Y-15838579D01*
X11641491Y-15838579D02*
X11641491Y-15857627D01*
X11641491Y-15857627D02*
X11631967Y-15886198D01*
X11631967Y-15886198D02*
X11517682Y-16000484D01*
X11517682Y-16000484D02*
X11641491Y-16000484D01*
X11879587Y-16000484D02*
X11879587Y-15800484D01*
X11965301Y-16000484D02*
X11965301Y-15895722D01*
X11965301Y-15895722D02*
X11955777Y-15876674D01*
X11955777Y-15876674D02*
X11936729Y-15867150D01*
X11936729Y-15867150D02*
X11908158Y-15867150D01*
X11908158Y-15867150D02*
X11889110Y-15876674D01*
X11889110Y-15876674D02*
X11879587Y-15886198D01*
X12089110Y-16000484D02*
X12070063Y-15990960D01*
X12070063Y-15990960D02*
X12060539Y-15981436D01*
X12060539Y-15981436D02*
X12051015Y-15962388D01*
X12051015Y-15962388D02*
X12051015Y-15905246D01*
X12051015Y-15905246D02*
X12060539Y-15886198D01*
X12060539Y-15886198D02*
X12070063Y-15876674D01*
X12070063Y-15876674D02*
X12089110Y-15867150D01*
X12089110Y-15867150D02*
X12117682Y-15867150D01*
X12117682Y-15867150D02*
X12136729Y-15876674D01*
X12136729Y-15876674D02*
X12146253Y-15886198D01*
X12146253Y-15886198D02*
X12155777Y-15905246D01*
X12155777Y-15905246D02*
X12155777Y-15962388D01*
X12155777Y-15962388D02*
X12146253Y-15981436D01*
X12146253Y-15981436D02*
X12136729Y-15990960D01*
X12136729Y-15990960D02*
X12117682Y-16000484D01*
X12117682Y-16000484D02*
X12089110Y-16000484D01*
X12270063Y-16000484D02*
X12251015Y-15990960D01*
X12251015Y-15990960D02*
X12241491Y-15971912D01*
X12241491Y-15971912D02*
X12241491Y-15800484D01*
X12422444Y-15990960D02*
X12403396Y-16000484D01*
X12403396Y-16000484D02*
X12365301Y-16000484D01*
X12365301Y-16000484D02*
X12346253Y-15990960D01*
X12346253Y-15990960D02*
X12336729Y-15971912D01*
X12336729Y-15971912D02*
X12336729Y-15895722D01*
X12336729Y-15895722D02*
X12346253Y-15876674D01*
X12346253Y-15876674D02*
X12365301Y-15867150D01*
X12365301Y-15867150D02*
X12403396Y-15867150D01*
X12403396Y-15867150D02*
X12422444Y-15876674D01*
X12422444Y-15876674D02*
X12431968Y-15895722D01*
X12431968Y-15895722D02*
X12431968Y-15914769D01*
X12431968Y-15914769D02*
X12336729Y-15933817D01*
X12508158Y-15990960D02*
X12527206Y-16000484D01*
X12527206Y-16000484D02*
X12565301Y-16000484D01*
X12565301Y-16000484D02*
X12584349Y-15990960D01*
X12584349Y-15990960D02*
X12593872Y-15971912D01*
X12593872Y-15971912D02*
X12593872Y-15962388D01*
X12593872Y-15962388D02*
X12584349Y-15943341D01*
X12584349Y-15943341D02*
X12565301Y-15933817D01*
X12565301Y-15933817D02*
X12536729Y-15933817D01*
X12536729Y-15933817D02*
X12517682Y-15924293D01*
X12517682Y-15924293D02*
X12508158Y-15905246D01*
X12508158Y-15905246D02*
X12508158Y-15895722D01*
X12508158Y-15895722D02*
X12517682Y-15876674D01*
X12517682Y-15876674D02*
X12536729Y-15867150D01*
X12536729Y-15867150D02*
X12565301Y-15867150D01*
X12565301Y-15867150D02*
X12584349Y-15876674D01*
X12660539Y-16076674D02*
X12670063Y-16067150D01*
X12670063Y-16067150D02*
X12689110Y-16038579D01*
X12689110Y-16038579D02*
X12698634Y-16019531D01*
X12698634Y-16019531D02*
X12708158Y-15990960D01*
X12708158Y-15990960D02*
X12717682Y-15943341D01*
X12717682Y-15943341D02*
X12717682Y-15905246D01*
X12717682Y-15905246D02*
X12708158Y-15857627D01*
X12708158Y-15857627D02*
X12698634Y-15829055D01*
X12698634Y-15829055D02*
X12689110Y-15810008D01*
X12689110Y-15810008D02*
X12670063Y-15781436D01*
X12670063Y-15781436D02*
X12660539Y-15771912D01*
D10*
X7645000Y-16123000D02*
X7645000Y-16223000D01*
X7595000Y-16173000D02*
X7695000Y-16173000D01*
D11*
X8060539Y-16264484D02*
X7946253Y-16264484D01*
X8003396Y-16264484D02*
X8003396Y-16064484D01*
X8003396Y-16064484D02*
X7984348Y-16093055D01*
X7984348Y-16093055D02*
X7965300Y-16112103D01*
X7965300Y-16112103D02*
X7946253Y-16121627D01*
X8146253Y-16245436D02*
X8155777Y-16254960D01*
X8155777Y-16254960D02*
X8146253Y-16264484D01*
X8146253Y-16264484D02*
X8136729Y-16254960D01*
X8136729Y-16254960D02*
X8146253Y-16245436D01*
X8146253Y-16245436D02*
X8146253Y-16264484D01*
X8279586Y-16064484D02*
X8298634Y-16064484D01*
X8298634Y-16064484D02*
X8317681Y-16074008D01*
X8317681Y-16074008D02*
X8327205Y-16083531D01*
X8327205Y-16083531D02*
X8336729Y-16102579D01*
X8336729Y-16102579D02*
X8346253Y-16140674D01*
X8346253Y-16140674D02*
X8346253Y-16188293D01*
X8346253Y-16188293D02*
X8336729Y-16226388D01*
X8336729Y-16226388D02*
X8327205Y-16245436D01*
X8327205Y-16245436D02*
X8317681Y-16254960D01*
X8317681Y-16254960D02*
X8298634Y-16264484D01*
X8298634Y-16264484D02*
X8279586Y-16264484D01*
X8279586Y-16264484D02*
X8260539Y-16254960D01*
X8260539Y-16254960D02*
X8251015Y-16245436D01*
X8251015Y-16245436D02*
X8241491Y-16226388D01*
X8241491Y-16226388D02*
X8231967Y-16188293D01*
X8231967Y-16188293D02*
X8231967Y-16140674D01*
X8231967Y-16140674D02*
X8241491Y-16102579D01*
X8241491Y-16102579D02*
X8251015Y-16083531D01*
X8251015Y-16083531D02*
X8260539Y-16074008D01*
X8260539Y-16074008D02*
X8279586Y-16064484D01*
X8470062Y-16064484D02*
X8489110Y-16064484D01*
X8489110Y-16064484D02*
X8508158Y-16074008D01*
X8508158Y-16074008D02*
X8517682Y-16083531D01*
X8517682Y-16083531D02*
X8527205Y-16102579D01*
X8527205Y-16102579D02*
X8536729Y-16140674D01*
X8536729Y-16140674D02*
X8536729Y-16188293D01*
X8536729Y-16188293D02*
X8527205Y-16226388D01*
X8527205Y-16226388D02*
X8517682Y-16245436D01*
X8517682Y-16245436D02*
X8508158Y-16254960D01*
X8508158Y-16254960D02*
X8489110Y-16264484D01*
X8489110Y-16264484D02*
X8470062Y-16264484D01*
X8470062Y-16264484D02*
X8451015Y-16254960D01*
X8451015Y-16254960D02*
X8441491Y-16245436D01*
X8441491Y-16245436D02*
X8431967Y-16226388D01*
X8431967Y-16226388D02*
X8422443Y-16188293D01*
X8422443Y-16188293D02*
X8422443Y-16140674D01*
X8422443Y-16140674D02*
X8431967Y-16102579D01*
X8431967Y-16102579D02*
X8441491Y-16083531D01*
X8441491Y-16083531D02*
X8451015Y-16074008D01*
X8451015Y-16074008D02*
X8470062Y-16064484D01*
X8660539Y-16064484D02*
X8679586Y-16064484D01*
X8679586Y-16064484D02*
X8698634Y-16074008D01*
X8698634Y-16074008D02*
X8708158Y-16083531D01*
X8708158Y-16083531D02*
X8717682Y-16102579D01*
X8717682Y-16102579D02*
X8727205Y-16140674D01*
X8727205Y-16140674D02*
X8727205Y-16188293D01*
X8727205Y-16188293D02*
X8717682Y-16226388D01*
X8717682Y-16226388D02*
X8708158Y-16245436D01*
X8708158Y-16245436D02*
X8698634Y-16254960D01*
X8698634Y-16254960D02*
X8679586Y-16264484D01*
X8679586Y-16264484D02*
X8660539Y-16264484D01*
X8660539Y-16264484D02*
X8641491Y-16254960D01*
X8641491Y-16254960D02*
X8631967Y-16245436D01*
X8631967Y-16245436D02*
X8622443Y-16226388D01*
X8622443Y-16226388D02*
X8612920Y-16188293D01*
X8612920Y-16188293D02*
X8612920Y-16140674D01*
X8612920Y-16140674D02*
X8622443Y-16102579D01*
X8622443Y-16102579D02*
X8631967Y-16083531D01*
X8631967Y-16083531D02*
X8641491Y-16074008D01*
X8641491Y-16074008D02*
X8660539Y-16064484D01*
X8812920Y-16264484D02*
X8812920Y-16131150D01*
X8812920Y-16150198D02*
X8822443Y-16140674D01*
X8822443Y-16140674D02*
X8841491Y-16131150D01*
X8841491Y-16131150D02*
X8870063Y-16131150D01*
X8870063Y-16131150D02*
X8889110Y-16140674D01*
X8889110Y-16140674D02*
X8898634Y-16159722D01*
X8898634Y-16159722D02*
X8898634Y-16264484D01*
X8898634Y-16159722D02*
X8908158Y-16140674D01*
X8908158Y-16140674D02*
X8927205Y-16131150D01*
X8927205Y-16131150D02*
X8955777Y-16131150D01*
X8955777Y-16131150D02*
X8974824Y-16140674D01*
X8974824Y-16140674D02*
X8984348Y-16159722D01*
X8984348Y-16159722D02*
X8984348Y-16264484D01*
X9079586Y-16264484D02*
X9079586Y-16131150D01*
X9079586Y-16150198D02*
X9089110Y-16140674D01*
X9089110Y-16140674D02*
X9108158Y-16131150D01*
X9108158Y-16131150D02*
X9136729Y-16131150D01*
X9136729Y-16131150D02*
X9155777Y-16140674D01*
X9155777Y-16140674D02*
X9165301Y-16159722D01*
X9165301Y-16159722D02*
X9165301Y-16264484D01*
X9165301Y-16159722D02*
X9174824Y-16140674D01*
X9174824Y-16140674D02*
X9193872Y-16131150D01*
X9193872Y-16131150D02*
X9222443Y-16131150D01*
X9222443Y-16131150D02*
X9241491Y-16140674D01*
X9241491Y-16140674D02*
X9251015Y-16159722D01*
X9251015Y-16159722D02*
X9251015Y-16264484D01*
X9641491Y-16054960D02*
X9470063Y-16312103D01*
X9898634Y-16064484D02*
X9917682Y-16064484D01*
X9917682Y-16064484D02*
X9936729Y-16074008D01*
X9936729Y-16074008D02*
X9946253Y-16083531D01*
X9946253Y-16083531D02*
X9955777Y-16102579D01*
X9955777Y-16102579D02*
X9965301Y-16140674D01*
X9965301Y-16140674D02*
X9965301Y-16188293D01*
X9965301Y-16188293D02*
X9955777Y-16226388D01*
X9955777Y-16226388D02*
X9946253Y-16245436D01*
X9946253Y-16245436D02*
X9936729Y-16254960D01*
X9936729Y-16254960D02*
X9917682Y-16264484D01*
X9917682Y-16264484D02*
X9898634Y-16264484D01*
X9898634Y-16264484D02*
X9879586Y-16254960D01*
X9879586Y-16254960D02*
X9870063Y-16245436D01*
X9870063Y-16245436D02*
X9860539Y-16226388D01*
X9860539Y-16226388D02*
X9851015Y-16188293D01*
X9851015Y-16188293D02*
X9851015Y-16140674D01*
X9851015Y-16140674D02*
X9860539Y-16102579D01*
X9860539Y-16102579D02*
X9870063Y-16083531D01*
X9870063Y-16083531D02*
X9879586Y-16074008D01*
X9879586Y-16074008D02*
X9898634Y-16064484D01*
X10051015Y-16245436D02*
X10060539Y-16254960D01*
X10060539Y-16254960D02*
X10051015Y-16264484D01*
X10051015Y-16264484D02*
X10041491Y-16254960D01*
X10041491Y-16254960D02*
X10051015Y-16245436D01*
X10051015Y-16245436D02*
X10051015Y-16264484D01*
X10184348Y-16064484D02*
X10203396Y-16064484D01*
X10203396Y-16064484D02*
X10222444Y-16074008D01*
X10222444Y-16074008D02*
X10231967Y-16083531D01*
X10231967Y-16083531D02*
X10241491Y-16102579D01*
X10241491Y-16102579D02*
X10251015Y-16140674D01*
X10251015Y-16140674D02*
X10251015Y-16188293D01*
X10251015Y-16188293D02*
X10241491Y-16226388D01*
X10241491Y-16226388D02*
X10231967Y-16245436D01*
X10231967Y-16245436D02*
X10222444Y-16254960D01*
X10222444Y-16254960D02*
X10203396Y-16264484D01*
X10203396Y-16264484D02*
X10184348Y-16264484D01*
X10184348Y-16264484D02*
X10165301Y-16254960D01*
X10165301Y-16254960D02*
X10155777Y-16245436D01*
X10155777Y-16245436D02*
X10146253Y-16226388D01*
X10146253Y-16226388D02*
X10136729Y-16188293D01*
X10136729Y-16188293D02*
X10136729Y-16140674D01*
X10136729Y-16140674D02*
X10146253Y-16102579D01*
X10146253Y-16102579D02*
X10155777Y-16083531D01*
X10155777Y-16083531D02*
X10165301Y-16074008D01*
X10165301Y-16074008D02*
X10184348Y-16064484D01*
X10317682Y-16064484D02*
X10441491Y-16064484D01*
X10441491Y-16064484D02*
X10374825Y-16140674D01*
X10374825Y-16140674D02*
X10403396Y-16140674D01*
X10403396Y-16140674D02*
X10422444Y-16150198D01*
X10422444Y-16150198D02*
X10431967Y-16159722D01*
X10431967Y-16159722D02*
X10441491Y-16178769D01*
X10441491Y-16178769D02*
X10441491Y-16226388D01*
X10441491Y-16226388D02*
X10431967Y-16245436D01*
X10431967Y-16245436D02*
X10422444Y-16254960D01*
X10422444Y-16254960D02*
X10403396Y-16264484D01*
X10403396Y-16264484D02*
X10346253Y-16264484D01*
X10346253Y-16264484D02*
X10327206Y-16254960D01*
X10327206Y-16254960D02*
X10317682Y-16245436D01*
X10536729Y-16264484D02*
X10574825Y-16264484D01*
X10574825Y-16264484D02*
X10593872Y-16254960D01*
X10593872Y-16254960D02*
X10603396Y-16245436D01*
X10603396Y-16245436D02*
X10622444Y-16216865D01*
X10622444Y-16216865D02*
X10631967Y-16178769D01*
X10631967Y-16178769D02*
X10631967Y-16102579D01*
X10631967Y-16102579D02*
X10622444Y-16083531D01*
X10622444Y-16083531D02*
X10612920Y-16074008D01*
X10612920Y-16074008D02*
X10593872Y-16064484D01*
X10593872Y-16064484D02*
X10555777Y-16064484D01*
X10555777Y-16064484D02*
X10536729Y-16074008D01*
X10536729Y-16074008D02*
X10527206Y-16083531D01*
X10527206Y-16083531D02*
X10517682Y-16102579D01*
X10517682Y-16102579D02*
X10517682Y-16150198D01*
X10517682Y-16150198D02*
X10527206Y-16169246D01*
X10527206Y-16169246D02*
X10536729Y-16178769D01*
X10536729Y-16178769D02*
X10555777Y-16188293D01*
X10555777Y-16188293D02*
X10593872Y-16188293D01*
X10593872Y-16188293D02*
X10612920Y-16178769D01*
X10612920Y-16178769D02*
X10622444Y-16169246D01*
X10622444Y-16169246D02*
X10631967Y-16150198D01*
X10803396Y-16131150D02*
X10803396Y-16264484D01*
X10755777Y-16054960D02*
X10708158Y-16197817D01*
X10708158Y-16197817D02*
X10831967Y-16197817D01*
X10898634Y-16064484D02*
X10898634Y-16102579D01*
X10974825Y-16064484D02*
X10974825Y-16102579D01*
X11270063Y-16340674D02*
X11260539Y-16331150D01*
X11260539Y-16331150D02*
X11241491Y-16302579D01*
X11241491Y-16302579D02*
X11231967Y-16283531D01*
X11231967Y-16283531D02*
X11222444Y-16254960D01*
X11222444Y-16254960D02*
X11212920Y-16207341D01*
X11212920Y-16207341D02*
X11212920Y-16169246D01*
X11212920Y-16169246D02*
X11222444Y-16121627D01*
X11222444Y-16121627D02*
X11231967Y-16093055D01*
X11231967Y-16093055D02*
X11241491Y-16074008D01*
X11241491Y-16074008D02*
X11260539Y-16045436D01*
X11260539Y-16045436D02*
X11270063Y-16035912D01*
X11431967Y-16131150D02*
X11431967Y-16264484D01*
X11384348Y-16054960D02*
X11336729Y-16197817D01*
X11336729Y-16197817D02*
X11460539Y-16197817D01*
X11565301Y-16150198D02*
X11546253Y-16140674D01*
X11546253Y-16140674D02*
X11536729Y-16131150D01*
X11536729Y-16131150D02*
X11527206Y-16112103D01*
X11527206Y-16112103D02*
X11527206Y-16102579D01*
X11527206Y-16102579D02*
X11536729Y-16083531D01*
X11536729Y-16083531D02*
X11546253Y-16074008D01*
X11546253Y-16074008D02*
X11565301Y-16064484D01*
X11565301Y-16064484D02*
X11603396Y-16064484D01*
X11603396Y-16064484D02*
X11622444Y-16074008D01*
X11622444Y-16074008D02*
X11631967Y-16083531D01*
X11631967Y-16083531D02*
X11641491Y-16102579D01*
X11641491Y-16102579D02*
X11641491Y-16112103D01*
X11641491Y-16112103D02*
X11631967Y-16131150D01*
X11631967Y-16131150D02*
X11622444Y-16140674D01*
X11622444Y-16140674D02*
X11603396Y-16150198D01*
X11603396Y-16150198D02*
X11565301Y-16150198D01*
X11565301Y-16150198D02*
X11546253Y-16159722D01*
X11546253Y-16159722D02*
X11536729Y-16169246D01*
X11536729Y-16169246D02*
X11527206Y-16188293D01*
X11527206Y-16188293D02*
X11527206Y-16226388D01*
X11527206Y-16226388D02*
X11536729Y-16245436D01*
X11536729Y-16245436D02*
X11546253Y-16254960D01*
X11546253Y-16254960D02*
X11565301Y-16264484D01*
X11565301Y-16264484D02*
X11603396Y-16264484D01*
X11603396Y-16264484D02*
X11622444Y-16254960D01*
X11622444Y-16254960D02*
X11631967Y-16245436D01*
X11631967Y-16245436D02*
X11641491Y-16226388D01*
X11641491Y-16226388D02*
X11641491Y-16188293D01*
X11641491Y-16188293D02*
X11631967Y-16169246D01*
X11631967Y-16169246D02*
X11622444Y-16159722D01*
X11622444Y-16159722D02*
X11603396Y-16150198D01*
X11879587Y-16264484D02*
X11879587Y-16064484D01*
X11965301Y-16264484D02*
X11965301Y-16159722D01*
X11965301Y-16159722D02*
X11955777Y-16140674D01*
X11955777Y-16140674D02*
X11936729Y-16131150D01*
X11936729Y-16131150D02*
X11908158Y-16131150D01*
X11908158Y-16131150D02*
X11889110Y-16140674D01*
X11889110Y-16140674D02*
X11879587Y-16150198D01*
X12089110Y-16264484D02*
X12070063Y-16254960D01*
X12070063Y-16254960D02*
X12060539Y-16245436D01*
X12060539Y-16245436D02*
X12051015Y-16226388D01*
X12051015Y-16226388D02*
X12051015Y-16169246D01*
X12051015Y-16169246D02*
X12060539Y-16150198D01*
X12060539Y-16150198D02*
X12070063Y-16140674D01*
X12070063Y-16140674D02*
X12089110Y-16131150D01*
X12089110Y-16131150D02*
X12117682Y-16131150D01*
X12117682Y-16131150D02*
X12136729Y-16140674D01*
X12136729Y-16140674D02*
X12146253Y-16150198D01*
X12146253Y-16150198D02*
X12155777Y-16169246D01*
X12155777Y-16169246D02*
X12155777Y-16226388D01*
X12155777Y-16226388D02*
X12146253Y-16245436D01*
X12146253Y-16245436D02*
X12136729Y-16254960D01*
X12136729Y-16254960D02*
X12117682Y-16264484D01*
X12117682Y-16264484D02*
X12089110Y-16264484D01*
X12270063Y-16264484D02*
X12251015Y-16254960D01*
X12251015Y-16254960D02*
X12241491Y-16235912D01*
X12241491Y-16235912D02*
X12241491Y-16064484D01*
X12422444Y-16254960D02*
X12403396Y-16264484D01*
X12403396Y-16264484D02*
X12365301Y-16264484D01*
X12365301Y-16264484D02*
X12346253Y-16254960D01*
X12346253Y-16254960D02*
X12336729Y-16235912D01*
X12336729Y-16235912D02*
X12336729Y-16159722D01*
X12336729Y-16159722D02*
X12346253Y-16140674D01*
X12346253Y-16140674D02*
X12365301Y-16131150D01*
X12365301Y-16131150D02*
X12403396Y-16131150D01*
X12403396Y-16131150D02*
X12422444Y-16140674D01*
X12422444Y-16140674D02*
X12431968Y-16159722D01*
X12431968Y-16159722D02*
X12431968Y-16178769D01*
X12431968Y-16178769D02*
X12336729Y-16197817D01*
X12508158Y-16254960D02*
X12527206Y-16264484D01*
X12527206Y-16264484D02*
X12565301Y-16264484D01*
X12565301Y-16264484D02*
X12584349Y-16254960D01*
X12584349Y-16254960D02*
X12593872Y-16235912D01*
X12593872Y-16235912D02*
X12593872Y-16226388D01*
X12593872Y-16226388D02*
X12584349Y-16207341D01*
X12584349Y-16207341D02*
X12565301Y-16197817D01*
X12565301Y-16197817D02*
X12536729Y-16197817D01*
X12536729Y-16197817D02*
X12517682Y-16188293D01*
X12517682Y-16188293D02*
X12508158Y-16169246D01*
X12508158Y-16169246D02*
X12508158Y-16159722D01*
X12508158Y-16159722D02*
X12517682Y-16140674D01*
X12517682Y-16140674D02*
X12536729Y-16131150D01*
X12536729Y-16131150D02*
X12565301Y-16131150D01*
X12565301Y-16131150D02*
X12584349Y-16140674D01*
X12660539Y-16340674D02*
X12670063Y-16331150D01*
X12670063Y-16331150D02*
X12689110Y-16302579D01*
X12689110Y-16302579D02*
X12698634Y-16283531D01*
X12698634Y-16283531D02*
X12708158Y-16254960D01*
X12708158Y-16254960D02*
X12717682Y-16207341D01*
X12717682Y-16207341D02*
X12717682Y-16169246D01*
X12717682Y-16169246D02*
X12708158Y-16121627D01*
X12708158Y-16121627D02*
X12698634Y-16093055D01*
X12698634Y-16093055D02*
X12689110Y-16074008D01*
X12689110Y-16074008D02*
X12670063Y-16045436D01*
X12670063Y-16045436D02*
X12660539Y-16035912D01*
D14*
X7677573Y-16479073D02*
X7677573Y-16394927D01*
X7593427Y-16394927D01*
X7593427Y-16479073D01*
X7677573Y-16479073D01*
D11*
X8060539Y-16528484D02*
X7946253Y-16528484D01*
X8003396Y-16528484D02*
X8003396Y-16328484D01*
X8003396Y-16328484D02*
X7984348Y-16357055D01*
X7984348Y-16357055D02*
X7965300Y-16376103D01*
X7965300Y-16376103D02*
X7946253Y-16385627D01*
X8146253Y-16509436D02*
X8155777Y-16518960D01*
X8155777Y-16518960D02*
X8146253Y-16528484D01*
X8146253Y-16528484D02*
X8136729Y-16518960D01*
X8136729Y-16518960D02*
X8146253Y-16509436D01*
X8146253Y-16509436D02*
X8146253Y-16528484D01*
X8346253Y-16528484D02*
X8231967Y-16528484D01*
X8289110Y-16528484D02*
X8289110Y-16328484D01*
X8289110Y-16328484D02*
X8270062Y-16357055D01*
X8270062Y-16357055D02*
X8251015Y-16376103D01*
X8251015Y-16376103D02*
X8231967Y-16385627D01*
X8441491Y-16528484D02*
X8479586Y-16528484D01*
X8479586Y-16528484D02*
X8498634Y-16518960D01*
X8498634Y-16518960D02*
X8508158Y-16509436D01*
X8508158Y-16509436D02*
X8527205Y-16480865D01*
X8527205Y-16480865D02*
X8536729Y-16442769D01*
X8536729Y-16442769D02*
X8536729Y-16366579D01*
X8536729Y-16366579D02*
X8527205Y-16347531D01*
X8527205Y-16347531D02*
X8517682Y-16338008D01*
X8517682Y-16338008D02*
X8498634Y-16328484D01*
X8498634Y-16328484D02*
X8460539Y-16328484D01*
X8460539Y-16328484D02*
X8441491Y-16338008D01*
X8441491Y-16338008D02*
X8431967Y-16347531D01*
X8431967Y-16347531D02*
X8422443Y-16366579D01*
X8422443Y-16366579D02*
X8422443Y-16414198D01*
X8422443Y-16414198D02*
X8431967Y-16433246D01*
X8431967Y-16433246D02*
X8441491Y-16442769D01*
X8441491Y-16442769D02*
X8460539Y-16452293D01*
X8460539Y-16452293D02*
X8498634Y-16452293D01*
X8498634Y-16452293D02*
X8517682Y-16442769D01*
X8517682Y-16442769D02*
X8527205Y-16433246D01*
X8527205Y-16433246D02*
X8536729Y-16414198D01*
X8660539Y-16328484D02*
X8679586Y-16328484D01*
X8679586Y-16328484D02*
X8698634Y-16338008D01*
X8698634Y-16338008D02*
X8708158Y-16347531D01*
X8708158Y-16347531D02*
X8717682Y-16366579D01*
X8717682Y-16366579D02*
X8727205Y-16404674D01*
X8727205Y-16404674D02*
X8727205Y-16452293D01*
X8727205Y-16452293D02*
X8717682Y-16490388D01*
X8717682Y-16490388D02*
X8708158Y-16509436D01*
X8708158Y-16509436D02*
X8698634Y-16518960D01*
X8698634Y-16518960D02*
X8679586Y-16528484D01*
X8679586Y-16528484D02*
X8660539Y-16528484D01*
X8660539Y-16528484D02*
X8641491Y-16518960D01*
X8641491Y-16518960D02*
X8631967Y-16509436D01*
X8631967Y-16509436D02*
X8622443Y-16490388D01*
X8622443Y-16490388D02*
X8612920Y-16452293D01*
X8612920Y-16452293D02*
X8612920Y-16404674D01*
X8612920Y-16404674D02*
X8622443Y-16366579D01*
X8622443Y-16366579D02*
X8631967Y-16347531D01*
X8631967Y-16347531D02*
X8641491Y-16338008D01*
X8641491Y-16338008D02*
X8660539Y-16328484D01*
X8812920Y-16528484D02*
X8812920Y-16395150D01*
X8812920Y-16414198D02*
X8822443Y-16404674D01*
X8822443Y-16404674D02*
X8841491Y-16395150D01*
X8841491Y-16395150D02*
X8870063Y-16395150D01*
X8870063Y-16395150D02*
X8889110Y-16404674D01*
X8889110Y-16404674D02*
X8898634Y-16423722D01*
X8898634Y-16423722D02*
X8898634Y-16528484D01*
X8898634Y-16423722D02*
X8908158Y-16404674D01*
X8908158Y-16404674D02*
X8927205Y-16395150D01*
X8927205Y-16395150D02*
X8955777Y-16395150D01*
X8955777Y-16395150D02*
X8974824Y-16404674D01*
X8974824Y-16404674D02*
X8984348Y-16423722D01*
X8984348Y-16423722D02*
X8984348Y-16528484D01*
X9079586Y-16528484D02*
X9079586Y-16395150D01*
X9079586Y-16414198D02*
X9089110Y-16404674D01*
X9089110Y-16404674D02*
X9108158Y-16395150D01*
X9108158Y-16395150D02*
X9136729Y-16395150D01*
X9136729Y-16395150D02*
X9155777Y-16404674D01*
X9155777Y-16404674D02*
X9165301Y-16423722D01*
X9165301Y-16423722D02*
X9165301Y-16528484D01*
X9165301Y-16423722D02*
X9174824Y-16404674D01*
X9174824Y-16404674D02*
X9193872Y-16395150D01*
X9193872Y-16395150D02*
X9222443Y-16395150D01*
X9222443Y-16395150D02*
X9241491Y-16404674D01*
X9241491Y-16404674D02*
X9251015Y-16423722D01*
X9251015Y-16423722D02*
X9251015Y-16528484D01*
X9641491Y-16318960D02*
X9470063Y-16576103D01*
X9898634Y-16328484D02*
X9917682Y-16328484D01*
X9917682Y-16328484D02*
X9936729Y-16338008D01*
X9936729Y-16338008D02*
X9946253Y-16347531D01*
X9946253Y-16347531D02*
X9955777Y-16366579D01*
X9955777Y-16366579D02*
X9965301Y-16404674D01*
X9965301Y-16404674D02*
X9965301Y-16452293D01*
X9965301Y-16452293D02*
X9955777Y-16490388D01*
X9955777Y-16490388D02*
X9946253Y-16509436D01*
X9946253Y-16509436D02*
X9936729Y-16518960D01*
X9936729Y-16518960D02*
X9917682Y-16528484D01*
X9917682Y-16528484D02*
X9898634Y-16528484D01*
X9898634Y-16528484D02*
X9879586Y-16518960D01*
X9879586Y-16518960D02*
X9870063Y-16509436D01*
X9870063Y-16509436D02*
X9860539Y-16490388D01*
X9860539Y-16490388D02*
X9851015Y-16452293D01*
X9851015Y-16452293D02*
X9851015Y-16404674D01*
X9851015Y-16404674D02*
X9860539Y-16366579D01*
X9860539Y-16366579D02*
X9870063Y-16347531D01*
X9870063Y-16347531D02*
X9879586Y-16338008D01*
X9879586Y-16338008D02*
X9898634Y-16328484D01*
X10051015Y-16509436D02*
X10060539Y-16518960D01*
X10060539Y-16518960D02*
X10051015Y-16528484D01*
X10051015Y-16528484D02*
X10041491Y-16518960D01*
X10041491Y-16518960D02*
X10051015Y-16509436D01*
X10051015Y-16509436D02*
X10051015Y-16528484D01*
X10184348Y-16328484D02*
X10203396Y-16328484D01*
X10203396Y-16328484D02*
X10222444Y-16338008D01*
X10222444Y-16338008D02*
X10231967Y-16347531D01*
X10231967Y-16347531D02*
X10241491Y-16366579D01*
X10241491Y-16366579D02*
X10251015Y-16404674D01*
X10251015Y-16404674D02*
X10251015Y-16452293D01*
X10251015Y-16452293D02*
X10241491Y-16490388D01*
X10241491Y-16490388D02*
X10231967Y-16509436D01*
X10231967Y-16509436D02*
X10222444Y-16518960D01*
X10222444Y-16518960D02*
X10203396Y-16528484D01*
X10203396Y-16528484D02*
X10184348Y-16528484D01*
X10184348Y-16528484D02*
X10165301Y-16518960D01*
X10165301Y-16518960D02*
X10155777Y-16509436D01*
X10155777Y-16509436D02*
X10146253Y-16490388D01*
X10146253Y-16490388D02*
X10136729Y-16452293D01*
X10136729Y-16452293D02*
X10136729Y-16404674D01*
X10136729Y-16404674D02*
X10146253Y-16366579D01*
X10146253Y-16366579D02*
X10155777Y-16347531D01*
X10155777Y-16347531D02*
X10165301Y-16338008D01*
X10165301Y-16338008D02*
X10184348Y-16328484D01*
X10422444Y-16395150D02*
X10422444Y-16528484D01*
X10374825Y-16318960D02*
X10327206Y-16461817D01*
X10327206Y-16461817D02*
X10451015Y-16461817D01*
X10612920Y-16328484D02*
X10574825Y-16328484D01*
X10574825Y-16328484D02*
X10555777Y-16338008D01*
X10555777Y-16338008D02*
X10546253Y-16347531D01*
X10546253Y-16347531D02*
X10527206Y-16376103D01*
X10527206Y-16376103D02*
X10517682Y-16414198D01*
X10517682Y-16414198D02*
X10517682Y-16490388D01*
X10517682Y-16490388D02*
X10527206Y-16509436D01*
X10527206Y-16509436D02*
X10536729Y-16518960D01*
X10536729Y-16518960D02*
X10555777Y-16528484D01*
X10555777Y-16528484D02*
X10593872Y-16528484D01*
X10593872Y-16528484D02*
X10612920Y-16518960D01*
X10612920Y-16518960D02*
X10622444Y-16509436D01*
X10622444Y-16509436D02*
X10631967Y-16490388D01*
X10631967Y-16490388D02*
X10631967Y-16442769D01*
X10631967Y-16442769D02*
X10622444Y-16423722D01*
X10622444Y-16423722D02*
X10612920Y-16414198D01*
X10612920Y-16414198D02*
X10593872Y-16404674D01*
X10593872Y-16404674D02*
X10555777Y-16404674D01*
X10555777Y-16404674D02*
X10536729Y-16414198D01*
X10536729Y-16414198D02*
X10527206Y-16423722D01*
X10527206Y-16423722D02*
X10517682Y-16442769D01*
X10727206Y-16528484D02*
X10765301Y-16528484D01*
X10765301Y-16528484D02*
X10784348Y-16518960D01*
X10784348Y-16518960D02*
X10793872Y-16509436D01*
X10793872Y-16509436D02*
X10812920Y-16480865D01*
X10812920Y-16480865D02*
X10822444Y-16442769D01*
X10822444Y-16442769D02*
X10822444Y-16366579D01*
X10822444Y-16366579D02*
X10812920Y-16347531D01*
X10812920Y-16347531D02*
X10803396Y-16338008D01*
X10803396Y-16338008D02*
X10784348Y-16328484D01*
X10784348Y-16328484D02*
X10746253Y-16328484D01*
X10746253Y-16328484D02*
X10727206Y-16338008D01*
X10727206Y-16338008D02*
X10717682Y-16347531D01*
X10717682Y-16347531D02*
X10708158Y-16366579D01*
X10708158Y-16366579D02*
X10708158Y-16414198D01*
X10708158Y-16414198D02*
X10717682Y-16433246D01*
X10717682Y-16433246D02*
X10727206Y-16442769D01*
X10727206Y-16442769D02*
X10746253Y-16452293D01*
X10746253Y-16452293D02*
X10784348Y-16452293D01*
X10784348Y-16452293D02*
X10803396Y-16442769D01*
X10803396Y-16442769D02*
X10812920Y-16433246D01*
X10812920Y-16433246D02*
X10822444Y-16414198D01*
X10898634Y-16328484D02*
X10898634Y-16366579D01*
X10974825Y-16328484D02*
X10974825Y-16366579D01*
X11270063Y-16604674D02*
X11260539Y-16595150D01*
X11260539Y-16595150D02*
X11241491Y-16566579D01*
X11241491Y-16566579D02*
X11231967Y-16547531D01*
X11231967Y-16547531D02*
X11222444Y-16518960D01*
X11222444Y-16518960D02*
X11212920Y-16471341D01*
X11212920Y-16471341D02*
X11212920Y-16433246D01*
X11212920Y-16433246D02*
X11222444Y-16385627D01*
X11222444Y-16385627D02*
X11231967Y-16357055D01*
X11231967Y-16357055D02*
X11241491Y-16338008D01*
X11241491Y-16338008D02*
X11260539Y-16309436D01*
X11260539Y-16309436D02*
X11270063Y-16299912D01*
X11336729Y-16347531D02*
X11346253Y-16338008D01*
X11346253Y-16338008D02*
X11365301Y-16328484D01*
X11365301Y-16328484D02*
X11412920Y-16328484D01*
X11412920Y-16328484D02*
X11431967Y-16338008D01*
X11431967Y-16338008D02*
X11441491Y-16347531D01*
X11441491Y-16347531D02*
X11451015Y-16366579D01*
X11451015Y-16366579D02*
X11451015Y-16385627D01*
X11451015Y-16385627D02*
X11441491Y-16414198D01*
X11441491Y-16414198D02*
X11327206Y-16528484D01*
X11327206Y-16528484D02*
X11451015Y-16528484D01*
X11622444Y-16395150D02*
X11622444Y-16528484D01*
X11574825Y-16318960D02*
X11527206Y-16461817D01*
X11527206Y-16461817D02*
X11651015Y-16461817D01*
X11879587Y-16528484D02*
X11879587Y-16328484D01*
X11965301Y-16528484D02*
X11965301Y-16423722D01*
X11965301Y-16423722D02*
X11955777Y-16404674D01*
X11955777Y-16404674D02*
X11936729Y-16395150D01*
X11936729Y-16395150D02*
X11908158Y-16395150D01*
X11908158Y-16395150D02*
X11889110Y-16404674D01*
X11889110Y-16404674D02*
X11879587Y-16414198D01*
X12089110Y-16528484D02*
X12070063Y-16518960D01*
X12070063Y-16518960D02*
X12060539Y-16509436D01*
X12060539Y-16509436D02*
X12051015Y-16490388D01*
X12051015Y-16490388D02*
X12051015Y-16433246D01*
X12051015Y-16433246D02*
X12060539Y-16414198D01*
X12060539Y-16414198D02*
X12070063Y-16404674D01*
X12070063Y-16404674D02*
X12089110Y-16395150D01*
X12089110Y-16395150D02*
X12117682Y-16395150D01*
X12117682Y-16395150D02*
X12136729Y-16404674D01*
X12136729Y-16404674D02*
X12146253Y-16414198D01*
X12146253Y-16414198D02*
X12155777Y-16433246D01*
X12155777Y-16433246D02*
X12155777Y-16490388D01*
X12155777Y-16490388D02*
X12146253Y-16509436D01*
X12146253Y-16509436D02*
X12136729Y-16518960D01*
X12136729Y-16518960D02*
X12117682Y-16528484D01*
X12117682Y-16528484D02*
X12089110Y-16528484D01*
X12270063Y-16528484D02*
X12251015Y-16518960D01*
X12251015Y-16518960D02*
X12241491Y-16499912D01*
X12241491Y-16499912D02*
X12241491Y-16328484D01*
X12422444Y-16518960D02*
X12403396Y-16528484D01*
X12403396Y-16528484D02*
X12365301Y-16528484D01*
X12365301Y-16528484D02*
X12346253Y-16518960D01*
X12346253Y-16518960D02*
X12336729Y-16499912D01*
X12336729Y-16499912D02*
X12336729Y-16423722D01*
X12336729Y-16423722D02*
X12346253Y-16404674D01*
X12346253Y-16404674D02*
X12365301Y-16395150D01*
X12365301Y-16395150D02*
X12403396Y-16395150D01*
X12403396Y-16395150D02*
X12422444Y-16404674D01*
X12422444Y-16404674D02*
X12431968Y-16423722D01*
X12431968Y-16423722D02*
X12431968Y-16442769D01*
X12431968Y-16442769D02*
X12336729Y-16461817D01*
X12508158Y-16518960D02*
X12527206Y-16528484D01*
X12527206Y-16528484D02*
X12565301Y-16528484D01*
X12565301Y-16528484D02*
X12584349Y-16518960D01*
X12584349Y-16518960D02*
X12593872Y-16499912D01*
X12593872Y-16499912D02*
X12593872Y-16490388D01*
X12593872Y-16490388D02*
X12584349Y-16471341D01*
X12584349Y-16471341D02*
X12565301Y-16461817D01*
X12565301Y-16461817D02*
X12536729Y-16461817D01*
X12536729Y-16461817D02*
X12517682Y-16452293D01*
X12517682Y-16452293D02*
X12508158Y-16433246D01*
X12508158Y-16433246D02*
X12508158Y-16423722D01*
X12508158Y-16423722D02*
X12517682Y-16404674D01*
X12517682Y-16404674D02*
X12536729Y-16395150D01*
X12536729Y-16395150D02*
X12565301Y-16395150D01*
X12565301Y-16395150D02*
X12584349Y-16404674D01*
X12660539Y-16604674D02*
X12670063Y-16595150D01*
X12670063Y-16595150D02*
X12689110Y-16566579D01*
X12689110Y-16566579D02*
X12698634Y-16547531D01*
X12698634Y-16547531D02*
X12708158Y-16518960D01*
X12708158Y-16518960D02*
X12717682Y-16471341D01*
X12717682Y-16471341D02*
X12717682Y-16433246D01*
X12717682Y-16433246D02*
X12708158Y-16385627D01*
X12708158Y-16385627D02*
X12698634Y-16357055D01*
X12698634Y-16357055D02*
X12689110Y-16338008D01*
X12689110Y-16338008D02*
X12670063Y-16309436D01*
X12670063Y-16309436D02*
X12660539Y-16299912D01*
M02*
