%TF.GenerationSoftware,KiCad,Pcbnew,7.0.7-7.0.7~ubuntu22.04.1*%
%TF.CreationDate,2023-09-26T14:07:37+13:00*%
%TF.ProjectId,VCA,5643412e-6b69-4636-9164-5f7063625858,rev?*%
%TF.SameCoordinates,Original*%
%TF.FileFunction,Profile,NP*%
%FSLAX46Y46*%
G04 Gerber Fmt 4.6, Leading zero omitted, Abs format (unit mm)*
G04 Created by KiCad (PCBNEW 7.0.7-7.0.7~ubuntu22.04.1) date 2023-09-26 14:07:37*
%MOMM*%
%LPD*%
G01*
G04 APERTURE LIST*
%TA.AperFunction,Profile*%
%ADD10C,0.100000*%
%TD*%
G04 APERTURE END LIST*
D10*
X175000001Y-98000000D02*
X173000000Y-98000000D01*
X125000000Y-96000000D02*
X125000000Y-91000000D01*
X129000000Y-117000000D02*
G75*
G03*
X125000000Y-117000000I-2000000J0D01*
G01*
X129000000Y-138000000D02*
X129000000Y-117000000D01*
X129000000Y-96000000D02*
X129000000Y-91000000D01*
X81000000Y-102000000D02*
G75*
G03*
X81000000Y-98000000I0J2000000D01*
G01*
X125000000Y-138000000D02*
G75*
G03*
X129000000Y-138000000I2000000J0D01*
G01*
X174999999Y-149999999D02*
G75*
G03*
X176999999Y-148000000I1J1999999D01*
G01*
X79000001Y-149999999D02*
X123000001Y-149999999D01*
X130999999Y-150000000D02*
X174999999Y-150000000D01*
X76999999Y-148000000D02*
X76999999Y-104000000D01*
X123000000Y-98000000D02*
X118000000Y-98000000D01*
X137300000Y-147600000D02*
G75*
G03*
X137300000Y-147600000I-1500000J0D01*
G01*
X79000000Y-50000000D02*
G75*
G03*
X77000000Y-52000000I0J-2000000D01*
G01*
X129000000Y-146000000D02*
G75*
G03*
X125000000Y-146000000I-2000000J0D01*
G01*
X89000000Y-98000000D02*
G75*
G03*
X89000000Y-102000000I0J-2000000D01*
G01*
X110000000Y-102000000D02*
G75*
G03*
X110000000Y-98000000I0J2000000D01*
G01*
X175000000Y-102000000D02*
X173000000Y-102000000D01*
X131000000Y-102000000D02*
X136000000Y-102000000D01*
X125000000Y-104000000D02*
X125000000Y-109000000D01*
X131000000Y-50000000D02*
X175000000Y-50000000D01*
X137300000Y-113000000D02*
G75*
G03*
X137300000Y-113000000I-1500000J0D01*
G01*
X89000000Y-102000000D02*
X110000000Y-102000000D01*
X125000000Y-83000000D02*
G75*
G03*
X129000000Y-83000000I2000000J0D01*
G01*
X125000000Y-51999999D02*
X125000000Y-54000000D01*
X129000000Y-83000000D02*
X129000000Y-62000000D01*
X119299999Y-147600000D02*
G75*
G03*
X119299999Y-147600000I-1500000J0D01*
G01*
X123000000Y-98000000D02*
G75*
G03*
X125000000Y-96000000I0J2000000D01*
G01*
X144000000Y-102000000D02*
X165000000Y-102000000D01*
X137300000Y-61000000D02*
G75*
G03*
X137300000Y-61000000I-1500000J0D01*
G01*
X165000000Y-102000000D02*
G75*
G03*
X165000000Y-98000000I0J2000000D01*
G01*
X129000000Y-91000000D02*
G75*
G03*
X125000000Y-91000000I-2000000J0D01*
G01*
X171300000Y-61000000D02*
G75*
G03*
X171300000Y-61000000I-1500000J0D01*
G01*
X79000000Y-50000000D02*
X123000000Y-50000000D01*
X125000000Y-109000000D02*
G75*
G03*
X129000000Y-109000000I2000000J0D01*
G01*
X125000000Y-51999999D02*
G75*
G03*
X123000000Y-50000000I-2000000J-1D01*
G01*
X119300000Y-95600000D02*
G75*
G03*
X119300000Y-95600000I-1500000J0D01*
G01*
X129000000Y-148000001D02*
X129000000Y-146000000D01*
X137300000Y-95600000D02*
G75*
G03*
X137300000Y-95600000I-1500000J0D01*
G01*
X125000000Y-54000000D02*
G75*
G03*
X129000000Y-54000000I2000000J0D01*
G01*
X118000000Y-98000000D02*
G75*
G03*
X118000000Y-102000000I0J-2000000D01*
G01*
X129000000Y-52000000D02*
X129000000Y-54000000D01*
X123000000Y-102000000D02*
X118000000Y-102000000D01*
X175000001Y-98000000D02*
G75*
G03*
X177000000Y-96000000I-1J2000000D01*
G01*
X125000000Y-104000000D02*
G75*
G03*
X122999999Y-102000000I-2000000J0D01*
G01*
X165000000Y-98000000D02*
X144000000Y-98000000D01*
X136000000Y-102000000D02*
G75*
G03*
X136000000Y-98000000I0J2000000D01*
G01*
X119299999Y-113000000D02*
G75*
G03*
X119299999Y-113000000I-1500000J0D01*
G01*
X177000000Y-52000000D02*
G75*
G03*
X175000000Y-50000000I-2000000J0D01*
G01*
X131000000Y-98000000D02*
X136000000Y-98000000D01*
X130999999Y-101999999D02*
G75*
G03*
X128999999Y-104000000I1J-2000001D01*
G01*
X125000000Y-148000000D02*
X125000000Y-146000000D01*
X78999999Y-101999999D02*
G75*
G03*
X76999999Y-104000000I1J-2000001D01*
G01*
X129000000Y-104000000D02*
X129000000Y-109000000D01*
X125000000Y-62000000D02*
X125000000Y-83000000D01*
X77000000Y-96000000D02*
X77000000Y-52000000D01*
X122999999Y-149999999D02*
G75*
G03*
X124999999Y-147999999I1J1999999D01*
G01*
X131000000Y-50000000D02*
G75*
G03*
X129000000Y-52000000I0J-2000000D01*
G01*
X176999999Y-104000000D02*
X176999999Y-148000000D01*
X129000000Y-62000000D02*
G75*
G03*
X125000000Y-62000000I-2000000J0D01*
G01*
X129000000Y-96000000D02*
G75*
G03*
X131000000Y-98000000I2000000J0D01*
G01*
X171300000Y-113000000D02*
G75*
G03*
X171300000Y-113000000I-1500000J0D01*
G01*
X129000000Y-148000000D02*
G75*
G03*
X130999999Y-150000000I2000000J0D01*
G01*
X110000000Y-98000000D02*
X89000000Y-98000000D01*
X85300000Y-95600000D02*
G75*
G03*
X85300000Y-95600000I-1500000J0D01*
G01*
X177000000Y-52000000D02*
X177000000Y-96000000D01*
X171300000Y-95600000D02*
G75*
G03*
X171300000Y-95600000I-1500000J0D01*
G01*
X119300000Y-61000000D02*
G75*
G03*
X119300000Y-61000000I-1500000J0D01*
G01*
X173000000Y-98000000D02*
G75*
G03*
X173000000Y-102000000I0J-2000000D01*
G01*
X125000000Y-117000000D02*
X125000000Y-138000000D01*
X171300000Y-147600000D02*
G75*
G03*
X171300000Y-147600000I-1500000J0D01*
G01*
X85299999Y-113000000D02*
G75*
G03*
X85299999Y-113000000I-1500000J0D01*
G01*
X79000000Y-98000000D02*
X81000000Y-98000000D01*
X85299999Y-147600000D02*
G75*
G03*
X85299999Y-147600000I-1500000J0D01*
G01*
X77000000Y-96000000D02*
G75*
G03*
X79000000Y-98000000I2000000J0D01*
G01*
X78999999Y-102000000D02*
X81000000Y-102000000D01*
X77000001Y-147999999D02*
G75*
G03*
X79000001Y-149999999I1999999J-1D01*
G01*
X177000000Y-104000000D02*
G75*
G03*
X174999999Y-102000000I-2000000J0D01*
G01*
X85300000Y-61000000D02*
G75*
G03*
X85300000Y-61000000I-1500000J0D01*
G01*
X144000000Y-98000000D02*
G75*
G03*
X144000000Y-102000000I0J-2000000D01*
G01*
M02*
