%TF.GenerationSoftware,KiCad,Pcbnew,7.0.6*%
%TF.CreationDate,2023-09-24T22:27:52+13:00*%
%TF.ProjectId,VCA,5643412e-6b69-4636-9164-5f7063625858,rev?*%
%TF.SameCoordinates,Original*%
%TF.FileFunction,Legend,Bot*%
%TF.FilePolarity,Positive*%
%FSLAX46Y46*%
G04 Gerber Fmt 4.6, Leading zero omitted, Abs format (unit mm)*
G04 Created by KiCad (PCBNEW 7.0.6) date 2023-09-24 22:27:52*
%MOMM*%
%LPD*%
G01*
G04 APERTURE LIST*
%ADD10C,0.150000*%
G04 APERTURE END LIST*
D10*
X111786779Y-104224942D02*
X111786779Y-107224942D01*
X112215350Y-104224942D02*
X112215350Y-105796371D01*
X112215350Y-105796371D02*
X112167731Y-106082085D01*
X112167731Y-106082085D02*
X112072493Y-106224942D01*
X112072493Y-106224942D02*
X111929636Y-106224942D01*
X111929636Y-106224942D02*
X111834398Y-106082085D01*
X111834398Y-106082085D02*
X111786779Y-105939228D01*
X112548684Y-106224942D02*
X112929636Y-106224942D01*
X112691541Y-107224942D02*
X112691541Y-104653514D01*
X112691541Y-104653514D02*
X112739160Y-104367800D01*
X112739160Y-104367800D02*
X112834398Y-104224942D01*
X112834398Y-104224942D02*
X112929636Y-104224942D01*
X113120113Y-106224942D02*
X113501065Y-106224942D01*
X113262970Y-107224942D02*
X113262970Y-104653514D01*
X113262970Y-104653514D02*
X113310589Y-104367800D01*
X113310589Y-104367800D02*
X113405827Y-104224942D01*
X113405827Y-104224942D02*
X113501065Y-104224942D01*
X113834399Y-106224942D02*
X113834399Y-103224942D01*
X113834399Y-106082085D02*
X113929637Y-106224942D01*
X113929637Y-106224942D02*
X114120113Y-106224942D01*
X114120113Y-106224942D02*
X114215351Y-106082085D01*
X114215351Y-106082085D02*
X114262970Y-105939228D01*
X114262970Y-105939228D02*
X114310589Y-105653514D01*
X114310589Y-105653514D02*
X114310589Y-104796371D01*
X114310589Y-104796371D02*
X114262970Y-104510657D01*
X114262970Y-104510657D02*
X114215351Y-104367800D01*
X114215351Y-104367800D02*
X114120113Y-104224942D01*
X114120113Y-104224942D02*
X113929637Y-104224942D01*
X113929637Y-104224942D02*
X113834399Y-104367800D01*
X114691542Y-104367800D02*
X114786780Y-104224942D01*
X114786780Y-104224942D02*
X114977256Y-104224942D01*
X114977256Y-104224942D02*
X115072494Y-104367800D01*
X115072494Y-104367800D02*
X115120113Y-104653514D01*
X115120113Y-104653514D02*
X115120113Y-104796371D01*
X115120113Y-104796371D02*
X115072494Y-105082085D01*
X115072494Y-105082085D02*
X114977256Y-105224942D01*
X114977256Y-105224942D02*
X114834399Y-105224942D01*
X114834399Y-105224942D02*
X114739161Y-105367800D01*
X114739161Y-105367800D02*
X114691542Y-105653514D01*
X114691542Y-105653514D02*
X114691542Y-105796371D01*
X114691542Y-105796371D02*
X114739161Y-106082085D01*
X114739161Y-106082085D02*
X114834399Y-106224942D01*
X114834399Y-106224942D02*
X114977256Y-106224942D01*
X114977256Y-106224942D02*
X115072494Y-106082085D01*
X115548685Y-104510657D02*
X115596304Y-104367800D01*
X115596304Y-104367800D02*
X115548685Y-104224942D01*
X115548685Y-104224942D02*
X115501066Y-104367800D01*
X115501066Y-104367800D02*
X115548685Y-104510657D01*
X115548685Y-104510657D02*
X115548685Y-104224942D01*
X115548685Y-106082085D02*
X115596304Y-105939228D01*
X115596304Y-105939228D02*
X115548685Y-105796371D01*
X115548685Y-105796371D02*
X115501066Y-105939228D01*
X115501066Y-105939228D02*
X115548685Y-106082085D01*
X115548685Y-106082085D02*
X115548685Y-105796371D01*
X116739160Y-107367800D02*
X115882018Y-103510657D01*
X117786779Y-107367800D02*
X116929637Y-103510657D01*
X118548684Y-106224942D02*
X118548684Y-103796371D01*
X118548684Y-103796371D02*
X118501065Y-103510657D01*
X118501065Y-103510657D02*
X118453446Y-103367800D01*
X118453446Y-103367800D02*
X118358208Y-103224942D01*
X118358208Y-103224942D02*
X118215351Y-103224942D01*
X118215351Y-103224942D02*
X118120113Y-103367800D01*
X118548684Y-104367800D02*
X118453446Y-104224942D01*
X118453446Y-104224942D02*
X118262970Y-104224942D01*
X118262970Y-104224942D02*
X118167732Y-104367800D01*
X118167732Y-104367800D02*
X118120113Y-104510657D01*
X118120113Y-104510657D02*
X118072494Y-104796371D01*
X118072494Y-104796371D02*
X118072494Y-105653514D01*
X118072494Y-105653514D02*
X118120113Y-105939228D01*
X118120113Y-105939228D02*
X118167732Y-106082085D01*
X118167732Y-106082085D02*
X118262970Y-106224942D01*
X118262970Y-106224942D02*
X118453446Y-106224942D01*
X118453446Y-106224942D02*
X118548684Y-106082085D01*
X119024875Y-104224942D02*
X119024875Y-106224942D01*
X119024875Y-107224942D02*
X118977256Y-107082085D01*
X118977256Y-107082085D02*
X119024875Y-106939228D01*
X119024875Y-106939228D02*
X119072494Y-107082085D01*
X119072494Y-107082085D02*
X119024875Y-107224942D01*
X119024875Y-107224942D02*
X119024875Y-106939228D01*
X119358208Y-106224942D02*
X119739160Y-106224942D01*
X119501065Y-107224942D02*
X119501065Y-104653514D01*
X119501065Y-104653514D02*
X119548684Y-104367800D01*
X119548684Y-104367800D02*
X119643922Y-104224942D01*
X119643922Y-104224942D02*
X119739160Y-104224942D01*
X120072494Y-104224942D02*
X120072494Y-107224942D01*
X120501065Y-104224942D02*
X120501065Y-105796371D01*
X120501065Y-105796371D02*
X120453446Y-106082085D01*
X120453446Y-106082085D02*
X120358208Y-106224942D01*
X120358208Y-106224942D02*
X120215351Y-106224942D01*
X120215351Y-106224942D02*
X120120113Y-106082085D01*
X120120113Y-106082085D02*
X120072494Y-105939228D01*
X121405827Y-106224942D02*
X121405827Y-104224942D01*
X120977256Y-106224942D02*
X120977256Y-104653514D01*
X120977256Y-104653514D02*
X121024875Y-104367800D01*
X121024875Y-104367800D02*
X121120113Y-104224942D01*
X121120113Y-104224942D02*
X121262970Y-104224942D01*
X121262970Y-104224942D02*
X121358208Y-104367800D01*
X121358208Y-104367800D02*
X121405827Y-104510657D01*
X121882018Y-104224942D02*
X121882018Y-107224942D01*
X121882018Y-106082085D02*
X121977256Y-106224942D01*
X121977256Y-106224942D02*
X122167732Y-106224942D01*
X122167732Y-106224942D02*
X122262970Y-106082085D01*
X122262970Y-106082085D02*
X122310589Y-105939228D01*
X122310589Y-105939228D02*
X122358208Y-105653514D01*
X122358208Y-105653514D02*
X122358208Y-104796371D01*
X122358208Y-104796371D02*
X122310589Y-104510657D01*
X122310589Y-104510657D02*
X122262970Y-104367800D01*
X122262970Y-104367800D02*
X122167732Y-104224942D01*
X122167732Y-104224942D02*
X121977256Y-104224942D01*
X121977256Y-104224942D02*
X121882018Y-104367800D01*
X122786780Y-104510657D02*
X122834399Y-104367800D01*
X122834399Y-104367800D02*
X122786780Y-104224942D01*
X122786780Y-104224942D02*
X122739161Y-104367800D01*
X122739161Y-104367800D02*
X122786780Y-104510657D01*
X122786780Y-104510657D02*
X122786780Y-104224942D01*
X123691541Y-104367800D02*
X123596303Y-104224942D01*
X123596303Y-104224942D02*
X123405827Y-104224942D01*
X123405827Y-104224942D02*
X123310589Y-104367800D01*
X123310589Y-104367800D02*
X123262970Y-104510657D01*
X123262970Y-104510657D02*
X123215351Y-104796371D01*
X123215351Y-104796371D02*
X123215351Y-105653514D01*
X123215351Y-105653514D02*
X123262970Y-105939228D01*
X123262970Y-105939228D02*
X123310589Y-106082085D01*
X123310589Y-106082085D02*
X123405827Y-106224942D01*
X123405827Y-106224942D02*
X123596303Y-106224942D01*
X123596303Y-106224942D02*
X123691541Y-106082085D01*
X124262970Y-104224942D02*
X124167732Y-104367800D01*
X124167732Y-104367800D02*
X124120113Y-104510657D01*
X124120113Y-104510657D02*
X124072494Y-104796371D01*
X124072494Y-104796371D02*
X124072494Y-105653514D01*
X124072494Y-105653514D02*
X124120113Y-105939228D01*
X124120113Y-105939228D02*
X124167732Y-106082085D01*
X124167732Y-106082085D02*
X124262970Y-106224942D01*
X124262970Y-106224942D02*
X124405827Y-106224942D01*
X124405827Y-106224942D02*
X124501065Y-106082085D01*
X124501065Y-106082085D02*
X124548684Y-105939228D01*
X124548684Y-105939228D02*
X124596303Y-105653514D01*
X124596303Y-105653514D02*
X124596303Y-104796371D01*
X124596303Y-104796371D02*
X124548684Y-104510657D01*
X124548684Y-104510657D02*
X124501065Y-104367800D01*
X124501065Y-104367800D02*
X124405827Y-104224942D01*
X124405827Y-104224942D02*
X124262970Y-104224942D01*
X125024875Y-104224942D02*
X125024875Y-106224942D01*
X125024875Y-105939228D02*
X125072494Y-106082085D01*
X125072494Y-106082085D02*
X125167732Y-106224942D01*
X125167732Y-106224942D02*
X125310589Y-106224942D01*
X125310589Y-106224942D02*
X125405827Y-106082085D01*
X125405827Y-106082085D02*
X125453446Y-105796371D01*
X125453446Y-105796371D02*
X125453446Y-104224942D01*
X125453446Y-105796371D02*
X125501065Y-106082085D01*
X125501065Y-106082085D02*
X125596303Y-106224942D01*
X125596303Y-106224942D02*
X125739160Y-106224942D01*
X125739160Y-106224942D02*
X125834399Y-106082085D01*
X125834399Y-106082085D02*
X125882018Y-105796371D01*
X125882018Y-105796371D02*
X125882018Y-104224942D01*
X127072493Y-107367800D02*
X126215351Y-103510657D01*
X127358208Y-104367800D02*
X127453446Y-104224942D01*
X127453446Y-104224942D02*
X127643922Y-104224942D01*
X127643922Y-104224942D02*
X127739160Y-104367800D01*
X127739160Y-104367800D02*
X127786779Y-104653514D01*
X127786779Y-104653514D02*
X127786779Y-104796371D01*
X127786779Y-104796371D02*
X127739160Y-105082085D01*
X127739160Y-105082085D02*
X127643922Y-105224942D01*
X127643922Y-105224942D02*
X127501065Y-105224942D01*
X127501065Y-105224942D02*
X127405827Y-105367800D01*
X127405827Y-105367800D02*
X127358208Y-105653514D01*
X127358208Y-105653514D02*
X127358208Y-105796371D01*
X127358208Y-105796371D02*
X127405827Y-106082085D01*
X127405827Y-106082085D02*
X127501065Y-106224942D01*
X127501065Y-106224942D02*
X127643922Y-106224942D01*
X127643922Y-106224942D02*
X127739160Y-106082085D01*
X128215351Y-104224942D02*
X128215351Y-106224942D01*
X128215351Y-107224942D02*
X128167732Y-107082085D01*
X128167732Y-107082085D02*
X128215351Y-106939228D01*
X128215351Y-106939228D02*
X128262970Y-107082085D01*
X128262970Y-107082085D02*
X128215351Y-107224942D01*
X128215351Y-107224942D02*
X128215351Y-106939228D01*
X128691541Y-104224942D02*
X128691541Y-106224942D01*
X128691541Y-105653514D02*
X128739160Y-105939228D01*
X128739160Y-105939228D02*
X128786779Y-106082085D01*
X128786779Y-106082085D02*
X128882017Y-106224942D01*
X128882017Y-106224942D02*
X128977255Y-106224942D01*
X129453446Y-104224942D02*
X129358208Y-104367800D01*
X129358208Y-104367800D02*
X129310589Y-104653514D01*
X129310589Y-104653514D02*
X129310589Y-107224942D01*
X129834399Y-104224942D02*
X129834399Y-106224942D01*
X129834399Y-107224942D02*
X129786780Y-107082085D01*
X129786780Y-107082085D02*
X129834399Y-106939228D01*
X129834399Y-106939228D02*
X129882018Y-107082085D01*
X129882018Y-107082085D02*
X129834399Y-107224942D01*
X129834399Y-107224942D02*
X129834399Y-106939228D01*
X130453446Y-104224942D02*
X130358208Y-104367800D01*
X130358208Y-104367800D02*
X130310589Y-104653514D01*
X130310589Y-104653514D02*
X130310589Y-107224942D01*
X130834399Y-106224942D02*
X130834399Y-103224942D01*
X130834399Y-106082085D02*
X130929637Y-106224942D01*
X130929637Y-106224942D02*
X131120113Y-106224942D01*
X131120113Y-106224942D02*
X131215351Y-106082085D01*
X131215351Y-106082085D02*
X131262970Y-105939228D01*
X131262970Y-105939228D02*
X131310589Y-105653514D01*
X131310589Y-105653514D02*
X131310589Y-104796371D01*
X131310589Y-104796371D02*
X131262970Y-104510657D01*
X131262970Y-104510657D02*
X131215351Y-104367800D01*
X131215351Y-104367800D02*
X131120113Y-104224942D01*
X131120113Y-104224942D02*
X130929637Y-104224942D01*
X130929637Y-104224942D02*
X130834399Y-104367800D01*
X132167732Y-104224942D02*
X132167732Y-105796371D01*
X132167732Y-105796371D02*
X132120113Y-106082085D01*
X132120113Y-106082085D02*
X132024875Y-106224942D01*
X132024875Y-106224942D02*
X131834399Y-106224942D01*
X131834399Y-106224942D02*
X131739161Y-106082085D01*
X132167732Y-104367800D02*
X132072494Y-104224942D01*
X132072494Y-104224942D02*
X131834399Y-104224942D01*
X131834399Y-104224942D02*
X131739161Y-104367800D01*
X131739161Y-104367800D02*
X131691542Y-104653514D01*
X131691542Y-104653514D02*
X131691542Y-104939228D01*
X131691542Y-104939228D02*
X131739161Y-105224942D01*
X131739161Y-105224942D02*
X131834399Y-105367800D01*
X131834399Y-105367800D02*
X132072494Y-105367800D01*
X132072494Y-105367800D02*
X132167732Y-105510657D01*
X132643923Y-106224942D02*
X132643923Y-104224942D01*
X132643923Y-105939228D02*
X132691542Y-106082085D01*
X132691542Y-106082085D02*
X132786780Y-106224942D01*
X132786780Y-106224942D02*
X132929637Y-106224942D01*
X132929637Y-106224942D02*
X133024875Y-106082085D01*
X133024875Y-106082085D02*
X133072494Y-105796371D01*
X133072494Y-105796371D02*
X133072494Y-104224942D01*
X133977256Y-104224942D02*
X133977256Y-107224942D01*
X133977256Y-104367800D02*
X133882018Y-104224942D01*
X133882018Y-104224942D02*
X133691542Y-104224942D01*
X133691542Y-104224942D02*
X133596304Y-104367800D01*
X133596304Y-104367800D02*
X133548685Y-104510657D01*
X133548685Y-104510657D02*
X133501066Y-104796371D01*
X133501066Y-104796371D02*
X133501066Y-105653514D01*
X133501066Y-105653514D02*
X133548685Y-105939228D01*
X133548685Y-105939228D02*
X133596304Y-106082085D01*
X133596304Y-106082085D02*
X133691542Y-106224942D01*
X133691542Y-106224942D02*
X133882018Y-106224942D01*
X133882018Y-106224942D02*
X133977256Y-106082085D01*
X134882018Y-104224942D02*
X134882018Y-105796371D01*
X134882018Y-105796371D02*
X134834399Y-106082085D01*
X134834399Y-106082085D02*
X134739161Y-106224942D01*
X134739161Y-106224942D02*
X134548685Y-106224942D01*
X134548685Y-106224942D02*
X134453447Y-106082085D01*
X134882018Y-104367800D02*
X134786780Y-104224942D01*
X134786780Y-104224942D02*
X134548685Y-104224942D01*
X134548685Y-104224942D02*
X134453447Y-104367800D01*
X134453447Y-104367800D02*
X134405828Y-104653514D01*
X134405828Y-104653514D02*
X134405828Y-104939228D01*
X134405828Y-104939228D02*
X134453447Y-105224942D01*
X134453447Y-105224942D02*
X134548685Y-105367800D01*
X134548685Y-105367800D02*
X134786780Y-105367800D01*
X134786780Y-105367800D02*
X134882018Y-105510657D01*
X136072494Y-107367800D02*
X135215352Y-103510657D01*
X136262971Y-107224942D02*
X136596304Y-104224942D01*
X136596304Y-104224942D02*
X136929637Y-107224942D01*
X137834399Y-104510657D02*
X137786780Y-104367800D01*
X137786780Y-104367800D02*
X137643923Y-104224942D01*
X137643923Y-104224942D02*
X137548685Y-104224942D01*
X137548685Y-104224942D02*
X137405828Y-104367800D01*
X137405828Y-104367800D02*
X137310590Y-104653514D01*
X137310590Y-104653514D02*
X137262971Y-104939228D01*
X137262971Y-104939228D02*
X137215352Y-105510657D01*
X137215352Y-105510657D02*
X137215352Y-105939228D01*
X137215352Y-105939228D02*
X137262971Y-106510657D01*
X137262971Y-106510657D02*
X137310590Y-106796371D01*
X137310590Y-106796371D02*
X137405828Y-107082085D01*
X137405828Y-107082085D02*
X137548685Y-107224942D01*
X137548685Y-107224942D02*
X137643923Y-107224942D01*
X137643923Y-107224942D02*
X137786780Y-107082085D01*
X137786780Y-107082085D02*
X137834399Y-106939228D01*
X138215352Y-105082085D02*
X138691542Y-105082085D01*
X138120114Y-104224942D02*
X138453447Y-107224942D01*
X138453447Y-107224942D02*
X138786780Y-104224942D01*
M02*
