%TF.GenerationSoftware,KiCad,Pcbnew,7.0.6*%
%TF.CreationDate,2023-09-24T22:27:52+13:00*%
%TF.ProjectId,VCA,5643412e-6b69-4636-9164-5f7063625858,rev?*%
%TF.SameCoordinates,Original*%
%TF.FileFunction,Soldermask,Top*%
%TF.FilePolarity,Negative*%
%FSLAX46Y46*%
G04 Gerber Fmt 4.6, Leading zero omitted, Abs format (unit mm)*
G04 Created by KiCad (PCBNEW 7.0.6) date 2023-09-24 22:27:52*
%MOMM*%
%LPD*%
G01*
G04 APERTURE LIST*
G04 Aperture macros list*
%AMRoundRect*
0 Rectangle with rounded corners*
0 $1 Rounding radius*
0 $2 $3 $4 $5 $6 $7 $8 $9 X,Y pos of 4 corners*
0 Add a 4 corners polygon primitive as box body*
4,1,4,$2,$3,$4,$5,$6,$7,$8,$9,$2,$3,0*
0 Add four circle primitives for the rounded corners*
1,1,$1+$1,$2,$3*
1,1,$1+$1,$4,$5*
1,1,$1+$1,$6,$7*
1,1,$1+$1,$8,$9*
0 Add four rect primitives between the rounded corners*
20,1,$1+$1,$2,$3,$4,$5,0*
20,1,$1+$1,$4,$5,$6,$7,0*
20,1,$1+$1,$6,$7,$8,$9,0*
20,1,$1+$1,$8,$9,$2,$3,0*%
G04 Aperture macros list end*
%ADD10O,2.400000X1.600000*%
%ADD11R,2.400000X1.600000*%
%ADD12C,1.500000*%
%ADD13R,1.500000X1.500000*%
%ADD14O,2.190000X1.740000*%
%ADD15RoundRect,0.250000X0.845000X-0.620000X0.845000X0.620000X-0.845000X0.620000X-0.845000X-0.620000X0*%
%ADD16R,1.700000X1.700000*%
%ADD17O,1.700000X1.700000*%
%ADD18C,1.800000*%
%ADD19C,4.000000*%
%ADD20C,1.440000*%
%ADD21RoundRect,0.250000X-0.350000X-0.450000X0.350000X-0.450000X0.350000X0.450000X-0.350000X0.450000X0*%
%ADD22RoundRect,0.250000X0.350000X0.450000X-0.350000X0.450000X-0.350000X-0.450000X0.350000X-0.450000X0*%
%ADD23RoundRect,0.250000X0.475000X-0.337500X0.475000X0.337500X-0.475000X0.337500X-0.475000X-0.337500X0*%
G04 APERTURE END LIST*
D10*
%TO.C,U1*%
X128897056Y-81720000D03*
X128897056Y-84260000D03*
X128897056Y-86800000D03*
X128897056Y-89340000D03*
X121277056Y-89340000D03*
X121277056Y-86800000D03*
X121277056Y-84260000D03*
D11*
X121277056Y-81720000D03*
%TD*%
D12*
%TO.C,Q3*%
X127637056Y-75580000D03*
X125097056Y-75580000D03*
D13*
X122557056Y-75580000D03*
%TD*%
%TO.C,Q2*%
X129767056Y-75570000D03*
D12*
X132307056Y-75570000D03*
X134847056Y-75570000D03*
%TD*%
%TO.C,Q1*%
X120437056Y-75580000D03*
X117897056Y-75580000D03*
D13*
X115357056Y-75580000D03*
%TD*%
D14*
%TO.C,J5*%
X145417056Y-63230000D03*
X145417056Y-65770000D03*
D15*
X145417056Y-68310000D03*
%TD*%
%TO.C,J4*%
X104797056Y-68320000D03*
D14*
X104797056Y-65780000D03*
X104797056Y-63240000D03*
%TD*%
D16*
%TO.C,J3*%
X146597056Y-102315000D03*
D17*
X146597056Y-99775000D03*
%TD*%
%TO.C,J2*%
X103500000Y-99780000D03*
D16*
X103500000Y-102320000D03*
%TD*%
%TO.C,J1*%
X103500000Y-76000000D03*
D17*
X103500000Y-78540000D03*
%TD*%
D18*
%TO.C,CV_AMOUNT1*%
X134997056Y-93220000D03*
X132497056Y-93220000D03*
X129997056Y-93220000D03*
D19*
X128097056Y-100220000D03*
X136897056Y-100220000D03*
%TD*%
D18*
%TO.C,GAIN1*%
X120197056Y-93220000D03*
X117697056Y-93220000D03*
X115197056Y-93220000D03*
D19*
X113297056Y-100220000D03*
X122097056Y-100220000D03*
%TD*%
D20*
%TO.C,OFFSET_TRIM1*%
X123642056Y-65575000D03*
X121102056Y-68115000D03*
X118562056Y-65575000D03*
%TD*%
%TO.C,LEVEL_TRIM1*%
X131642056Y-65575000D03*
X129102056Y-68115000D03*
X126562056Y-65575000D03*
%TD*%
D21*
%TO.C,R16*%
X134297056Y-85420000D03*
X132297056Y-85420000D03*
%TD*%
D22*
%TO.C,R15*%
X132297056Y-81420000D03*
X134297056Y-81420000D03*
%TD*%
%TO.C,R14*%
X134297056Y-89720000D03*
X132297056Y-89720000D03*
%TD*%
%TO.C,R13*%
X134297056Y-83420000D03*
X132297056Y-83420000D03*
%TD*%
%TO.C,R12*%
X132297056Y-87620000D03*
X134297056Y-87620000D03*
%TD*%
D21*
%TO.C,R11*%
X124097056Y-71820000D03*
X126097056Y-71820000D03*
%TD*%
%TO.C,R10*%
X131897056Y-78820000D03*
X133897056Y-78820000D03*
%TD*%
%TO.C,R9*%
X128097056Y-78820000D03*
X130097056Y-78820000D03*
%TD*%
%TO.C,R8*%
X118997056Y-71820000D03*
X116997056Y-71820000D03*
%TD*%
D22*
%TO.C,R7*%
X115997056Y-81620000D03*
X117997056Y-81620000D03*
%TD*%
D21*
%TO.C,R6*%
X133297056Y-71820000D03*
X131297056Y-71820000D03*
%TD*%
%TO.C,R5*%
X117997056Y-83720000D03*
X115997056Y-83720000D03*
%TD*%
%TO.C,R4*%
X121797056Y-78820000D03*
X119797056Y-78820000D03*
%TD*%
D22*
%TO.C,R3*%
X115997056Y-87220000D03*
X117997056Y-87220000D03*
%TD*%
%TO.C,R2*%
X115997056Y-89320000D03*
X117997056Y-89320000D03*
%TD*%
D21*
%TO.C,R1*%
X117997056Y-78820000D03*
X115997056Y-78820000D03*
%TD*%
D23*
%TO.C,C2*%
X113727056Y-65532500D03*
X113727056Y-63457500D03*
%TD*%
%TO.C,C1*%
X135892056Y-68095000D03*
X135892056Y-66020000D03*
%TD*%
M02*
