%TF.GenerationSoftware,KiCad,Pcbnew,7.0.7-7.0.7~ubuntu22.04.1*%
%TF.CreationDate,2023-09-26T14:07:37+13:00*%
%TF.ProjectId,VCA,5643412e-6b69-4636-9164-5f7063625858,rev?*%
%TF.SameCoordinates,Original*%
%TF.FileFunction,Soldermask,Top*%
%TF.FilePolarity,Negative*%
%FSLAX46Y46*%
G04 Gerber Fmt 4.6, Leading zero omitted, Abs format (unit mm)*
G04 Created by KiCad (PCBNEW 7.0.7-7.0.7~ubuntu22.04.1) date 2023-09-26 14:07:37*
%MOMM*%
%LPD*%
G01*
G04 APERTURE LIST*
G04 Aperture macros list*
%AMRoundRect*
0 Rectangle with rounded corners*
0 $1 Rounding radius*
0 $2 $3 $4 $5 $6 $7 $8 $9 X,Y pos of 4 corners*
0 Add a 4 corners polygon primitive as box body*
4,1,4,$2,$3,$4,$5,$6,$7,$8,$9,$2,$3,0*
0 Add four circle primitives for the rounded corners*
1,1,$1+$1,$2,$3*
1,1,$1+$1,$4,$5*
1,1,$1+$1,$6,$7*
1,1,$1+$1,$8,$9*
0 Add four rect primitives between the rounded corners*
20,1,$1+$1,$2,$3,$4,$5,0*
20,1,$1+$1,$4,$5,$6,$7,0*
20,1,$1+$1,$6,$7,$8,$9,0*
20,1,$1+$1,$8,$9,$2,$3,0*%
G04 Aperture macros list end*
%ADD10RoundRect,0.250000X-0.350000X-0.450000X0.350000X-0.450000X0.350000X0.450000X-0.350000X0.450000X0*%
%ADD11R,1.500000X1.500000*%
%ADD12C,1.500000*%
%ADD13RoundRect,0.250000X0.350000X0.450000X-0.350000X0.450000X-0.350000X-0.450000X0.350000X-0.450000X0*%
%ADD14R,1.700000X1.700000*%
%ADD15O,1.700000X1.700000*%
%ADD16C,4.000000*%
%ADD17C,1.800000*%
%ADD18C,1.440000*%
%ADD19RoundRect,0.250000X0.475000X-0.337500X0.475000X0.337500X-0.475000X0.337500X-0.475000X-0.337500X0*%
%ADD20RoundRect,0.250000X0.845000X-0.620000X0.845000X0.620000X-0.845000X0.620000X-0.845000X-0.620000X0*%
%ADD21O,2.190000X1.740000*%
%ADD22R,2.400000X1.600000*%
%ADD23O,2.400000X1.600000*%
G04 APERTURE END LIST*
D10*
%TO.C,R16*%
X108019999Y-126700000D03*
X110019999Y-126700000D03*
%TD*%
D11*
%TO.C,Q2*%
X157490000Y-64850000D03*
D12*
X160030000Y-64850000D03*
X162570000Y-64850000D03*
%TD*%
D13*
%TO.C,R15*%
X110020000Y-70700000D03*
X108020000Y-70700000D03*
%TD*%
D10*
%TO.C,R6*%
X159020000Y-61100000D03*
X161020000Y-61100000D03*
%TD*%
D11*
%TO.C,Q1*%
X143080000Y-116860000D03*
D12*
X145620000Y-116860000D03*
X148160000Y-116860000D03*
%TD*%
D14*
%TO.C,J2*%
X79222943Y-143600000D03*
D15*
X79222943Y-141060000D03*
%TD*%
D10*
%TO.C,R4*%
X147520000Y-68100000D03*
X149520000Y-68100000D03*
%TD*%
D16*
%TO.C,GAIN1*%
X97820000Y-89500000D03*
X89020000Y-89500000D03*
D17*
X90920000Y-82500000D03*
X93420000Y-82500000D03*
X95920000Y-82500000D03*
%TD*%
D18*
%TO.C,OFFSET1*%
X94285000Y-54855000D03*
X96825000Y-57395000D03*
X99365000Y-54855000D03*
%TD*%
D10*
%TO.C,R8*%
X144720000Y-61100000D03*
X146720000Y-61100000D03*
%TD*%
D13*
%TO.C,R2*%
X145720000Y-130600000D03*
X143720000Y-130600000D03*
%TD*%
D10*
%TO.C,R6*%
X107019999Y-113100000D03*
X109019999Y-113100000D03*
%TD*%
D19*
%TO.C,C1*%
X163615000Y-57375000D03*
X163615000Y-55300000D03*
%TD*%
D20*
%TO.C,J4*%
X132520000Y-109600000D03*
D21*
X132520000Y-107060000D03*
X132520000Y-104520000D03*
%TD*%
D14*
%TO.C,J2*%
X131222944Y-143600000D03*
D15*
X131222944Y-141060000D03*
%TD*%
D11*
%TO.C,Q2*%
X105489999Y-116850000D03*
D12*
X108029999Y-116850000D03*
X110569999Y-116850000D03*
%TD*%
D10*
%TO.C,R6*%
X107020000Y-61100000D03*
X109020000Y-61100000D03*
%TD*%
%TO.C,R4*%
X95520000Y-68100000D03*
X97520000Y-68100000D03*
%TD*%
D16*
%TO.C,CV_AMOUNT1*%
X112619999Y-141500000D03*
X103819999Y-141500000D03*
D17*
X105719999Y-134500000D03*
X108219999Y-134500000D03*
X110719999Y-134500000D03*
%TD*%
D10*
%TO.C,R8*%
X92719999Y-113100000D03*
X94719999Y-113100000D03*
%TD*%
%TO.C,R11*%
X99820000Y-61100000D03*
X101820000Y-61100000D03*
%TD*%
D13*
%TO.C,R2*%
X93720000Y-78600000D03*
X91720000Y-78600000D03*
%TD*%
D18*
%TO.C,OFFSET1*%
X146285000Y-54855000D03*
X148825000Y-57395000D03*
X151365000Y-54855000D03*
%TD*%
D19*
%TO.C,C1*%
X163615000Y-109375000D03*
X163615000Y-107300000D03*
%TD*%
%TO.C,C2*%
X89449999Y-106812500D03*
X89449999Y-104737500D03*
%TD*%
D14*
%TO.C,J2*%
X79222944Y-91600000D03*
D15*
X79222944Y-89060000D03*
%TD*%
D14*
%TO.C,J3*%
X123199999Y-143675000D03*
D15*
X123199999Y-141135000D03*
%TD*%
D10*
%TO.C,R10*%
X107619999Y-120100000D03*
X109619999Y-120100000D03*
%TD*%
%TO.C,R8*%
X144720000Y-113100000D03*
X146720000Y-113100000D03*
%TD*%
D19*
%TO.C,C1*%
X111614999Y-109375000D03*
X111614999Y-107300000D03*
%TD*%
D10*
%TO.C,R1*%
X91720000Y-68100000D03*
X93720000Y-68100000D03*
%TD*%
D11*
%TO.C,Q2*%
X105490000Y-64850000D03*
D12*
X108030000Y-64850000D03*
X110570000Y-64850000D03*
%TD*%
D10*
%TO.C,R9*%
X155820000Y-120100000D03*
X157820000Y-120100000D03*
%TD*%
%TO.C,R10*%
X159620000Y-120100000D03*
X161620000Y-120100000D03*
%TD*%
D20*
%TO.C,J5*%
X121480000Y-57580000D03*
D21*
X121480000Y-55040000D03*
X121480000Y-52500000D03*
%TD*%
D10*
%TO.C,R1*%
X143720000Y-68100000D03*
X145720000Y-68100000D03*
%TD*%
D13*
%TO.C,R7*%
X93719999Y-122900000D03*
X91719999Y-122900000D03*
%TD*%
D18*
%TO.C,LEVEL1*%
X154285000Y-106855000D03*
X156825000Y-109395000D03*
X159365000Y-106855000D03*
%TD*%
D10*
%TO.C,R5*%
X91719999Y-125000000D03*
X93719999Y-125000000D03*
%TD*%
D13*
%TO.C,R3*%
X145720000Y-76500000D03*
X143720000Y-76500000D03*
%TD*%
D18*
%TO.C,LEVEL1*%
X102284999Y-106855000D03*
X104824999Y-109395000D03*
X107364999Y-106855000D03*
%TD*%
D14*
%TO.C,J1*%
X79222944Y-65280000D03*
D15*
X79222944Y-67820000D03*
%TD*%
D18*
%TO.C,OFFSET1*%
X94284999Y-106855000D03*
X96824999Y-109395000D03*
X99364999Y-106855000D03*
%TD*%
D22*
%TO.C,U1*%
X97000000Y-71000000D03*
D23*
X97000000Y-73540000D03*
X97000000Y-76080000D03*
X97000000Y-78620000D03*
X104620000Y-78620000D03*
X104620000Y-76080000D03*
X104620000Y-73540000D03*
X104620000Y-71000000D03*
%TD*%
D10*
%TO.C,R5*%
X143720000Y-125000000D03*
X145720000Y-125000000D03*
%TD*%
D19*
%TO.C,C2*%
X141450000Y-54812500D03*
X141450000Y-52737500D03*
%TD*%
D14*
%TO.C,J1*%
X131222944Y-117280000D03*
D15*
X131222944Y-119820000D03*
%TD*%
D13*
%TO.C,R7*%
X145720000Y-70900000D03*
X143720000Y-70900000D03*
%TD*%
D10*
%TO.C,R10*%
X159620000Y-68100000D03*
X161620000Y-68100000D03*
%TD*%
D14*
%TO.C,J1*%
X79222943Y-117280000D03*
D15*
X79222943Y-119820000D03*
%TD*%
D10*
%TO.C,R11*%
X151820000Y-113100000D03*
X153820000Y-113100000D03*
%TD*%
D18*
%TO.C,LEVEL1*%
X154285000Y-54855000D03*
X156825000Y-57395000D03*
X159365000Y-54855000D03*
%TD*%
D11*
%TO.C,Q1*%
X91079999Y-116860000D03*
D12*
X93619999Y-116860000D03*
X96159999Y-116860000D03*
%TD*%
D20*
%TO.C,J4*%
X80519999Y-109600000D03*
D21*
X80519999Y-107060000D03*
X80519999Y-104520000D03*
%TD*%
D11*
%TO.C,Q3*%
X98279999Y-116860000D03*
D12*
X100819999Y-116860000D03*
X103359999Y-116860000D03*
%TD*%
D14*
%TO.C,J3*%
X175200000Y-91675000D03*
D15*
X175200000Y-89135000D03*
%TD*%
D11*
%TO.C,Q1*%
X143080000Y-64860000D03*
D12*
X145620000Y-64860000D03*
X148160000Y-64860000D03*
%TD*%
D19*
%TO.C,C2*%
X141450000Y-106812500D03*
X141450000Y-104737500D03*
%TD*%
D22*
%TO.C,U1*%
X149000000Y-71000000D03*
D23*
X149000000Y-73540000D03*
X149000000Y-76080000D03*
X149000000Y-78620000D03*
X156620000Y-78620000D03*
X156620000Y-76080000D03*
X156620000Y-73540000D03*
X156620000Y-71000000D03*
%TD*%
D10*
%TO.C,R9*%
X103820000Y-68100000D03*
X105820000Y-68100000D03*
%TD*%
D13*
%TO.C,R12*%
X110019999Y-128900000D03*
X108019999Y-128900000D03*
%TD*%
D14*
%TO.C,J2*%
X131222944Y-91600000D03*
D15*
X131222944Y-89060000D03*
%TD*%
D13*
%TO.C,R3*%
X93720000Y-76500000D03*
X91720000Y-76500000D03*
%TD*%
D10*
%TO.C,R4*%
X147520000Y-120100000D03*
X149520000Y-120100000D03*
%TD*%
%TO.C,R11*%
X99819999Y-113100000D03*
X101819999Y-113100000D03*
%TD*%
D13*
%TO.C,R2*%
X93719999Y-130600000D03*
X91719999Y-130600000D03*
%TD*%
D10*
%TO.C,R16*%
X160020000Y-126700000D03*
X162020000Y-126700000D03*
%TD*%
D16*
%TO.C,GAIN1*%
X149820000Y-89500000D03*
X141020000Y-89500000D03*
D17*
X142920000Y-82500000D03*
X145420000Y-82500000D03*
X147920000Y-82500000D03*
%TD*%
D11*
%TO.C,Q3*%
X98280000Y-64860000D03*
D12*
X100820000Y-64860000D03*
X103360000Y-64860000D03*
%TD*%
D13*
%TO.C,R12*%
X110020000Y-76900000D03*
X108020000Y-76900000D03*
%TD*%
D14*
%TO.C,J1*%
X131222944Y-65280000D03*
D15*
X131222944Y-67820000D03*
%TD*%
D13*
%TO.C,R14*%
X110019999Y-131000000D03*
X108019999Y-131000000D03*
%TD*%
D10*
%TO.C,R5*%
X91720000Y-73000000D03*
X93720000Y-73000000D03*
%TD*%
%TO.C,R5*%
X143720000Y-73000000D03*
X145720000Y-73000000D03*
%TD*%
D13*
%TO.C,R13*%
X110019999Y-124700000D03*
X108019999Y-124700000D03*
%TD*%
%TO.C,R13*%
X110020000Y-72700000D03*
X108020000Y-72700000D03*
%TD*%
D20*
%TO.C,J5*%
X173480000Y-109580000D03*
D21*
X173480000Y-107040000D03*
X173480000Y-104500000D03*
%TD*%
D13*
%TO.C,R14*%
X110020000Y-79000000D03*
X108020000Y-79000000D03*
%TD*%
D16*
%TO.C,GAIN1*%
X149820000Y-141500000D03*
X141020000Y-141500000D03*
D17*
X142920000Y-134500000D03*
X145420000Y-134500000D03*
X147920000Y-134500000D03*
%TD*%
D13*
%TO.C,R2*%
X145720000Y-78600000D03*
X143720000Y-78600000D03*
%TD*%
D20*
%TO.C,J4*%
X80520000Y-57600000D03*
D21*
X80520000Y-55060000D03*
X80520000Y-52520000D03*
%TD*%
D11*
%TO.C,Q3*%
X150280000Y-116860000D03*
D12*
X152820000Y-116860000D03*
X155360000Y-116860000D03*
%TD*%
D13*
%TO.C,R7*%
X93720000Y-70900000D03*
X91720000Y-70900000D03*
%TD*%
D18*
%TO.C,OFFSET1*%
X146285000Y-106855000D03*
X148825000Y-109395000D03*
X151365000Y-106855000D03*
%TD*%
D11*
%TO.C,Q1*%
X91080000Y-64860000D03*
D12*
X93620000Y-64860000D03*
X96160000Y-64860000D03*
%TD*%
D13*
%TO.C,R7*%
X145720000Y-122900000D03*
X143720000Y-122900000D03*
%TD*%
%TO.C,R13*%
X162020000Y-72700000D03*
X160020000Y-72700000D03*
%TD*%
D20*
%TO.C,J5*%
X173480000Y-57580000D03*
D21*
X173480000Y-55040000D03*
X173480000Y-52500000D03*
%TD*%
D13*
%TO.C,R3*%
X93719999Y-128500000D03*
X91719999Y-128500000D03*
%TD*%
%TO.C,R15*%
X162020000Y-122700000D03*
X160020000Y-122700000D03*
%TD*%
D10*
%TO.C,R11*%
X151820000Y-61100000D03*
X153820000Y-61100000D03*
%TD*%
D16*
%TO.C,CV_AMOUNT1*%
X164620000Y-141500000D03*
X155820000Y-141500000D03*
D17*
X157720000Y-134500000D03*
X160220000Y-134500000D03*
X162720000Y-134500000D03*
%TD*%
D10*
%TO.C,R9*%
X155820000Y-68100000D03*
X157820000Y-68100000D03*
%TD*%
%TO.C,R6*%
X159020000Y-113100000D03*
X161020000Y-113100000D03*
%TD*%
D22*
%TO.C,U1*%
X96999999Y-123000000D03*
D23*
X96999999Y-125540000D03*
X96999999Y-128080000D03*
X96999999Y-130620000D03*
X104619999Y-130620000D03*
X104619999Y-128080000D03*
X104619999Y-125540000D03*
X104619999Y-123000000D03*
%TD*%
D10*
%TO.C,R1*%
X91719999Y-120100000D03*
X93719999Y-120100000D03*
%TD*%
D13*
%TO.C,R3*%
X145720000Y-128500000D03*
X143720000Y-128500000D03*
%TD*%
D14*
%TO.C,J3*%
X123200000Y-91675000D03*
D15*
X123200000Y-89135000D03*
%TD*%
D16*
%TO.C,GAIN1*%
X97819999Y-141500000D03*
X89019999Y-141500000D03*
D17*
X90919999Y-134500000D03*
X93419999Y-134500000D03*
X95919999Y-134500000D03*
%TD*%
D11*
%TO.C,Q3*%
X150280000Y-64860000D03*
D12*
X152820000Y-64860000D03*
X155360000Y-64860000D03*
%TD*%
D13*
%TO.C,R12*%
X162020000Y-76900000D03*
X160020000Y-76900000D03*
%TD*%
D22*
%TO.C,U1*%
X149000000Y-123000000D03*
D23*
X149000000Y-125540000D03*
X149000000Y-128080000D03*
X149000000Y-130620000D03*
X156620000Y-130620000D03*
X156620000Y-128080000D03*
X156620000Y-125540000D03*
X156620000Y-123000000D03*
%TD*%
D20*
%TO.C,J4*%
X132520000Y-57600000D03*
D21*
X132520000Y-55060000D03*
X132520000Y-52520000D03*
%TD*%
D19*
%TO.C,C1*%
X111615000Y-57375000D03*
X111615000Y-55300000D03*
%TD*%
D10*
%TO.C,R10*%
X107620000Y-68100000D03*
X109620000Y-68100000D03*
%TD*%
D16*
%TO.C,CV_AMOUNT1*%
X164620000Y-89500000D03*
X155820000Y-89500000D03*
D17*
X157720000Y-82500000D03*
X160220000Y-82500000D03*
X162720000Y-82500000D03*
%TD*%
D18*
%TO.C,LEVEL1*%
X102285000Y-54855000D03*
X104825000Y-57395000D03*
X107365000Y-54855000D03*
%TD*%
D10*
%TO.C,R4*%
X95519999Y-120100000D03*
X97519999Y-120100000D03*
%TD*%
%TO.C,R16*%
X108020000Y-74700000D03*
X110020000Y-74700000D03*
%TD*%
D13*
%TO.C,R13*%
X162020000Y-124700000D03*
X160020000Y-124700000D03*
%TD*%
%TO.C,R15*%
X162020000Y-70700000D03*
X160020000Y-70700000D03*
%TD*%
D16*
%TO.C,CV_AMOUNT1*%
X112620000Y-89500000D03*
X103820000Y-89500000D03*
D17*
X105720000Y-82500000D03*
X108220000Y-82500000D03*
X110720000Y-82500000D03*
%TD*%
D10*
%TO.C,R1*%
X143720000Y-120100000D03*
X145720000Y-120100000D03*
%TD*%
D20*
%TO.C,J5*%
X121479999Y-109580000D03*
D21*
X121479999Y-107040000D03*
X121479999Y-104500000D03*
%TD*%
D10*
%TO.C,R9*%
X103819999Y-120100000D03*
X105819999Y-120100000D03*
%TD*%
D14*
%TO.C,J3*%
X175200000Y-143675000D03*
D15*
X175200000Y-141135000D03*
%TD*%
D10*
%TO.C,R16*%
X160020000Y-74700000D03*
X162020000Y-74700000D03*
%TD*%
D11*
%TO.C,Q2*%
X157490000Y-116850000D03*
D12*
X160030000Y-116850000D03*
X162570000Y-116850000D03*
%TD*%
D19*
%TO.C,C2*%
X89450000Y-54812500D03*
X89450000Y-52737500D03*
%TD*%
D10*
%TO.C,R8*%
X92720000Y-61100000D03*
X94720000Y-61100000D03*
%TD*%
D13*
%TO.C,R15*%
X110019999Y-122700000D03*
X108019999Y-122700000D03*
%TD*%
%TO.C,R12*%
X162020000Y-128900000D03*
X160020000Y-128900000D03*
%TD*%
%TO.C,R14*%
X162020000Y-79000000D03*
X160020000Y-79000000D03*
%TD*%
%TO.C,R14*%
X162020000Y-131000000D03*
X160020000Y-131000000D03*
%TD*%
M02*
