%TF.GenerationSoftware,KiCad,Pcbnew,7.0.6*%
%TF.CreationDate,2023-09-24T22:27:52+13:00*%
%TF.ProjectId,VCA,5643412e-6b69-4636-9164-5f7063625858,rev?*%
%TF.SameCoordinates,Original*%
%TF.FileFunction,Copper,L2,Bot*%
%TF.FilePolarity,Positive*%
%FSLAX46Y46*%
G04 Gerber Fmt 4.6, Leading zero omitted, Abs format (unit mm)*
G04 Created by KiCad (PCBNEW 7.0.6) date 2023-09-24 22:27:52*
%MOMM*%
%LPD*%
G01*
G04 APERTURE LIST*
G04 Aperture macros list*
%AMRoundRect*
0 Rectangle with rounded corners*
0 $1 Rounding radius*
0 $2 $3 $4 $5 $6 $7 $8 $9 X,Y pos of 4 corners*
0 Add a 4 corners polygon primitive as box body*
4,1,4,$2,$3,$4,$5,$6,$7,$8,$9,$2,$3,0*
0 Add four circle primitives for the rounded corners*
1,1,$1+$1,$2,$3*
1,1,$1+$1,$4,$5*
1,1,$1+$1,$6,$7*
1,1,$1+$1,$8,$9*
0 Add four rect primitives between the rounded corners*
20,1,$1+$1,$2,$3,$4,$5,0*
20,1,$1+$1,$4,$5,$6,$7,0*
20,1,$1+$1,$6,$7,$8,$9,0*
20,1,$1+$1,$8,$9,$2,$3,0*%
G04 Aperture macros list end*
%TA.AperFunction,ComponentPad*%
%ADD10O,2.400000X1.600000*%
%TD*%
%TA.AperFunction,ComponentPad*%
%ADD11R,2.400000X1.600000*%
%TD*%
%TA.AperFunction,ComponentPad*%
%ADD12C,1.500000*%
%TD*%
%TA.AperFunction,ComponentPad*%
%ADD13R,1.500000X1.500000*%
%TD*%
%TA.AperFunction,ComponentPad*%
%ADD14O,2.190000X1.740000*%
%TD*%
%TA.AperFunction,ComponentPad*%
%ADD15RoundRect,0.250000X0.845000X-0.620000X0.845000X0.620000X-0.845000X0.620000X-0.845000X-0.620000X0*%
%TD*%
%TA.AperFunction,ComponentPad*%
%ADD16R,1.700000X1.700000*%
%TD*%
%TA.AperFunction,ComponentPad*%
%ADD17O,1.700000X1.700000*%
%TD*%
%TA.AperFunction,ComponentPad*%
%ADD18C,1.800000*%
%TD*%
%TA.AperFunction,WasherPad*%
%ADD19C,4.000000*%
%TD*%
%TA.AperFunction,ComponentPad*%
%ADD20C,1.440000*%
%TD*%
%TA.AperFunction,ViaPad*%
%ADD21C,0.800000*%
%TD*%
%TA.AperFunction,Conductor*%
%ADD22C,1.000000*%
%TD*%
%TA.AperFunction,Conductor*%
%ADD23C,0.400000*%
%TD*%
G04 APERTURE END LIST*
D10*
%TO.P,U1,8,V+*%
%TO.N,+12V*%
X128897056Y-81720000D03*
%TO.P,U1,7*%
%TO.N,Net-(R15-Pad2)*%
X128897056Y-84260000D03*
%TO.P,U1,6,-*%
%TO.N,Net-(U1B--)*%
X128897056Y-86800000D03*
%TO.P,U1,5,+*%
%TO.N,Net-(U1B-+)*%
X128897056Y-89340000D03*
%TO.P,U1,4,V-*%
%TO.N,-12V*%
X121277056Y-89340000D03*
%TO.P,U1,3,+*%
%TO.N,GND*%
X121277056Y-86800000D03*
%TO.P,U1,2,-*%
%TO.N,Net-(U1A--)*%
X121277056Y-84260000D03*
D11*
%TO.P,U1,1*%
%TO.N,Net-(R5-Pad2)*%
X121277056Y-81720000D03*
%TD*%
D12*
%TO.P,Q3,3,E*%
%TO.N,Net-(Q1-E)*%
X127637056Y-75580000D03*
%TO.P,Q3,2,B*%
%TO.N,GND*%
X125097056Y-75580000D03*
D13*
%TO.P,Q3,1,C*%
%TO.N,Net-(Q3-C)*%
X122557056Y-75580000D03*
%TD*%
%TO.P,Q2,1,C*%
%TO.N,GND*%
X129767056Y-75570000D03*
D12*
%TO.P,Q2,2,B*%
%TO.N,Net-(Q2-B)*%
X132307056Y-75570000D03*
%TO.P,Q2,3,E*%
%TO.N,Net-(Q2-E)*%
X134847056Y-75570000D03*
%TD*%
%TO.P,Q1,3,E*%
%TO.N,Net-(Q1-E)*%
X120437056Y-75580000D03*
%TO.P,Q1,2,B*%
%TO.N,Net-(Q1-B)*%
X117897056Y-75580000D03*
D13*
%TO.P,Q1,1,C*%
%TO.N,Net-(Q1-C)*%
X115357056Y-75580000D03*
%TD*%
D14*
%TO.P,J5,3,Pin_3*%
%TO.N,-12V*%
X145417056Y-63230000D03*
%TO.P,J5,2,Pin_2*%
%TO.N,GND*%
X145417056Y-65770000D03*
D15*
%TO.P,J5,1,Pin_1*%
%TO.N,+12V*%
X145417056Y-68310000D03*
%TD*%
%TO.P,J4,1,Pin_1*%
%TO.N,+12V*%
X104797056Y-68320000D03*
D14*
%TO.P,J4,2,Pin_2*%
%TO.N,GND*%
X104797056Y-65780000D03*
%TO.P,J4,3,Pin_3*%
%TO.N,-12V*%
X104797056Y-63240000D03*
%TD*%
D16*
%TO.P,J3,1,Pin_1*%
%TO.N,AMout*%
X146597056Y-102315000D03*
D17*
%TO.P,J3,2,Pin_2*%
X146597056Y-99775000D03*
%TD*%
%TO.P,J2,2,Pin_2*%
%TO.N,controlVoltage*%
X103500000Y-99780000D03*
D16*
%TO.P,J2,1,Pin_1*%
X103500000Y-102320000D03*
%TD*%
%TO.P,J1,1,Pin_1*%
%TO.N,carrierSignal*%
X103500000Y-76000000D03*
D17*
%TO.P,J1,2,Pin_2*%
X103500000Y-78540000D03*
%TD*%
D18*
%TO.P,CV_AMOUNT1,3,3*%
%TO.N,GND*%
X134997056Y-93220000D03*
%TO.P,CV_AMOUNT1,2,2*%
%TO.N,Net-(CV_AMOUNT1-Pad2)*%
X132497056Y-93220000D03*
%TO.P,CV_AMOUNT1,1,1*%
%TO.N,controlVoltage*%
X129997056Y-93220000D03*
D19*
%TO.P,CV_AMOUNT1,*%
%TO.N,*%
X128097056Y-100220000D03*
X136897056Y-100220000D03*
%TD*%
D18*
%TO.P,GAIN1,3,3*%
%TO.N,GND*%
X120197056Y-93220000D03*
%TO.P,GAIN1,2,2*%
%TO.N,Net-(GAIN1-Pad2)*%
X117697056Y-93220000D03*
%TO.P,GAIN1,1,1*%
%TO.N,+12V*%
X115197056Y-93220000D03*
D19*
%TO.P,GAIN1,*%
%TO.N,*%
X113297056Y-100220000D03*
X122097056Y-100220000D03*
%TD*%
D20*
%TO.P,OFFSET_TRIM1,3,3*%
%TO.N,Net-(OFFSET_TRIM1-Pad3)*%
X123642056Y-65575000D03*
%TO.P,OFFSET_TRIM1,2,2*%
%TO.N,+12V*%
X121102056Y-68115000D03*
%TO.P,OFFSET_TRIM1,1,1*%
%TO.N,Net-(OFFSET_TRIM1-Pad1)*%
X118562056Y-65575000D03*
%TD*%
%TO.P,LEVEL_TRIM1,3,3*%
%TO.N,-12V*%
X131642056Y-65575000D03*
%TO.P,LEVEL_TRIM1,2,2*%
%TO.N,Net-(LEVEL_TRIM1-Pad2)*%
X129102056Y-68115000D03*
%TO.P,LEVEL_TRIM1,1,1*%
%TO.N,+12V*%
X126562056Y-65575000D03*
%TD*%
D21*
%TO.N,-12V*%
X115697056Y-65820000D03*
X116497056Y-91020000D03*
X111397056Y-79620000D03*
X111397056Y-77920000D03*
X115597056Y-69920000D03*
%TO.N,+12V*%
X109497056Y-78020000D03*
X109497056Y-79620000D03*
X135397056Y-77520000D03*
%TO.N,Net-(OFFSET_TRIM1-Pad1)*%
X117097056Y-70020000D03*
%TO.N,Net-(R15-Pad2)*%
X131097056Y-85920000D03*
%TO.N,Net-(Q3-C)*%
X124697056Y-80719500D03*
%TO.N,Net-(Q1-C)*%
X123497056Y-81820000D03*
%TO.N,GND*%
X123397056Y-78820000D03*
%TD*%
D22*
%TO.N,-12V*%
X115697056Y-67920000D02*
X115697056Y-65820000D01*
X115697056Y-69820000D02*
X115597056Y-69920000D01*
X115697056Y-67920000D02*
X115697056Y-69820000D01*
D23*
X119297056Y-91020000D02*
X116497056Y-91020000D01*
X120977056Y-89340000D02*
X119297056Y-91020000D01*
X121277056Y-89340000D02*
X120977056Y-89340000D01*
X111397056Y-77920000D02*
X111397056Y-79620000D01*
%TO.N,+12V*%
X109497056Y-78020000D02*
X109497056Y-77820000D01*
X109497056Y-79620000D02*
X109497056Y-78020000D01*
D22*
X133097056Y-77520000D02*
X128897056Y-81720000D01*
X135397056Y-77520000D02*
X133097056Y-77520000D01*
%TO.N,Net-(OFFSET_TRIM1-Pad1)*%
X118562056Y-68555000D02*
X117097056Y-70020000D01*
X118562056Y-65575000D02*
X118562056Y-68555000D01*
D23*
%TO.N,Net-(Q3-C)*%
X122557056Y-79380000D02*
X122557056Y-75580000D01*
X123896556Y-80719500D02*
X122557056Y-79380000D01*
X124697056Y-80719500D02*
X123896556Y-80719500D01*
%TO.N,Net-(R15-Pad2)*%
X129437056Y-84260000D02*
X131097056Y-85920000D01*
X128897056Y-84260000D02*
X129437056Y-84260000D01*
%TO.N,Net-(Q1-C)*%
X123497056Y-81220000D02*
X123497056Y-81820000D01*
X122797056Y-80520000D02*
X123497056Y-81220000D01*
X122397056Y-80520000D02*
X122797056Y-80520000D01*
X120297056Y-80520000D02*
X122397056Y-80520000D01*
X115357056Y-75580000D02*
X120297056Y-80520000D01*
D22*
%TO.N,+12V*%
X126562056Y-65575000D02*
X124022056Y-68115000D01*
X124022056Y-68115000D02*
X121102056Y-68115000D01*
%TD*%
%TA.AperFunction,Conductor*%
%TO.N,GND*%
G36*
X146001423Y-59000566D02*
G01*
X146040986Y-59002394D01*
X146172950Y-59008495D01*
X146372549Y-59018302D01*
X146378048Y-59018819D01*
X146563357Y-59044668D01*
X146749828Y-59072329D01*
X146754871Y-59073294D01*
X146939341Y-59116681D01*
X147120221Y-59161989D01*
X147124797Y-59163327D01*
X147305568Y-59223916D01*
X147480339Y-59286450D01*
X147484471Y-59288100D01*
X147542986Y-59313936D01*
X147659474Y-59365370D01*
X147826973Y-59444592D01*
X147830601Y-59446457D01*
X147998128Y-59539770D01*
X147998142Y-59539778D01*
X148156964Y-59634972D01*
X148160119Y-59636996D01*
X148318603Y-59745559D01*
X148467377Y-59855897D01*
X148470001Y-59857957D01*
X148618027Y-59980876D01*
X148755321Y-60105314D01*
X148757514Y-60107402D01*
X148892596Y-60242484D01*
X148894695Y-60244688D01*
X149019129Y-60381980D01*
X149142034Y-60529989D01*
X149144109Y-60532632D01*
X149254443Y-60681400D01*
X149363002Y-60839879D01*
X149365032Y-60843044D01*
X149460221Y-61001857D01*
X149553527Y-61169371D01*
X149555410Y-61173034D01*
X149634638Y-61340547D01*
X149711899Y-61515527D01*
X149713558Y-61519685D01*
X149776093Y-61694459D01*
X149836662Y-61875173D01*
X149838018Y-61879812D01*
X149883317Y-62060654D01*
X149926696Y-62245090D01*
X149927672Y-62250189D01*
X149955337Y-62436689D01*
X149981177Y-62621933D01*
X149981697Y-62627459D01*
X149989486Y-62785983D01*
X149991512Y-62827230D01*
X149991513Y-62827235D01*
X149999434Y-62998575D01*
X149999500Y-63001438D01*
X149999500Y-104998560D01*
X149999434Y-105001424D01*
X149991512Y-105172761D01*
X149981697Y-105372539D01*
X149981177Y-105378065D01*
X149955337Y-105563310D01*
X149927672Y-105749809D01*
X149926696Y-105754908D01*
X149883317Y-105939345D01*
X149838018Y-106120186D01*
X149836662Y-106124825D01*
X149776093Y-106305540D01*
X149713557Y-106480314D01*
X149711899Y-106484470D01*
X149634638Y-106659452D01*
X149555410Y-106826964D01*
X149553527Y-106830627D01*
X149460221Y-106998142D01*
X149365032Y-107156954D01*
X149363002Y-107160118D01*
X149254437Y-107318608D01*
X149144121Y-107467350D01*
X149142021Y-107470025D01*
X149019132Y-107618016D01*
X148894695Y-107755310D01*
X148892596Y-107757514D01*
X148757514Y-107892596D01*
X148755310Y-107894695D01*
X148618016Y-108019132D01*
X148470025Y-108142021D01*
X148467350Y-108144121D01*
X148318608Y-108254437D01*
X148160118Y-108363002D01*
X148156954Y-108365032D01*
X147998142Y-108460221D01*
X147830627Y-108553527D01*
X147826964Y-108555410D01*
X147659452Y-108634638D01*
X147484470Y-108711899D01*
X147480314Y-108713557D01*
X147305540Y-108776093D01*
X147124825Y-108836662D01*
X147120186Y-108838018D01*
X146939345Y-108883317D01*
X146754908Y-108926696D01*
X146749809Y-108927672D01*
X146563310Y-108955337D01*
X146378065Y-108981177D01*
X146372539Y-108981697D01*
X146172761Y-108991512D01*
X146001424Y-108999434D01*
X145998560Y-108999500D01*
X104001440Y-108999500D01*
X103998576Y-108999434D01*
X103827238Y-108991512D01*
X103627459Y-108981697D01*
X103621933Y-108981177D01*
X103436689Y-108955337D01*
X103250189Y-108927672D01*
X103245090Y-108926696D01*
X103060654Y-108883317D01*
X102879812Y-108838018D01*
X102875173Y-108836662D01*
X102694459Y-108776093D01*
X102519685Y-108713558D01*
X102515527Y-108711899D01*
X102340547Y-108634638D01*
X102173034Y-108555410D01*
X102169371Y-108553527D01*
X102001857Y-108460221D01*
X101843044Y-108365032D01*
X101839879Y-108363002D01*
X101730371Y-108287989D01*
X101681392Y-108254437D01*
X101532632Y-108144109D01*
X101529989Y-108142034D01*
X101381980Y-108019129D01*
X101244688Y-107894695D01*
X101242484Y-107892596D01*
X101107402Y-107757514D01*
X101105314Y-107755321D01*
X100980867Y-107618016D01*
X100857957Y-107470001D01*
X100855897Y-107467377D01*
X100745559Y-107318603D01*
X100636995Y-107160118D01*
X100634966Y-107156954D01*
X100539778Y-106998142D01*
X100512261Y-106948740D01*
X100446457Y-106830601D01*
X100444588Y-106826964D01*
X100365361Y-106659452D01*
X100288100Y-106484471D01*
X100286450Y-106480339D01*
X100223906Y-106305540D01*
X100163327Y-106124797D01*
X100161989Y-106120221D01*
X100116675Y-105939315D01*
X100111402Y-105916895D01*
X100073294Y-105754871D01*
X100072329Y-105749828D01*
X100044662Y-105563310D01*
X100018819Y-105378048D01*
X100018302Y-105372549D01*
X100008487Y-105172761D01*
X100000566Y-105001423D01*
X100000500Y-104998560D01*
X100000500Y-99780000D01*
X102144341Y-99780000D01*
X102164936Y-100015403D01*
X102164938Y-100015413D01*
X102226094Y-100243655D01*
X102226096Y-100243659D01*
X102226097Y-100243663D01*
X102323633Y-100452830D01*
X102325965Y-100457830D01*
X102325967Y-100457834D01*
X102379310Y-100534015D01*
X102461501Y-100651396D01*
X102461506Y-100651402D01*
X102583430Y-100773326D01*
X102616915Y-100834649D01*
X102611931Y-100904341D01*
X102570059Y-100960274D01*
X102539083Y-100977189D01*
X102407669Y-101026203D01*
X102407664Y-101026206D01*
X102292455Y-101112452D01*
X102292452Y-101112455D01*
X102206206Y-101227664D01*
X102206202Y-101227671D01*
X102155908Y-101362517D01*
X102149501Y-101422116D01*
X102149501Y-101422123D01*
X102149500Y-101422135D01*
X102149500Y-103217870D01*
X102149501Y-103217876D01*
X102155908Y-103277483D01*
X102206202Y-103412328D01*
X102206206Y-103412335D01*
X102292452Y-103527544D01*
X102292455Y-103527547D01*
X102407664Y-103613793D01*
X102407671Y-103613797D01*
X102542517Y-103664091D01*
X102542516Y-103664091D01*
X102549444Y-103664835D01*
X102602127Y-103670500D01*
X104397872Y-103670499D01*
X104457483Y-103664091D01*
X104592331Y-103613796D01*
X104707546Y-103527546D01*
X104793796Y-103412331D01*
X104844091Y-103277483D01*
X104850500Y-103217873D01*
X104850499Y-101422128D01*
X104844091Y-101362517D01*
X104793796Y-101227669D01*
X104793795Y-101227668D01*
X104793793Y-101227664D01*
X104707547Y-101112455D01*
X104707544Y-101112452D01*
X104592335Y-101026206D01*
X104592328Y-101026202D01*
X104460917Y-100977189D01*
X104404983Y-100935318D01*
X104380566Y-100869853D01*
X104395418Y-100801580D01*
X104416563Y-100773332D01*
X104538495Y-100651401D01*
X104674035Y-100457830D01*
X104773903Y-100243663D01*
X104780242Y-100220005D01*
X110791612Y-100220005D01*
X110811366Y-100534004D01*
X110811367Y-100534011D01*
X110833761Y-100651402D01*
X110865635Y-100818495D01*
X110870326Y-100843083D01*
X110967553Y-101142316D01*
X110967555Y-101142321D01*
X111101517Y-101427003D01*
X111101520Y-101427009D01*
X111270107Y-101692661D01*
X111270110Y-101692665D01*
X111470662Y-101935090D01*
X111470664Y-101935092D01*
X111700024Y-102150476D01*
X111700034Y-102150484D01*
X111954560Y-102335408D01*
X111954565Y-102335410D01*
X111954572Y-102335416D01*
X112230290Y-102486994D01*
X112230295Y-102486996D01*
X112230297Y-102486997D01*
X112230298Y-102486998D01*
X112522827Y-102602818D01*
X112522830Y-102602819D01*
X112827579Y-102681065D01*
X112827583Y-102681066D01*
X112893066Y-102689338D01*
X113139726Y-102720499D01*
X113139735Y-102720499D01*
X113139738Y-102720500D01*
X113139740Y-102720500D01*
X113454372Y-102720500D01*
X113454374Y-102720500D01*
X113454377Y-102720499D01*
X113454385Y-102720499D01*
X113640649Y-102696968D01*
X113766529Y-102681066D01*
X114071281Y-102602819D01*
X114071284Y-102602818D01*
X114363813Y-102486998D01*
X114363814Y-102486997D01*
X114363812Y-102486997D01*
X114363822Y-102486994D01*
X114639540Y-102335416D01*
X114894086Y-102150478D01*
X115123446Y-101935094D01*
X115324003Y-101692663D01*
X115492593Y-101427007D01*
X115626559Y-101142315D01*
X115723787Y-100843079D01*
X115782744Y-100534015D01*
X115787537Y-100457830D01*
X115802500Y-100220005D01*
X119591612Y-100220005D01*
X119611366Y-100534004D01*
X119611367Y-100534011D01*
X119633761Y-100651402D01*
X119665635Y-100818495D01*
X119670326Y-100843083D01*
X119767553Y-101142316D01*
X119767555Y-101142321D01*
X119901517Y-101427003D01*
X119901520Y-101427009D01*
X120070107Y-101692661D01*
X120070110Y-101692665D01*
X120270662Y-101935090D01*
X120270664Y-101935092D01*
X120500024Y-102150476D01*
X120500034Y-102150484D01*
X120754560Y-102335408D01*
X120754565Y-102335410D01*
X120754572Y-102335416D01*
X121030290Y-102486994D01*
X121030295Y-102486996D01*
X121030297Y-102486997D01*
X121030298Y-102486998D01*
X121322827Y-102602818D01*
X121322830Y-102602819D01*
X121627579Y-102681065D01*
X121627583Y-102681066D01*
X121693066Y-102689338D01*
X121939726Y-102720499D01*
X121939735Y-102720499D01*
X121939738Y-102720500D01*
X121939740Y-102720500D01*
X122254372Y-102720500D01*
X122254374Y-102720500D01*
X122254377Y-102720499D01*
X122254385Y-102720499D01*
X122440649Y-102696968D01*
X122566529Y-102681066D01*
X122871281Y-102602819D01*
X122871284Y-102602818D01*
X123163813Y-102486998D01*
X123163814Y-102486997D01*
X123163812Y-102486997D01*
X123163822Y-102486994D01*
X123439540Y-102335416D01*
X123694086Y-102150478D01*
X123923446Y-101935094D01*
X124124003Y-101692663D01*
X124292593Y-101427007D01*
X124426559Y-101142315D01*
X124523787Y-100843079D01*
X124582744Y-100534015D01*
X124587537Y-100457830D01*
X124602500Y-100220005D01*
X125591612Y-100220005D01*
X125611366Y-100534004D01*
X125611367Y-100534011D01*
X125633761Y-100651402D01*
X125665635Y-100818495D01*
X125670326Y-100843083D01*
X125767553Y-101142316D01*
X125767555Y-101142321D01*
X125901517Y-101427003D01*
X125901520Y-101427009D01*
X126070107Y-101692661D01*
X126070110Y-101692665D01*
X126270662Y-101935090D01*
X126270664Y-101935092D01*
X126500024Y-102150476D01*
X126500034Y-102150484D01*
X126754560Y-102335408D01*
X126754565Y-102335410D01*
X126754572Y-102335416D01*
X127030290Y-102486994D01*
X127030295Y-102486996D01*
X127030297Y-102486997D01*
X127030298Y-102486998D01*
X127322827Y-102602818D01*
X127322830Y-102602819D01*
X127627579Y-102681065D01*
X127627583Y-102681066D01*
X127693066Y-102689338D01*
X127939726Y-102720499D01*
X127939735Y-102720499D01*
X127939738Y-102720500D01*
X127939740Y-102720500D01*
X128254372Y-102720500D01*
X128254374Y-102720500D01*
X128254377Y-102720499D01*
X128254385Y-102720499D01*
X128440649Y-102696968D01*
X128566529Y-102681066D01*
X128871281Y-102602819D01*
X128871284Y-102602818D01*
X129163813Y-102486998D01*
X129163814Y-102486997D01*
X129163812Y-102486997D01*
X129163822Y-102486994D01*
X129439540Y-102335416D01*
X129694086Y-102150478D01*
X129923446Y-101935094D01*
X130124003Y-101692663D01*
X130292593Y-101427007D01*
X130426559Y-101142315D01*
X130523787Y-100843079D01*
X130582744Y-100534015D01*
X130587537Y-100457830D01*
X130602500Y-100220005D01*
X134391612Y-100220005D01*
X134411366Y-100534004D01*
X134411367Y-100534011D01*
X134433761Y-100651402D01*
X134465635Y-100818495D01*
X134470326Y-100843083D01*
X134567553Y-101142316D01*
X134567555Y-101142321D01*
X134701517Y-101427003D01*
X134701520Y-101427009D01*
X134870107Y-101692661D01*
X134870110Y-101692665D01*
X135070662Y-101935090D01*
X135070664Y-101935092D01*
X135300024Y-102150476D01*
X135300034Y-102150484D01*
X135554560Y-102335408D01*
X135554565Y-102335410D01*
X135554572Y-102335416D01*
X135830290Y-102486994D01*
X135830295Y-102486996D01*
X135830297Y-102486997D01*
X135830298Y-102486998D01*
X136122827Y-102602818D01*
X136122830Y-102602819D01*
X136427579Y-102681065D01*
X136427583Y-102681066D01*
X136493066Y-102689338D01*
X136739726Y-102720499D01*
X136739735Y-102720499D01*
X136739738Y-102720500D01*
X136739740Y-102720500D01*
X137054372Y-102720500D01*
X137054374Y-102720500D01*
X137054377Y-102720499D01*
X137054385Y-102720499D01*
X137240649Y-102696968D01*
X137366529Y-102681066D01*
X137671281Y-102602819D01*
X137671284Y-102602818D01*
X137963813Y-102486998D01*
X137963814Y-102486997D01*
X137963812Y-102486997D01*
X137963822Y-102486994D01*
X138239540Y-102335416D01*
X138494086Y-102150478D01*
X138723446Y-101935094D01*
X138924003Y-101692663D01*
X139092593Y-101427007D01*
X139226559Y-101142315D01*
X139323787Y-100843079D01*
X139382744Y-100534015D01*
X139387537Y-100457830D01*
X139402500Y-100220005D01*
X139402500Y-100219994D01*
X139382745Y-99905995D01*
X139382744Y-99905988D01*
X139382744Y-99905985D01*
X139357757Y-99775000D01*
X145241397Y-99775000D01*
X145261992Y-100010403D01*
X145261994Y-100010413D01*
X145323150Y-100238655D01*
X145323152Y-100238659D01*
X145323153Y-100238663D01*
X145423020Y-100452830D01*
X145423021Y-100452830D01*
X145423023Y-100452834D01*
X145479867Y-100534015D01*
X145558557Y-100646396D01*
X145558562Y-100646402D01*
X145680486Y-100768326D01*
X145713971Y-100829649D01*
X145708987Y-100899341D01*
X145667115Y-100955274D01*
X145636139Y-100972189D01*
X145504725Y-101021203D01*
X145504720Y-101021206D01*
X145389511Y-101107452D01*
X145389508Y-101107455D01*
X145303262Y-101222664D01*
X145303258Y-101222671D01*
X145252964Y-101357517D01*
X145246557Y-101417116D01*
X145246557Y-101417123D01*
X145246556Y-101417135D01*
X145246556Y-103212870D01*
X145246557Y-103212876D01*
X145252964Y-103272483D01*
X145303258Y-103407328D01*
X145303262Y-103407335D01*
X145389508Y-103522544D01*
X145389511Y-103522547D01*
X145504720Y-103608793D01*
X145504727Y-103608797D01*
X145639573Y-103659091D01*
X145639572Y-103659091D01*
X145646500Y-103659835D01*
X145699183Y-103665500D01*
X147494928Y-103665499D01*
X147554539Y-103659091D01*
X147689387Y-103608796D01*
X147804602Y-103522546D01*
X147890852Y-103407331D01*
X147941147Y-103272483D01*
X147947556Y-103212873D01*
X147947555Y-101417128D01*
X147942355Y-101368757D01*
X147941147Y-101357516D01*
X147890853Y-101222671D01*
X147890849Y-101222664D01*
X147804603Y-101107455D01*
X147804600Y-101107452D01*
X147689391Y-101021206D01*
X147689384Y-101021202D01*
X147557973Y-100972189D01*
X147502039Y-100930318D01*
X147477622Y-100864853D01*
X147492474Y-100796580D01*
X147513619Y-100768332D01*
X147635551Y-100646401D01*
X147771091Y-100452830D01*
X147870959Y-100238663D01*
X147932119Y-100010408D01*
X147952715Y-99775000D01*
X147932119Y-99539592D01*
X147870959Y-99311337D01*
X147771091Y-99097171D01*
X147712152Y-99012996D01*
X147635550Y-98903597D01*
X147468458Y-98736506D01*
X147468451Y-98736501D01*
X147274890Y-98600967D01*
X147274886Y-98600965D01*
X147274884Y-98600964D01*
X147060719Y-98501097D01*
X147060715Y-98501096D01*
X147060711Y-98501094D01*
X146832469Y-98439938D01*
X146832459Y-98439936D01*
X146597057Y-98419341D01*
X146597055Y-98419341D01*
X146361652Y-98439936D01*
X146361642Y-98439938D01*
X146133400Y-98501094D01*
X146133393Y-98501096D01*
X146133393Y-98501097D01*
X146125218Y-98504909D01*
X145919227Y-98600964D01*
X145919225Y-98600965D01*
X145725653Y-98736505D01*
X145558561Y-98903597D01*
X145423021Y-99097169D01*
X145423020Y-99097171D01*
X145323154Y-99311335D01*
X145323150Y-99311344D01*
X145261994Y-99539586D01*
X145261992Y-99539596D01*
X145241397Y-99774999D01*
X145241397Y-99775000D01*
X139357757Y-99775000D01*
X139323787Y-99596921D01*
X139226559Y-99297685D01*
X139092593Y-99012993D01*
X139026343Y-98908599D01*
X138924004Y-98747338D01*
X138924001Y-98747334D01*
X138723449Y-98504909D01*
X138723447Y-98504907D01*
X138494087Y-98289523D01*
X138494077Y-98289515D01*
X138239551Y-98104591D01*
X138239544Y-98104586D01*
X138239540Y-98104584D01*
X137963822Y-97953006D01*
X137963819Y-97953004D01*
X137963814Y-97953002D01*
X137963813Y-97953001D01*
X137671284Y-97837181D01*
X137671281Y-97837180D01*
X137366532Y-97758934D01*
X137366519Y-97758932D01*
X137054385Y-97719500D01*
X137054374Y-97719500D01*
X136739738Y-97719500D01*
X136739726Y-97719500D01*
X136427592Y-97758932D01*
X136427579Y-97758934D01*
X136122830Y-97837180D01*
X136122827Y-97837181D01*
X135830298Y-97953001D01*
X135830297Y-97953002D01*
X135554572Y-98104584D01*
X135554560Y-98104591D01*
X135300034Y-98289515D01*
X135300024Y-98289523D01*
X135070664Y-98504907D01*
X135070662Y-98504909D01*
X134870110Y-98747334D01*
X134870107Y-98747338D01*
X134701520Y-99012990D01*
X134701517Y-99012996D01*
X134567555Y-99297678D01*
X134567553Y-99297683D01*
X134470326Y-99596916D01*
X134411367Y-99905988D01*
X134411366Y-99905995D01*
X134391612Y-100219994D01*
X134391612Y-100220005D01*
X130602500Y-100220005D01*
X130602500Y-100219994D01*
X130582745Y-99905995D01*
X130582744Y-99905988D01*
X130582744Y-99905985D01*
X130523787Y-99596921D01*
X130426559Y-99297685D01*
X130292593Y-99012993D01*
X130226343Y-98908599D01*
X130124004Y-98747338D01*
X130124001Y-98747334D01*
X129923449Y-98504909D01*
X129923447Y-98504907D01*
X129694087Y-98289523D01*
X129694077Y-98289515D01*
X129439551Y-98104591D01*
X129439544Y-98104586D01*
X129439540Y-98104584D01*
X129163822Y-97953006D01*
X129163819Y-97953004D01*
X129163814Y-97953002D01*
X129163813Y-97953001D01*
X128871284Y-97837181D01*
X128871281Y-97837180D01*
X128566532Y-97758934D01*
X128566519Y-97758932D01*
X128254385Y-97719500D01*
X128254374Y-97719500D01*
X127939738Y-97719500D01*
X127939726Y-97719500D01*
X127627592Y-97758932D01*
X127627579Y-97758934D01*
X127322830Y-97837180D01*
X127322827Y-97837181D01*
X127030298Y-97953001D01*
X127030297Y-97953002D01*
X126754572Y-98104584D01*
X126754560Y-98104591D01*
X126500034Y-98289515D01*
X126500024Y-98289523D01*
X126270664Y-98504907D01*
X126270662Y-98504909D01*
X126070110Y-98747334D01*
X126070107Y-98747338D01*
X125901520Y-99012990D01*
X125901517Y-99012996D01*
X125767555Y-99297678D01*
X125767553Y-99297683D01*
X125670326Y-99596916D01*
X125611367Y-99905988D01*
X125611366Y-99905995D01*
X125591612Y-100219994D01*
X125591612Y-100220005D01*
X124602500Y-100220005D01*
X124602500Y-100219994D01*
X124582745Y-99905995D01*
X124582744Y-99905988D01*
X124582744Y-99905985D01*
X124523787Y-99596921D01*
X124426559Y-99297685D01*
X124292593Y-99012993D01*
X124226343Y-98908599D01*
X124124004Y-98747338D01*
X124124001Y-98747334D01*
X123923449Y-98504909D01*
X123923447Y-98504907D01*
X123694087Y-98289523D01*
X123694077Y-98289515D01*
X123439551Y-98104591D01*
X123439544Y-98104586D01*
X123439540Y-98104584D01*
X123163822Y-97953006D01*
X123163819Y-97953004D01*
X123163814Y-97953002D01*
X123163813Y-97953001D01*
X122871284Y-97837181D01*
X122871281Y-97837180D01*
X122566532Y-97758934D01*
X122566519Y-97758932D01*
X122254385Y-97719500D01*
X122254374Y-97719500D01*
X121939738Y-97719500D01*
X121939726Y-97719500D01*
X121627592Y-97758932D01*
X121627579Y-97758934D01*
X121322830Y-97837180D01*
X121322827Y-97837181D01*
X121030298Y-97953001D01*
X121030297Y-97953002D01*
X120754572Y-98104584D01*
X120754560Y-98104591D01*
X120500034Y-98289515D01*
X120500024Y-98289523D01*
X120270664Y-98504907D01*
X120270662Y-98504909D01*
X120070110Y-98747334D01*
X120070107Y-98747338D01*
X119901520Y-99012990D01*
X119901517Y-99012996D01*
X119767555Y-99297678D01*
X119767553Y-99297683D01*
X119670326Y-99596916D01*
X119611367Y-99905988D01*
X119611366Y-99905995D01*
X119591612Y-100219994D01*
X119591612Y-100220005D01*
X115802500Y-100220005D01*
X115802500Y-100219994D01*
X115782745Y-99905995D01*
X115782744Y-99905988D01*
X115782744Y-99905985D01*
X115723787Y-99596921D01*
X115626559Y-99297685D01*
X115492593Y-99012993D01*
X115426343Y-98908599D01*
X115324004Y-98747338D01*
X115324001Y-98747334D01*
X115123449Y-98504909D01*
X115123447Y-98504907D01*
X114894087Y-98289523D01*
X114894077Y-98289515D01*
X114639551Y-98104591D01*
X114639544Y-98104586D01*
X114639540Y-98104584D01*
X114363822Y-97953006D01*
X114363819Y-97953004D01*
X114363814Y-97953002D01*
X114363813Y-97953001D01*
X114071284Y-97837181D01*
X114071281Y-97837180D01*
X113766532Y-97758934D01*
X113766519Y-97758932D01*
X113454385Y-97719500D01*
X113454374Y-97719500D01*
X113139738Y-97719500D01*
X113139726Y-97719500D01*
X112827592Y-97758932D01*
X112827579Y-97758934D01*
X112522830Y-97837180D01*
X112522827Y-97837181D01*
X112230298Y-97953001D01*
X112230297Y-97953002D01*
X111954572Y-98104584D01*
X111954560Y-98104591D01*
X111700034Y-98289515D01*
X111700024Y-98289523D01*
X111470664Y-98504907D01*
X111470662Y-98504909D01*
X111270110Y-98747334D01*
X111270107Y-98747338D01*
X111101520Y-99012990D01*
X111101517Y-99012996D01*
X110967555Y-99297678D01*
X110967553Y-99297683D01*
X110870326Y-99596916D01*
X110811367Y-99905988D01*
X110811366Y-99905995D01*
X110791612Y-100219994D01*
X110791612Y-100220005D01*
X104780242Y-100220005D01*
X104835063Y-100015408D01*
X104855659Y-99780000D01*
X104855221Y-99774999D01*
X104835063Y-99544596D01*
X104835063Y-99544592D01*
X104773903Y-99316337D01*
X104674035Y-99102171D01*
X104611595Y-99012996D01*
X104538494Y-98908597D01*
X104371402Y-98741506D01*
X104371395Y-98741501D01*
X104364261Y-98736506D01*
X104332521Y-98714281D01*
X104177834Y-98605967D01*
X104177830Y-98605965D01*
X104167105Y-98600964D01*
X103963663Y-98506097D01*
X103963659Y-98506096D01*
X103963655Y-98506094D01*
X103735413Y-98444938D01*
X103735403Y-98444936D01*
X103500001Y-98424341D01*
X103499999Y-98424341D01*
X103264596Y-98444936D01*
X103264586Y-98444938D01*
X103036344Y-98506094D01*
X103036335Y-98506098D01*
X102822171Y-98605964D01*
X102822169Y-98605965D01*
X102628597Y-98741505D01*
X102461505Y-98908597D01*
X102325965Y-99102169D01*
X102325964Y-99102171D01*
X102234798Y-99297678D01*
X102228430Y-99311335D01*
X102226098Y-99316335D01*
X102226094Y-99316344D01*
X102164938Y-99544586D01*
X102164936Y-99544596D01*
X102144341Y-99779999D01*
X102144341Y-99780000D01*
X100000500Y-99780000D01*
X100000500Y-93220006D01*
X113791756Y-93220006D01*
X113810920Y-93451297D01*
X113810922Y-93451308D01*
X113867898Y-93676300D01*
X113961131Y-93888848D01*
X114088072Y-94083147D01*
X114088075Y-94083151D01*
X114088077Y-94083153D01*
X114245272Y-94253913D01*
X114245275Y-94253915D01*
X114245278Y-94253918D01*
X114428421Y-94396464D01*
X114428427Y-94396468D01*
X114428430Y-94396470D01*
X114595916Y-94487109D01*
X114631708Y-94506479D01*
X114632553Y-94506936D01*
X114746543Y-94546068D01*
X114852071Y-94582297D01*
X114852073Y-94582297D01*
X114852075Y-94582298D01*
X115081007Y-94620500D01*
X115081008Y-94620500D01*
X115313104Y-94620500D01*
X115313105Y-94620500D01*
X115542037Y-94582298D01*
X115761559Y-94506936D01*
X115965682Y-94396470D01*
X116148840Y-94253913D01*
X116306035Y-94083153D01*
X116343247Y-94026194D01*
X116396391Y-93980839D01*
X116465622Y-93971415D01*
X116528958Y-94000916D01*
X116550863Y-94026195D01*
X116588071Y-94083145D01*
X116588073Y-94083147D01*
X116588077Y-94083153D01*
X116745272Y-94253913D01*
X116745275Y-94253915D01*
X116745278Y-94253918D01*
X116928421Y-94396464D01*
X116928427Y-94396468D01*
X116928430Y-94396470D01*
X117095916Y-94487109D01*
X117131708Y-94506479D01*
X117132553Y-94506936D01*
X117246543Y-94546068D01*
X117352071Y-94582297D01*
X117352073Y-94582297D01*
X117352075Y-94582298D01*
X117581007Y-94620500D01*
X117581008Y-94620500D01*
X117813104Y-94620500D01*
X117813105Y-94620500D01*
X118042037Y-94582298D01*
X118261559Y-94506936D01*
X118465682Y-94396470D01*
X118648840Y-94253913D01*
X118806035Y-94083153D01*
X118843545Y-94025738D01*
X118896691Y-93980382D01*
X118965922Y-93970958D01*
X119029258Y-94000459D01*
X119043970Y-94017437D01*
X119045868Y-94017634D01*
X119713978Y-93349522D01*
X119737563Y-93429844D01*
X119815295Y-93550798D01*
X119923956Y-93644952D01*
X120054741Y-93704680D01*
X120064522Y-93706086D01*
X119398255Y-94372351D01*
X119428706Y-94396050D01*
X119632753Y-94506476D01*
X119632762Y-94506479D01*
X119852195Y-94581811D01*
X120081049Y-94620000D01*
X120313063Y-94620000D01*
X120541916Y-94581811D01*
X120761349Y-94506479D01*
X120761358Y-94506476D01*
X120965406Y-94396050D01*
X120995854Y-94372351D01*
X120329589Y-93706086D01*
X120339371Y-93704680D01*
X120470156Y-93644952D01*
X120578817Y-93550798D01*
X120656549Y-93429844D01*
X120680132Y-93349524D01*
X121348242Y-94017634D01*
X121432540Y-93888606D01*
X121525738Y-93676135D01*
X121582694Y-93451218D01*
X121601854Y-93220006D01*
X128591756Y-93220006D01*
X128610920Y-93451297D01*
X128610922Y-93451308D01*
X128667898Y-93676300D01*
X128761131Y-93888848D01*
X128888072Y-94083147D01*
X128888075Y-94083151D01*
X128888077Y-94083153D01*
X129045272Y-94253913D01*
X129045275Y-94253915D01*
X129045278Y-94253918D01*
X129228421Y-94396464D01*
X129228427Y-94396468D01*
X129228430Y-94396470D01*
X129395916Y-94487109D01*
X129431708Y-94506479D01*
X129432553Y-94506936D01*
X129546543Y-94546068D01*
X129652071Y-94582297D01*
X129652073Y-94582297D01*
X129652075Y-94582298D01*
X129881007Y-94620500D01*
X129881008Y-94620500D01*
X130113104Y-94620500D01*
X130113105Y-94620500D01*
X130342037Y-94582298D01*
X130561559Y-94506936D01*
X130765682Y-94396470D01*
X130948840Y-94253913D01*
X131106035Y-94083153D01*
X131143247Y-94026194D01*
X131196391Y-93980839D01*
X131265622Y-93971415D01*
X131328958Y-94000916D01*
X131350863Y-94026195D01*
X131388071Y-94083145D01*
X131388073Y-94083147D01*
X131388077Y-94083153D01*
X131545272Y-94253913D01*
X131545275Y-94253915D01*
X131545278Y-94253918D01*
X131728421Y-94396464D01*
X131728427Y-94396468D01*
X131728430Y-94396470D01*
X131895916Y-94487109D01*
X131931708Y-94506479D01*
X131932553Y-94506936D01*
X132046543Y-94546068D01*
X132152071Y-94582297D01*
X132152073Y-94582297D01*
X132152075Y-94582298D01*
X132381007Y-94620500D01*
X132381008Y-94620500D01*
X132613104Y-94620500D01*
X132613105Y-94620500D01*
X132842037Y-94582298D01*
X133061559Y-94506936D01*
X133265682Y-94396470D01*
X133448840Y-94253913D01*
X133606035Y-94083153D01*
X133643545Y-94025738D01*
X133696691Y-93980382D01*
X133765922Y-93970958D01*
X133829258Y-94000459D01*
X133843970Y-94017437D01*
X133845867Y-94017634D01*
X134513978Y-93349523D01*
X134537563Y-93429844D01*
X134615295Y-93550798D01*
X134723956Y-93644952D01*
X134854741Y-93704680D01*
X134864522Y-93706086D01*
X134198255Y-94372351D01*
X134228706Y-94396050D01*
X134432753Y-94506476D01*
X134432762Y-94506479D01*
X134652195Y-94581811D01*
X134881049Y-94620000D01*
X135113063Y-94620000D01*
X135341916Y-94581811D01*
X135561349Y-94506479D01*
X135561358Y-94506476D01*
X135765406Y-94396050D01*
X135795854Y-94372351D01*
X135129589Y-93706086D01*
X135139371Y-93704680D01*
X135270156Y-93644952D01*
X135378817Y-93550798D01*
X135456549Y-93429844D01*
X135480132Y-93349524D01*
X136148242Y-94017634D01*
X136232540Y-93888606D01*
X136325738Y-93676135D01*
X136382694Y-93451218D01*
X136401854Y-93220005D01*
X136401854Y-93219994D01*
X136382694Y-92988781D01*
X136325738Y-92763864D01*
X136232539Y-92551390D01*
X136148242Y-92422364D01*
X135480132Y-93090475D01*
X135456549Y-93010156D01*
X135378817Y-92889202D01*
X135270156Y-92795048D01*
X135139371Y-92735320D01*
X135129590Y-92733913D01*
X135795855Y-92067648D01*
X135795855Y-92067647D01*
X135765405Y-92043949D01*
X135561358Y-91933523D01*
X135561349Y-91933520D01*
X135341916Y-91858188D01*
X135113063Y-91820000D01*
X134881049Y-91820000D01*
X134652195Y-91858188D01*
X134432762Y-91933520D01*
X134432754Y-91933523D01*
X134228700Y-92043952D01*
X134198256Y-92067646D01*
X134198256Y-92067647D01*
X134864522Y-92733913D01*
X134854741Y-92735320D01*
X134723956Y-92795048D01*
X134615295Y-92889202D01*
X134537563Y-93010156D01*
X134513979Y-93090476D01*
X133845867Y-92422364D01*
X133841086Y-92422860D01*
X133798016Y-92459617D01*
X133728785Y-92469041D01*
X133665449Y-92439539D01*
X133643545Y-92414260D01*
X133606039Y-92356852D01*
X133606036Y-92356849D01*
X133606035Y-92356847D01*
X133448840Y-92186087D01*
X133448835Y-92186083D01*
X133448833Y-92186081D01*
X133265690Y-92043535D01*
X133265684Y-92043531D01*
X133061560Y-91933064D01*
X133061551Y-91933061D01*
X132842040Y-91857702D01*
X132670338Y-91829050D01*
X132613105Y-91819500D01*
X132381007Y-91819500D01*
X132335220Y-91827140D01*
X132152071Y-91857702D01*
X131932560Y-91933061D01*
X131932551Y-91933064D01*
X131728427Y-92043531D01*
X131728421Y-92043535D01*
X131545278Y-92186081D01*
X131545275Y-92186084D01*
X131545272Y-92186086D01*
X131545272Y-92186087D01*
X131388077Y-92356847D01*
X131388075Y-92356849D01*
X131388073Y-92356852D01*
X131350863Y-92413805D01*
X131297715Y-92459161D01*
X131228484Y-92468583D01*
X131165149Y-92439081D01*
X131143246Y-92413803D01*
X131106039Y-92356852D01*
X131106036Y-92356849D01*
X131106035Y-92356847D01*
X130948840Y-92186087D01*
X130948835Y-92186083D01*
X130948833Y-92186081D01*
X130765690Y-92043535D01*
X130765684Y-92043531D01*
X130561560Y-91933064D01*
X130561551Y-91933061D01*
X130342040Y-91857702D01*
X130170337Y-91829050D01*
X130113105Y-91819500D01*
X129881007Y-91819500D01*
X129835220Y-91827140D01*
X129652071Y-91857702D01*
X129432560Y-91933061D01*
X129432551Y-91933064D01*
X129228427Y-92043531D01*
X129228421Y-92043535D01*
X129045278Y-92186081D01*
X129045275Y-92186084D01*
X128888072Y-92356852D01*
X128761131Y-92551151D01*
X128667898Y-92763699D01*
X128610922Y-92988691D01*
X128610920Y-92988702D01*
X128591756Y-93219993D01*
X128591756Y-93220006D01*
X121601854Y-93220006D01*
X121601854Y-93220005D01*
X121601854Y-93219994D01*
X121582694Y-92988781D01*
X121525738Y-92763864D01*
X121432539Y-92551390D01*
X121348242Y-92422364D01*
X120680132Y-93090473D01*
X120656549Y-93010156D01*
X120578817Y-92889202D01*
X120470156Y-92795048D01*
X120339371Y-92735320D01*
X120329587Y-92733913D01*
X120995855Y-92067647D01*
X120965405Y-92043949D01*
X120761358Y-91933523D01*
X120761349Y-91933520D01*
X120541916Y-91858188D01*
X120313063Y-91820000D01*
X120081049Y-91820000D01*
X119852195Y-91858188D01*
X119632762Y-91933520D01*
X119632754Y-91933523D01*
X119428700Y-92043952D01*
X119398256Y-92067646D01*
X119398256Y-92067647D01*
X120064522Y-92733913D01*
X120054741Y-92735320D01*
X119923956Y-92795048D01*
X119815295Y-92889202D01*
X119737563Y-93010156D01*
X119713979Y-93090476D01*
X119045867Y-92422364D01*
X119041086Y-92422860D01*
X118998016Y-92459617D01*
X118928785Y-92469041D01*
X118865449Y-92439539D01*
X118843545Y-92414260D01*
X118806039Y-92356852D01*
X118806036Y-92356849D01*
X118806035Y-92356847D01*
X118648840Y-92186087D01*
X118648835Y-92186083D01*
X118648833Y-92186081D01*
X118465690Y-92043535D01*
X118465684Y-92043531D01*
X118299423Y-91953555D01*
X118249833Y-91904335D01*
X118234725Y-91836119D01*
X118258895Y-91770563D01*
X118314671Y-91728482D01*
X118358441Y-91720500D01*
X119274008Y-91720500D01*
X119277753Y-91720613D01*
X119285098Y-91721057D01*
X119339662Y-91724358D01*
X119377370Y-91717447D01*
X119400677Y-91713177D01*
X119404381Y-91712613D01*
X119422226Y-91710446D01*
X119465928Y-91705140D01*
X119475391Y-91701550D01*
X119497017Y-91695522D01*
X119497949Y-91695351D01*
X119506988Y-91693695D01*
X119563568Y-91668229D01*
X119566998Y-91666809D01*
X119624986Y-91644818D01*
X119633322Y-91639062D01*
X119652877Y-91628034D01*
X119662113Y-91623878D01*
X119710952Y-91585613D01*
X119713932Y-91583421D01*
X119764985Y-91548183D01*
X119806121Y-91501748D01*
X119808655Y-91499056D01*
X120638641Y-90669070D01*
X120699962Y-90635587D01*
X120737124Y-90633225D01*
X120820272Y-90640500D01*
X121733840Y-90640500D01*
X121903748Y-90625635D01*
X122123552Y-90566739D01*
X122329790Y-90470568D01*
X122516195Y-90340047D01*
X122677103Y-90179139D01*
X122807624Y-89992734D01*
X122903795Y-89786496D01*
X122962691Y-89566692D01*
X122982524Y-89340000D01*
X122962691Y-89113308D01*
X122903795Y-88893504D01*
X122807624Y-88687266D01*
X122677103Y-88500861D01*
X122677101Y-88500858D01*
X122516197Y-88339954D01*
X122329790Y-88209432D01*
X122329788Y-88209431D01*
X122271781Y-88182382D01*
X122271188Y-88182105D01*
X122218750Y-88135934D01*
X122199598Y-88068740D01*
X122219814Y-88001859D01*
X122271190Y-87957341D01*
X122329540Y-87930132D01*
X122515876Y-87799657D01*
X122676713Y-87638820D01*
X122807190Y-87452482D01*
X122903321Y-87246326D01*
X122903325Y-87246317D01*
X122955928Y-87050000D01*
X121592742Y-87050000D01*
X121604697Y-87038045D01*
X121662221Y-86925148D01*
X121682042Y-86800000D01*
X121662221Y-86674852D01*
X121604697Y-86561955D01*
X121592742Y-86550000D01*
X122955928Y-86550000D01*
X122955928Y-86549999D01*
X122903325Y-86353682D01*
X122903321Y-86353673D01*
X122807190Y-86147517D01*
X122676713Y-85961179D01*
X122515876Y-85800342D01*
X122329538Y-85669865D01*
X122271189Y-85642657D01*
X122218750Y-85596484D01*
X122199598Y-85529291D01*
X122219814Y-85462410D01*
X122271185Y-85417895D01*
X122329790Y-85390568D01*
X122516195Y-85260047D01*
X122677103Y-85099139D01*
X122807624Y-84912734D01*
X122903795Y-84706496D01*
X122962691Y-84486692D01*
X122982524Y-84260000D01*
X122962691Y-84033308D01*
X122903795Y-83813504D01*
X122807624Y-83607266D01*
X122677103Y-83420861D01*
X122677101Y-83420858D01*
X122516199Y-83259956D01*
X122491592Y-83242726D01*
X122447968Y-83188149D01*
X122440775Y-83118650D01*
X122472297Y-83056296D01*
X122532527Y-83020882D01*
X122549460Y-83017861D01*
X122584539Y-83014091D01*
X122719387Y-82963796D01*
X122834602Y-82877546D01*
X122920852Y-82762331D01*
X122942929Y-82703137D01*
X122984800Y-82647203D01*
X123050264Y-82622785D01*
X123109547Y-82633189D01*
X123217253Y-82681144D01*
X123402410Y-82720500D01*
X123402411Y-82720500D01*
X123591700Y-82720500D01*
X123591702Y-82720500D01*
X123776859Y-82681144D01*
X123949786Y-82604151D01*
X124102927Y-82492888D01*
X124229589Y-82352216D01*
X124324235Y-82188284D01*
X124382730Y-82008256D01*
X124402516Y-81820000D01*
X124394286Y-81741701D01*
X124406855Y-81672976D01*
X124454587Y-81621952D01*
X124522327Y-81604834D01*
X124543379Y-81607452D01*
X124602410Y-81620000D01*
X124602412Y-81620000D01*
X124791700Y-81620000D01*
X124791702Y-81620000D01*
X124976859Y-81580644D01*
X125149786Y-81503651D01*
X125302927Y-81392388D01*
X125429589Y-81251716D01*
X125524235Y-81087784D01*
X125582730Y-80907756D01*
X125602516Y-80719500D01*
X125582730Y-80531244D01*
X125524235Y-80351216D01*
X125429589Y-80187284D01*
X125302927Y-80046612D01*
X125302926Y-80046611D01*
X125149790Y-79935351D01*
X125149785Y-79935348D01*
X124976863Y-79858357D01*
X124976858Y-79858355D01*
X124831057Y-79827365D01*
X124791702Y-79819000D01*
X124602410Y-79819000D01*
X124569953Y-79825898D01*
X124417253Y-79858355D01*
X124417248Y-79858357D01*
X124244323Y-79935350D01*
X124238698Y-79938598D01*
X124237424Y-79936391D01*
X124182339Y-79956026D01*
X124114290Y-79940178D01*
X124087620Y-79919907D01*
X123293874Y-79126161D01*
X123260389Y-79064838D01*
X123257555Y-79038480D01*
X123257555Y-78020000D01*
X123257555Y-76952347D01*
X123277240Y-76885312D01*
X123330044Y-76839557D01*
X123368301Y-76829061D01*
X123414539Y-76824091D01*
X123549387Y-76773796D01*
X123664602Y-76687546D01*
X123750852Y-76572331D01*
X123801147Y-76437483D01*
X123807556Y-76377873D01*
X123807555Y-76310988D01*
X123827239Y-76243952D01*
X123880042Y-76198196D01*
X123949200Y-76188252D01*
X124012756Y-76217276D01*
X124033130Y-76239867D01*
X124053929Y-76269571D01*
X124053931Y-76269572D01*
X124699102Y-75624400D01*
X124711891Y-75705148D01*
X124769415Y-75818045D01*
X124859011Y-75907641D01*
X124971908Y-75965165D01*
X125052655Y-75977953D01*
X124407482Y-76623124D01*
X124469667Y-76666666D01*
X124469669Y-76666667D01*
X124667896Y-76759101D01*
X124667905Y-76759105D01*
X124879161Y-76815710D01*
X124879171Y-76815712D01*
X125097055Y-76834775D01*
X125097057Y-76834775D01*
X125314940Y-76815712D01*
X125314950Y-76815710D01*
X125526206Y-76759105D01*
X125526215Y-76759101D01*
X125724443Y-76666666D01*
X125786628Y-76623124D01*
X125141457Y-75977953D01*
X125222204Y-75965165D01*
X125335101Y-75907641D01*
X125424697Y-75818045D01*
X125482221Y-75705148D01*
X125495009Y-75624401D01*
X126140180Y-76269572D01*
X126183723Y-76207386D01*
X126183724Y-76207384D01*
X126254397Y-76055825D01*
X126300569Y-76003385D01*
X126367762Y-75984233D01*
X126434643Y-76004448D01*
X126479161Y-76055824D01*
X126549953Y-76207638D01*
X126572520Y-76239867D01*
X126675458Y-76386877D01*
X126830179Y-76541598D01*
X127009417Y-76667102D01*
X127207726Y-76759575D01*
X127419079Y-76816207D01*
X127601982Y-76832208D01*
X127637054Y-76835277D01*
X127637056Y-76835277D01*
X127637058Y-76835277D01*
X127665310Y-76832805D01*
X127855033Y-76816207D01*
X128066386Y-76759575D01*
X128264695Y-76667102D01*
X128420611Y-76557927D01*
X128486814Y-76535602D01*
X128554581Y-76552612D01*
X128590998Y-76585193D01*
X128659865Y-76677187D01*
X128659868Y-76677190D01*
X128774962Y-76763350D01*
X128774969Y-76763354D01*
X128909676Y-76813596D01*
X128909683Y-76813598D01*
X128969211Y-76819999D01*
X128969228Y-76820000D01*
X129517056Y-76820000D01*
X129517056Y-75885686D01*
X129529011Y-75897641D01*
X129641908Y-75955165D01*
X129735575Y-75970000D01*
X129798537Y-75970000D01*
X129892204Y-75955165D01*
X130005101Y-75897641D01*
X130017056Y-75885686D01*
X130017056Y-76820000D01*
X130564884Y-76820000D01*
X130564900Y-76819999D01*
X130624428Y-76813598D01*
X130624435Y-76813596D01*
X130759142Y-76763354D01*
X130759149Y-76763350D01*
X130874243Y-76677190D01*
X130874246Y-76677187D01*
X130960406Y-76562093D01*
X130960410Y-76562086D01*
X131010652Y-76427379D01*
X131010654Y-76427372D01*
X131017055Y-76367844D01*
X131017056Y-76367827D01*
X131017056Y-76301148D01*
X131036741Y-76234109D01*
X131089545Y-76188354D01*
X131158703Y-76178410D01*
X131222259Y-76207435D01*
X131242627Y-76230020D01*
X131345458Y-76376877D01*
X131500179Y-76531598D01*
X131679417Y-76657102D01*
X131877726Y-76749575D01*
X131877732Y-76749576D01*
X131877733Y-76749577D01*
X131905242Y-76756948D01*
X132089079Y-76806207D01*
X132106333Y-76807716D01*
X132171401Y-76833167D01*
X132212381Y-76889757D01*
X132216260Y-76959519D01*
X132183208Y-77018925D01*
X128818955Y-80383181D01*
X128757632Y-80416666D01*
X128731274Y-80419500D01*
X128440272Y-80419500D01*
X128270368Y-80434364D01*
X128270358Y-80434366D01*
X128050567Y-80493258D01*
X128050558Y-80493261D01*
X127844323Y-80589431D01*
X127844321Y-80589432D01*
X127657914Y-80719954D01*
X127497010Y-80880858D01*
X127366488Y-81067265D01*
X127366487Y-81067267D01*
X127270317Y-81273502D01*
X127270314Y-81273511D01*
X127211422Y-81493302D01*
X127211420Y-81493313D01*
X127191588Y-81719998D01*
X127191588Y-81720001D01*
X127211420Y-81946686D01*
X127211422Y-81946697D01*
X127270314Y-82166488D01*
X127270317Y-82166497D01*
X127366487Y-82372732D01*
X127366488Y-82372734D01*
X127497010Y-82559141D01*
X127657914Y-82720045D01*
X127657917Y-82720047D01*
X127844322Y-82850568D01*
X127902331Y-82877618D01*
X127954770Y-82923791D01*
X127973922Y-82990984D01*
X127953706Y-83057865D01*
X127902331Y-83102382D01*
X127844323Y-83129431D01*
X127844321Y-83129432D01*
X127657914Y-83259954D01*
X127497010Y-83420858D01*
X127366488Y-83607265D01*
X127366487Y-83607267D01*
X127270317Y-83813502D01*
X127270314Y-83813511D01*
X127211422Y-84033302D01*
X127211420Y-84033313D01*
X127191588Y-84259998D01*
X127191588Y-84260001D01*
X127211420Y-84486686D01*
X127211422Y-84486697D01*
X127270314Y-84706488D01*
X127270317Y-84706497D01*
X127366487Y-84912732D01*
X127366488Y-84912734D01*
X127497010Y-85099141D01*
X127657914Y-85260045D01*
X127657917Y-85260047D01*
X127844322Y-85390568D01*
X127902331Y-85417618D01*
X127954770Y-85463791D01*
X127973922Y-85530984D01*
X127953706Y-85597865D01*
X127902331Y-85642382D01*
X127844323Y-85669431D01*
X127844321Y-85669432D01*
X127657914Y-85799954D01*
X127497010Y-85960858D01*
X127366488Y-86147265D01*
X127366487Y-86147267D01*
X127270317Y-86353502D01*
X127270314Y-86353511D01*
X127211422Y-86573302D01*
X127211420Y-86573313D01*
X127191588Y-86799998D01*
X127191588Y-86800001D01*
X127211420Y-87026686D01*
X127211422Y-87026697D01*
X127270314Y-87246488D01*
X127270317Y-87246497D01*
X127366487Y-87452732D01*
X127366488Y-87452734D01*
X127497010Y-87639141D01*
X127657914Y-87800045D01*
X127657917Y-87800047D01*
X127844322Y-87930568D01*
X127901737Y-87957341D01*
X127902331Y-87957618D01*
X127954770Y-88003791D01*
X127973922Y-88070984D01*
X127953706Y-88137865D01*
X127902331Y-88182382D01*
X127844323Y-88209431D01*
X127844321Y-88209432D01*
X127657914Y-88339954D01*
X127497010Y-88500858D01*
X127366488Y-88687265D01*
X127366487Y-88687267D01*
X127270317Y-88893502D01*
X127270314Y-88893511D01*
X127211422Y-89113302D01*
X127211420Y-89113313D01*
X127191588Y-89339998D01*
X127191588Y-89340001D01*
X127211420Y-89566686D01*
X127211422Y-89566697D01*
X127270314Y-89786488D01*
X127270317Y-89786497D01*
X127366487Y-89992732D01*
X127366488Y-89992734D01*
X127497010Y-90179141D01*
X127657914Y-90340045D01*
X127668007Y-90347112D01*
X127844322Y-90470568D01*
X128050560Y-90566739D01*
X128270364Y-90625635D01*
X128440272Y-90640500D01*
X129353840Y-90640500D01*
X129523748Y-90625635D01*
X129743552Y-90566739D01*
X129949790Y-90470568D01*
X130136195Y-90340047D01*
X130297103Y-90179139D01*
X130427624Y-89992734D01*
X130523795Y-89786496D01*
X130582691Y-89566692D01*
X130602524Y-89340000D01*
X130582691Y-89113308D01*
X130523795Y-88893504D01*
X130427624Y-88687266D01*
X130297103Y-88500861D01*
X130297101Y-88500858D01*
X130136197Y-88339954D01*
X129949790Y-88209432D01*
X129949784Y-88209429D01*
X129891781Y-88182382D01*
X129839341Y-88136210D01*
X129820189Y-88069017D01*
X129840404Y-88002135D01*
X129891781Y-87957618D01*
X129892375Y-87957341D01*
X129949790Y-87930568D01*
X130136195Y-87800047D01*
X130297103Y-87639139D01*
X130427624Y-87452734D01*
X130523795Y-87246496D01*
X130582691Y-87026692D01*
X130597011Y-86863011D01*
X130622463Y-86797943D01*
X130679054Y-86756964D01*
X130748816Y-86753086D01*
X130770975Y-86760540D01*
X130817248Y-86781142D01*
X130817253Y-86781144D01*
X131002410Y-86820500D01*
X131002411Y-86820500D01*
X131191700Y-86820500D01*
X131191702Y-86820500D01*
X131376859Y-86781144D01*
X131549786Y-86704151D01*
X131702927Y-86592888D01*
X131829589Y-86452216D01*
X131924235Y-86288284D01*
X131982730Y-86108256D01*
X132002516Y-85920000D01*
X131982730Y-85731744D01*
X131924235Y-85551716D01*
X131829589Y-85387784D01*
X131702927Y-85247112D01*
X131702926Y-85247111D01*
X131549790Y-85135851D01*
X131549785Y-85135848D01*
X131376863Y-85058857D01*
X131376858Y-85058855D01*
X131221927Y-85025924D01*
X131160445Y-84992732D01*
X131160027Y-84992315D01*
X130629346Y-84461633D01*
X130595861Y-84400310D01*
X130593499Y-84363148D01*
X130602524Y-84260000D01*
X130582691Y-84033308D01*
X130523795Y-83813504D01*
X130427624Y-83607266D01*
X130297103Y-83420861D01*
X130297101Y-83420858D01*
X130136197Y-83259954D01*
X129949790Y-83129432D01*
X129949784Y-83129429D01*
X129891781Y-83102382D01*
X129839341Y-83056210D01*
X129820189Y-82989017D01*
X129840404Y-82922135D01*
X129891781Y-82877618D01*
X129949790Y-82850568D01*
X130136195Y-82720047D01*
X130297103Y-82559139D01*
X130427624Y-82372734D01*
X130523795Y-82166496D01*
X130582691Y-81946692D01*
X130602524Y-81720000D01*
X130584188Y-81510425D01*
X130597954Y-81441929D01*
X130620032Y-81411943D01*
X133475156Y-78556819D01*
X133536480Y-78523334D01*
X133562838Y-78520500D01*
X135447799Y-78520500D01*
X135599495Y-78505074D01*
X135793635Y-78444162D01*
X135793636Y-78444161D01*
X135793644Y-78444159D01*
X135971558Y-78345409D01*
X136125951Y-78212866D01*
X136250504Y-78051958D01*
X136340116Y-77869271D01*
X136391119Y-77672285D01*
X136401425Y-77469064D01*
X136370612Y-77267929D01*
X136299942Y-77077113D01*
X136192308Y-76904429D01*
X136098940Y-76806207D01*
X136052117Y-76756949D01*
X136052116Y-76756948D01*
X136052115Y-76756947D01*
X135885105Y-76640705D01*
X135885104Y-76640704D01*
X135885102Y-76640703D01*
X135815225Y-76610716D01*
X135761382Y-76566189D01*
X135740159Y-76499621D01*
X135758295Y-76432146D01*
X135776442Y-76409088D01*
X135808654Y-76376877D01*
X135934158Y-76197639D01*
X136026631Y-75999330D01*
X136083263Y-75787977D01*
X136102333Y-75570000D01*
X136083263Y-75352023D01*
X136038465Y-75184835D01*
X136026633Y-75140677D01*
X136026632Y-75140676D01*
X136026631Y-75140670D01*
X135934158Y-74942362D01*
X135934156Y-74942359D01*
X135934155Y-74942357D01*
X135808655Y-74763124D01*
X135742495Y-74696964D01*
X135653933Y-74608402D01*
X135489598Y-74493333D01*
X135474694Y-74482897D01*
X135298845Y-74400898D01*
X135276386Y-74390425D01*
X135276382Y-74390424D01*
X135276378Y-74390422D01*
X135065033Y-74333793D01*
X134847058Y-74314723D01*
X134847054Y-74314723D01*
X134732752Y-74324723D01*
X134629079Y-74333793D01*
X134629076Y-74333793D01*
X134417733Y-74390422D01*
X134417724Y-74390426D01*
X134219417Y-74482898D01*
X134219413Y-74482900D01*
X134040177Y-74608402D01*
X133885458Y-74763121D01*
X133759956Y-74942357D01*
X133759954Y-74942361D01*
X133689438Y-75093583D01*
X133643265Y-75146022D01*
X133576072Y-75165174D01*
X133509191Y-75144958D01*
X133464674Y-75093583D01*
X133440861Y-75042516D01*
X133394158Y-74942362D01*
X133394156Y-74942359D01*
X133394155Y-74942357D01*
X133268655Y-74763124D01*
X133202495Y-74696964D01*
X133113933Y-74608402D01*
X132949598Y-74493333D01*
X132934694Y-74482897D01*
X132758845Y-74400898D01*
X132736386Y-74390425D01*
X132736382Y-74390424D01*
X132736378Y-74390422D01*
X132525033Y-74333793D01*
X132307058Y-74314723D01*
X132307054Y-74314723D01*
X132192752Y-74324723D01*
X132089079Y-74333793D01*
X132089076Y-74333793D01*
X131877733Y-74390422D01*
X131877724Y-74390426D01*
X131679417Y-74482898D01*
X131679413Y-74482900D01*
X131500177Y-74608402D01*
X131345458Y-74763121D01*
X131242631Y-74909975D01*
X131188054Y-74953600D01*
X131118556Y-74960794D01*
X131056201Y-74929271D01*
X131020787Y-74869041D01*
X131017056Y-74838852D01*
X131017056Y-74772172D01*
X131017055Y-74772155D01*
X131010654Y-74712627D01*
X131010652Y-74712620D01*
X130960410Y-74577913D01*
X130960406Y-74577906D01*
X130874246Y-74462812D01*
X130874243Y-74462809D01*
X130759149Y-74376649D01*
X130759142Y-74376645D01*
X130624435Y-74326403D01*
X130624428Y-74326401D01*
X130564900Y-74320000D01*
X130017056Y-74320000D01*
X130017056Y-75254314D01*
X130005101Y-75242359D01*
X129892204Y-75184835D01*
X129798537Y-75170000D01*
X129735575Y-75170000D01*
X129641908Y-75184835D01*
X129529011Y-75242359D01*
X129517056Y-75254313D01*
X129517056Y-74320000D01*
X128969211Y-74320000D01*
X128909683Y-74326401D01*
X128909676Y-74326403D01*
X128774969Y-74376645D01*
X128774962Y-74376649D01*
X128659868Y-74462809D01*
X128581174Y-74567929D01*
X128525239Y-74609800D01*
X128455548Y-74614783D01*
X128410788Y-74595194D01*
X128293570Y-74513116D01*
X128264694Y-74492897D01*
X128165540Y-74446661D01*
X128066386Y-74400425D01*
X128066382Y-74400424D01*
X128066378Y-74400422D01*
X127855033Y-74343793D01*
X127637058Y-74324723D01*
X127637054Y-74324723D01*
X127509207Y-74335908D01*
X127419079Y-74343793D01*
X127419076Y-74343793D01*
X127207733Y-74400422D01*
X127207724Y-74400426D01*
X127009417Y-74492898D01*
X127009413Y-74492900D01*
X126830177Y-74618402D01*
X126675458Y-74773121D01*
X126549956Y-74952357D01*
X126549956Y-74952358D01*
X126549954Y-74952361D01*
X126549954Y-74952362D01*
X126541284Y-74970954D01*
X126479161Y-75104176D01*
X126432988Y-75156615D01*
X126365794Y-75175766D01*
X126298913Y-75155550D01*
X126254397Y-75104174D01*
X126183725Y-74952617D01*
X126140179Y-74890427D01*
X125495009Y-75535597D01*
X125482221Y-75454852D01*
X125424697Y-75341955D01*
X125335101Y-75252359D01*
X125222204Y-75194835D01*
X125141457Y-75182046D01*
X125786628Y-74536875D01*
X125786627Y-74536873D01*
X125724447Y-74493335D01*
X125526215Y-74400898D01*
X125526206Y-74400894D01*
X125314950Y-74344289D01*
X125314940Y-74344287D01*
X125097057Y-74325225D01*
X125097055Y-74325225D01*
X124879171Y-74344287D01*
X124879161Y-74344289D01*
X124667905Y-74400894D01*
X124667896Y-74400898D01*
X124469670Y-74493332D01*
X124469668Y-74493333D01*
X124407484Y-74536875D01*
X124407483Y-74536875D01*
X125052655Y-75182046D01*
X124971908Y-75194835D01*
X124859011Y-75252359D01*
X124769415Y-75341955D01*
X124711891Y-75454852D01*
X124699102Y-75535598D01*
X124053931Y-74890427D01*
X124053930Y-74890428D01*
X124033130Y-74920135D01*
X123978553Y-74963760D01*
X123909055Y-74970954D01*
X123846700Y-74939431D01*
X123811286Y-74879202D01*
X123807555Y-74849012D01*
X123807555Y-74782129D01*
X123807554Y-74782123D01*
X123807553Y-74782116D01*
X123801147Y-74722517D01*
X123797458Y-74712627D01*
X123750853Y-74587671D01*
X123750849Y-74587664D01*
X123664603Y-74472455D01*
X123664600Y-74472452D01*
X123549391Y-74386206D01*
X123549384Y-74386202D01*
X123414538Y-74335908D01*
X123414539Y-74335908D01*
X123354939Y-74329501D01*
X123354937Y-74329500D01*
X123354929Y-74329500D01*
X123354920Y-74329500D01*
X121759185Y-74329500D01*
X121759179Y-74329501D01*
X121699572Y-74335908D01*
X121564727Y-74386202D01*
X121564720Y-74386206D01*
X121449511Y-74472452D01*
X121379116Y-74566487D01*
X121323182Y-74608357D01*
X121253490Y-74613341D01*
X121208727Y-74593750D01*
X121064699Y-74492900D01*
X121064695Y-74492898D01*
X121020855Y-74472455D01*
X120866386Y-74400425D01*
X120866382Y-74400424D01*
X120866378Y-74400422D01*
X120655033Y-74343793D01*
X120437058Y-74324723D01*
X120437054Y-74324723D01*
X120309207Y-74335908D01*
X120219079Y-74343793D01*
X120219076Y-74343793D01*
X120007733Y-74400422D01*
X120007724Y-74400426D01*
X119809417Y-74492898D01*
X119809413Y-74492900D01*
X119630177Y-74618402D01*
X119475458Y-74773121D01*
X119349956Y-74952357D01*
X119349956Y-74952358D01*
X119279437Y-75103584D01*
X119233264Y-75156023D01*
X119166070Y-75175174D01*
X119099189Y-75154958D01*
X119054674Y-75103584D01*
X118984158Y-74952362D01*
X118984155Y-74952358D01*
X118984155Y-74952357D01*
X118858655Y-74773124D01*
X118782495Y-74696964D01*
X118703933Y-74618402D01*
X118566034Y-74521844D01*
X118524694Y-74492897D01*
X118425540Y-74446661D01*
X118326386Y-74400425D01*
X118326382Y-74400424D01*
X118326378Y-74400422D01*
X118115033Y-74343793D01*
X117897058Y-74324723D01*
X117897054Y-74324723D01*
X117769207Y-74335908D01*
X117679079Y-74343793D01*
X117679076Y-74343793D01*
X117467733Y-74400422D01*
X117467724Y-74400426D01*
X117269417Y-74492898D01*
X117269413Y-74492900D01*
X117090177Y-74618402D01*
X116935458Y-74773121D01*
X116833130Y-74919262D01*
X116778553Y-74962887D01*
X116709055Y-74970081D01*
X116646700Y-74938558D01*
X116611286Y-74878328D01*
X116607555Y-74848139D01*
X116607555Y-74782129D01*
X116607554Y-74782123D01*
X116607553Y-74782116D01*
X116601147Y-74722517D01*
X116597458Y-74712627D01*
X116550853Y-74587671D01*
X116550849Y-74587664D01*
X116464603Y-74472455D01*
X116464600Y-74472452D01*
X116349391Y-74386206D01*
X116349384Y-74386202D01*
X116214538Y-74335908D01*
X116214539Y-74335908D01*
X116154939Y-74329501D01*
X116154937Y-74329500D01*
X116154929Y-74329500D01*
X116154920Y-74329500D01*
X114559185Y-74329500D01*
X114559179Y-74329501D01*
X114499572Y-74335908D01*
X114364727Y-74386202D01*
X114364720Y-74386206D01*
X114249511Y-74472452D01*
X114249508Y-74472455D01*
X114163262Y-74587664D01*
X114163258Y-74587671D01*
X114112964Y-74722517D01*
X114108599Y-74763121D01*
X114106557Y-74782123D01*
X114106556Y-74782135D01*
X114106556Y-76377870D01*
X114106557Y-76377876D01*
X114112964Y-76437483D01*
X114163258Y-76572328D01*
X114163262Y-76572335D01*
X114249508Y-76687544D01*
X114249511Y-76687547D01*
X114364720Y-76773793D01*
X114364727Y-76773797D01*
X114499573Y-76824091D01*
X114499572Y-76824091D01*
X114506500Y-76824835D01*
X114559183Y-76830500D01*
X115565536Y-76830499D01*
X115632575Y-76850183D01*
X115653217Y-76866818D01*
X119542563Y-80756164D01*
X119576048Y-80817487D01*
X119578172Y-80857097D01*
X119576556Y-80872127D01*
X119576556Y-82567870D01*
X119576557Y-82567876D01*
X119582964Y-82627483D01*
X119633258Y-82762328D01*
X119633262Y-82762335D01*
X119719508Y-82877544D01*
X119719511Y-82877547D01*
X119834720Y-82963793D01*
X119834727Y-82963797D01*
X119879674Y-82980561D01*
X119969573Y-83014091D01*
X120004652Y-83017862D01*
X120069200Y-83044599D01*
X120109049Y-83101991D01*
X120111544Y-83171816D01*
X120075892Y-83231905D01*
X120062520Y-83242725D01*
X120037914Y-83259954D01*
X119877010Y-83420858D01*
X119746488Y-83607265D01*
X119746487Y-83607267D01*
X119650317Y-83813502D01*
X119650314Y-83813511D01*
X119591422Y-84033302D01*
X119591420Y-84033313D01*
X119571588Y-84259998D01*
X119571588Y-84260001D01*
X119591420Y-84486686D01*
X119591422Y-84486697D01*
X119650314Y-84706488D01*
X119650317Y-84706497D01*
X119746487Y-84912732D01*
X119746488Y-84912734D01*
X119877010Y-85099141D01*
X120037914Y-85260045D01*
X120037917Y-85260047D01*
X120224322Y-85390568D01*
X120282921Y-85417893D01*
X120335361Y-85464065D01*
X120354513Y-85531258D01*
X120334298Y-85598139D01*
X120282923Y-85642657D01*
X120224571Y-85669867D01*
X120038235Y-85800342D01*
X119877398Y-85961179D01*
X119746921Y-86147517D01*
X119650790Y-86353673D01*
X119650786Y-86353682D01*
X119598183Y-86549999D01*
X119598184Y-86550000D01*
X120961370Y-86550000D01*
X120949415Y-86561955D01*
X120891891Y-86674852D01*
X120872070Y-86800000D01*
X120891891Y-86925148D01*
X120949415Y-87038045D01*
X120961370Y-87050000D01*
X119598184Y-87050000D01*
X119650786Y-87246317D01*
X119650790Y-87246326D01*
X119746921Y-87452482D01*
X119877398Y-87638820D01*
X120038235Y-87799657D01*
X120224574Y-87930134D01*
X120224576Y-87930135D01*
X120282921Y-87957342D01*
X120335361Y-88003514D01*
X120354513Y-88070707D01*
X120334298Y-88137589D01*
X120282923Y-88182105D01*
X120224324Y-88209431D01*
X120224320Y-88209433D01*
X120037914Y-88339954D01*
X119877010Y-88500858D01*
X119746488Y-88687265D01*
X119746487Y-88687267D01*
X119650317Y-88893502D01*
X119650314Y-88893511D01*
X119591422Y-89113302D01*
X119591420Y-89113313D01*
X119571588Y-89339998D01*
X119571588Y-89340000D01*
X119591421Y-89566692D01*
X119591423Y-89566699D01*
X119608454Y-89630264D01*
X119606790Y-89700114D01*
X119576360Y-89750037D01*
X119043218Y-90283181D01*
X118981895Y-90316666D01*
X118955537Y-90319500D01*
X117105212Y-90319500D01*
X117038173Y-90299815D01*
X117032327Y-90295818D01*
X116949790Y-90235851D01*
X116949785Y-90235848D01*
X116776863Y-90158857D01*
X116776858Y-90158855D01*
X116631056Y-90127865D01*
X116591702Y-90119500D01*
X116402410Y-90119500D01*
X116369953Y-90126398D01*
X116217253Y-90158855D01*
X116217248Y-90158857D01*
X116044326Y-90235848D01*
X116044321Y-90235851D01*
X115891185Y-90347111D01*
X115764522Y-90487785D01*
X115669877Y-90651715D01*
X115669874Y-90651722D01*
X115611383Y-90831740D01*
X115611382Y-90831744D01*
X115591596Y-91020000D01*
X115611382Y-91208256D01*
X115611383Y-91208259D01*
X115669874Y-91388277D01*
X115669877Y-91388284D01*
X115764523Y-91552216D01*
X115891185Y-91692888D01*
X116044326Y-91804151D01*
X116217253Y-91881144D01*
X116402410Y-91920500D01*
X116402411Y-91920500D01*
X116591700Y-91920500D01*
X116591702Y-91920500D01*
X116744814Y-91887955D01*
X116814479Y-91893271D01*
X116870213Y-91935408D01*
X116894318Y-92000988D01*
X116879141Y-92069189D01*
X116846756Y-92107098D01*
X116745274Y-92186085D01*
X116745272Y-92186086D01*
X116745272Y-92186087D01*
X116588077Y-92356847D01*
X116588075Y-92356849D01*
X116588073Y-92356852D01*
X116550863Y-92413805D01*
X116497715Y-92459161D01*
X116428484Y-92468583D01*
X116365149Y-92439081D01*
X116343246Y-92413803D01*
X116306039Y-92356852D01*
X116306036Y-92356849D01*
X116306035Y-92356847D01*
X116148840Y-92186087D01*
X116148835Y-92186083D01*
X116148833Y-92186081D01*
X115965690Y-92043535D01*
X115965684Y-92043531D01*
X115930996Y-92024759D01*
X115929054Y-92022831D01*
X115923464Y-92020682D01*
X115859460Y-91986045D01*
X115761560Y-91933064D01*
X115761551Y-91933061D01*
X115542040Y-91857702D01*
X115370337Y-91829050D01*
X115313105Y-91819500D01*
X115081007Y-91819500D01*
X115035220Y-91827140D01*
X114852071Y-91857702D01*
X114632560Y-91933061D01*
X114632551Y-91933064D01*
X114428427Y-92043531D01*
X114428421Y-92043535D01*
X114245278Y-92186081D01*
X114245275Y-92186084D01*
X114088072Y-92356852D01*
X113961131Y-92551151D01*
X113867898Y-92763699D01*
X113810922Y-92988691D01*
X113810920Y-92988702D01*
X113791756Y-93219993D01*
X113791756Y-93220006D01*
X100000500Y-93220006D01*
X100000500Y-78540000D01*
X102144341Y-78540000D01*
X102164936Y-78775403D01*
X102164938Y-78775413D01*
X102226094Y-79003655D01*
X102226096Y-79003659D01*
X102226097Y-79003663D01*
X102265325Y-79087787D01*
X102325965Y-79217830D01*
X102325967Y-79217834D01*
X102349696Y-79251722D01*
X102461505Y-79411401D01*
X102628599Y-79578495D01*
X102723021Y-79644610D01*
X102822165Y-79714032D01*
X102822167Y-79714033D01*
X102822170Y-79714035D01*
X103036337Y-79813903D01*
X103036343Y-79813904D01*
X103036344Y-79813905D01*
X103091285Y-79828626D01*
X103264592Y-79875063D01*
X103452918Y-79891539D01*
X103499999Y-79895659D01*
X103500000Y-79895659D01*
X103500001Y-79895659D01*
X103539234Y-79892226D01*
X103735408Y-79875063D01*
X103963663Y-79813903D01*
X104177830Y-79714035D01*
X104312126Y-79620000D01*
X108591596Y-79620000D01*
X108611382Y-79808256D01*
X108611383Y-79808259D01*
X108669874Y-79988277D01*
X108669877Y-79988284D01*
X108764523Y-80152216D01*
X108891185Y-80292887D01*
X108891185Y-80292888D01*
X109044321Y-80404148D01*
X109044326Y-80404151D01*
X109217248Y-80481142D01*
X109217253Y-80481144D01*
X109402410Y-80520500D01*
X109402411Y-80520500D01*
X109591700Y-80520500D01*
X109591702Y-80520500D01*
X109776859Y-80481144D01*
X109949786Y-80404151D01*
X110102927Y-80292888D01*
X110229589Y-80152216D01*
X110324235Y-79988284D01*
X110329124Y-79973235D01*
X110368562Y-79915560D01*
X110432921Y-79888361D01*
X110501767Y-79900275D01*
X110553243Y-79947520D01*
X110564987Y-79973235D01*
X110569874Y-79988278D01*
X110569877Y-79988284D01*
X110664523Y-80152216D01*
X110791185Y-80292887D01*
X110791185Y-80292888D01*
X110944321Y-80404148D01*
X110944326Y-80404151D01*
X111117248Y-80481142D01*
X111117253Y-80481144D01*
X111302410Y-80520500D01*
X111302411Y-80520500D01*
X111491700Y-80520500D01*
X111491702Y-80520500D01*
X111676859Y-80481144D01*
X111849786Y-80404151D01*
X112002927Y-80292888D01*
X112129589Y-80152216D01*
X112224235Y-79988284D01*
X112282730Y-79808256D01*
X112302516Y-79620000D01*
X112282730Y-79431744D01*
X112224235Y-79251716D01*
X112129589Y-79087784D01*
X112129400Y-79087574D01*
X112129329Y-79087427D01*
X112125770Y-79082528D01*
X112126666Y-79081876D01*
X112099175Y-79024580D01*
X112097556Y-79004608D01*
X112097556Y-78535391D01*
X112117241Y-78468352D01*
X112129408Y-78452417D01*
X112129589Y-78452216D01*
X112224235Y-78288284D01*
X112282730Y-78108256D01*
X112302516Y-77920000D01*
X112282730Y-77731744D01*
X112224235Y-77551716D01*
X112129589Y-77387784D01*
X112002927Y-77247112D01*
X111987425Y-77235849D01*
X111849790Y-77135851D01*
X111849785Y-77135848D01*
X111676863Y-77058857D01*
X111676858Y-77058855D01*
X111531056Y-77027865D01*
X111491702Y-77019500D01*
X111302410Y-77019500D01*
X111269953Y-77026398D01*
X111117253Y-77058855D01*
X111117248Y-77058857D01*
X110944326Y-77135848D01*
X110944321Y-77135851D01*
X110791185Y-77247111D01*
X110664522Y-77387785D01*
X110569877Y-77551715D01*
X110569875Y-77551719D01*
X110546690Y-77623077D01*
X110507252Y-77680752D01*
X110442893Y-77707950D01*
X110374047Y-77696035D01*
X110322571Y-77648791D01*
X110321395Y-77646798D01*
X110229589Y-77487784D01*
X110102927Y-77347112D01*
X110097006Y-77342810D01*
X109949790Y-77235851D01*
X109949785Y-77235848D01*
X109776863Y-77158857D01*
X109776858Y-77158855D01*
X109631057Y-77127865D01*
X109591702Y-77119500D01*
X109402410Y-77119500D01*
X109369953Y-77126398D01*
X109217253Y-77158855D01*
X109217248Y-77158857D01*
X109044326Y-77235848D01*
X109044321Y-77235851D01*
X108891185Y-77347111D01*
X108764522Y-77487785D01*
X108669877Y-77651715D01*
X108669874Y-77651722D01*
X108611383Y-77831740D01*
X108611382Y-77831744D01*
X108591596Y-78020000D01*
X108611382Y-78208256D01*
X108611383Y-78208259D01*
X108669874Y-78388277D01*
X108669877Y-78388284D01*
X108764522Y-78552215D01*
X108764704Y-78552417D01*
X108764772Y-78552559D01*
X108768341Y-78557471D01*
X108767442Y-78558123D01*
X108794935Y-78615408D01*
X108796556Y-78635391D01*
X108796556Y-79004608D01*
X108776871Y-79071647D01*
X108764712Y-79087574D01*
X108764524Y-79087782D01*
X108764520Y-79087787D01*
X108669877Y-79251715D01*
X108669874Y-79251722D01*
X108614352Y-79422603D01*
X108611382Y-79431744D01*
X108591596Y-79620000D01*
X104312126Y-79620000D01*
X104371401Y-79578495D01*
X104538495Y-79411401D01*
X104674035Y-79217830D01*
X104773903Y-79003663D01*
X104835063Y-78775408D01*
X104855659Y-78540000D01*
X104835063Y-78304592D01*
X104773903Y-78076337D01*
X104674035Y-77862171D01*
X104582709Y-77731744D01*
X104538496Y-77668600D01*
X104492973Y-77623077D01*
X104416567Y-77546671D01*
X104383084Y-77485351D01*
X104388068Y-77415659D01*
X104429939Y-77359725D01*
X104460915Y-77342810D01*
X104592331Y-77293796D01*
X104707546Y-77207546D01*
X104793796Y-77092331D01*
X104844091Y-76957483D01*
X104850500Y-76897873D01*
X104850499Y-75102128D01*
X104844091Y-75042517D01*
X104813610Y-74960794D01*
X104793797Y-74907671D01*
X104793793Y-74907664D01*
X104707547Y-74792455D01*
X104707544Y-74792452D01*
X104592335Y-74706206D01*
X104592328Y-74706202D01*
X104457482Y-74655908D01*
X104457483Y-74655908D01*
X104397883Y-74649501D01*
X104397881Y-74649500D01*
X104397873Y-74649500D01*
X104397864Y-74649500D01*
X102602129Y-74649500D01*
X102602123Y-74649501D01*
X102542516Y-74655908D01*
X102407671Y-74706202D01*
X102407664Y-74706206D01*
X102292455Y-74792452D01*
X102292452Y-74792455D01*
X102206206Y-74907664D01*
X102206202Y-74907671D01*
X102155908Y-75042517D01*
X102149501Y-75102116D01*
X102149501Y-75102123D01*
X102149500Y-75102135D01*
X102149500Y-76897870D01*
X102149501Y-76897876D01*
X102155908Y-76957483D01*
X102206202Y-77092328D01*
X102206206Y-77092335D01*
X102292452Y-77207544D01*
X102292455Y-77207547D01*
X102407664Y-77293793D01*
X102407671Y-77293797D01*
X102539081Y-77342810D01*
X102595015Y-77384681D01*
X102619432Y-77450145D01*
X102604580Y-77518418D01*
X102583430Y-77546673D01*
X102461503Y-77668600D01*
X102325965Y-77862169D01*
X102325964Y-77862171D01*
X102226098Y-78076335D01*
X102226094Y-78076344D01*
X102164938Y-78304586D01*
X102164936Y-78304596D01*
X102144341Y-78539999D01*
X102144341Y-78540000D01*
X100000500Y-78540000D01*
X100000500Y-69945477D01*
X114591718Y-69945477D01*
X114617424Y-70147321D01*
X114617426Y-70147329D01*
X114683239Y-70339870D01*
X114683245Y-70339882D01*
X114786462Y-70515221D01*
X114786467Y-70515228D01*
X114922876Y-70666212D01*
X115086884Y-70786646D01*
X115086888Y-70786648D01*
X115086889Y-70786649D01*
X115271788Y-70871605D01*
X115336620Y-70886650D01*
X115470001Y-70917603D01*
X115673414Y-70922757D01*
X115673414Y-70922756D01*
X115673419Y-70922757D01*
X115852909Y-70890586D01*
X115873704Y-70886859D01*
X115873704Y-70886858D01*
X115873709Y-70886858D01*
X116062673Y-70811377D01*
X116225138Y-70704303D01*
X116291944Y-70683848D01*
X116359206Y-70702759D01*
X116385383Y-70724713D01*
X116422877Y-70766213D01*
X116468072Y-70799400D01*
X116586884Y-70886646D01*
X116586891Y-70886650D01*
X116665474Y-70922757D01*
X116771788Y-70971605D01*
X116837512Y-70986857D01*
X116970001Y-71017603D01*
X117173414Y-71022757D01*
X117173414Y-71022756D01*
X117173419Y-71022757D01*
X117352908Y-70990586D01*
X117373704Y-70986859D01*
X117373704Y-70986858D01*
X117373709Y-70986858D01*
X117562673Y-70911377D01*
X117623025Y-70871602D01*
X117714405Y-70811377D01*
X117732575Y-70799402D01*
X119260524Y-69271451D01*
X119325109Y-69210059D01*
X119360155Y-69159706D01*
X119362994Y-69155941D01*
X119377684Y-69137925D01*
X119401754Y-69108407D01*
X119417657Y-69077960D01*
X119421730Y-69071239D01*
X119430785Y-69058229D01*
X119441351Y-69043049D01*
X119465548Y-68986660D01*
X119467554Y-68982435D01*
X119495965Y-68928049D01*
X119505416Y-68895015D01*
X119508047Y-68887628D01*
X119521596Y-68856058D01*
X119533949Y-68795940D01*
X119535062Y-68791412D01*
X119551943Y-68732418D01*
X119554551Y-68698155D01*
X119555643Y-68690376D01*
X119562556Y-68656739D01*
X119562556Y-68595401D01*
X119562735Y-68590692D01*
X119567393Y-68529526D01*
X119563053Y-68495442D01*
X119562556Y-68487603D01*
X119562556Y-68115001D01*
X119876894Y-68115001D01*
X119895506Y-68327741D01*
X119895508Y-68327752D01*
X119950777Y-68534022D01*
X119950779Y-68534026D01*
X119950780Y-68534030D01*
X119977202Y-68590692D01*
X120041033Y-68727578D01*
X120163528Y-68902521D01*
X120314534Y-69053527D01*
X120314537Y-69053529D01*
X120489475Y-69176021D01*
X120489477Y-69176022D01*
X120489476Y-69176022D01*
X120553992Y-69206106D01*
X120683026Y-69266276D01*
X120683032Y-69266277D01*
X120683033Y-69266278D01*
X120702339Y-69271451D01*
X120889309Y-69321549D01*
X121041271Y-69334843D01*
X121102054Y-69340162D01*
X121102056Y-69340162D01*
X121102058Y-69340162D01*
X121155242Y-69335508D01*
X121314803Y-69321549D01*
X121521086Y-69266276D01*
X121714637Y-69176021D01*
X121769044Y-69137924D01*
X121835250Y-69115598D01*
X121840167Y-69115500D01*
X124009340Y-69115500D01*
X124098414Y-69117757D01*
X124098414Y-69117756D01*
X124098419Y-69117757D01*
X124158809Y-69106932D01*
X124163468Y-69106280D01*
X124205663Y-69101988D01*
X124224494Y-69100074D01*
X124257283Y-69089786D01*
X124264896Y-69087918D01*
X124298709Y-69081858D01*
X124355677Y-69059101D01*
X124360109Y-69057524D01*
X124372842Y-69053529D01*
X124418644Y-69039159D01*
X124448683Y-69022484D01*
X124455764Y-69019122D01*
X124487673Y-69006377D01*
X124538910Y-68972608D01*
X124542907Y-68970187D01*
X124596558Y-68940409D01*
X124622624Y-68918030D01*
X124628899Y-68913300D01*
X124657575Y-68894402D01*
X124700973Y-68851002D01*
X124704392Y-68847834D01*
X124750951Y-68807866D01*
X124771987Y-68780688D01*
X124777157Y-68774818D01*
X125436974Y-68115001D01*
X127876894Y-68115001D01*
X127895506Y-68327741D01*
X127895508Y-68327752D01*
X127950777Y-68534022D01*
X127950779Y-68534026D01*
X127950780Y-68534030D01*
X127977202Y-68590692D01*
X128041033Y-68727578D01*
X128163528Y-68902521D01*
X128314534Y-69053527D01*
X128314537Y-69053529D01*
X128489475Y-69176021D01*
X128489477Y-69176022D01*
X128489476Y-69176022D01*
X128553992Y-69206106D01*
X128683026Y-69266276D01*
X128683032Y-69266277D01*
X128683033Y-69266278D01*
X128702339Y-69271451D01*
X128889309Y-69321549D01*
X129041271Y-69334843D01*
X129102054Y-69340162D01*
X129102056Y-69340162D01*
X129102058Y-69340162D01*
X129155242Y-69335508D01*
X129314803Y-69321549D01*
X129521086Y-69266276D01*
X129714637Y-69176021D01*
X129889575Y-69053529D01*
X130040585Y-68902519D01*
X130163077Y-68727581D01*
X130253332Y-68534030D01*
X130308605Y-68327747D01*
X130327218Y-68115000D01*
X130308605Y-67902253D01*
X130253332Y-67695970D01*
X130163077Y-67502419D01*
X130040585Y-67327481D01*
X130040583Y-67327478D01*
X129889577Y-67176472D01*
X129714634Y-67053977D01*
X129714635Y-67053977D01*
X129561160Y-66982411D01*
X129521086Y-66963724D01*
X129521082Y-66963723D01*
X129521078Y-66963721D01*
X129314808Y-66908452D01*
X129314804Y-66908451D01*
X129314803Y-66908451D01*
X129314802Y-66908450D01*
X129314797Y-66908450D01*
X129102058Y-66889838D01*
X129102054Y-66889838D01*
X128889314Y-66908450D01*
X128889303Y-66908452D01*
X128683033Y-66963721D01*
X128683024Y-66963725D01*
X128489477Y-67053977D01*
X128314534Y-67176472D01*
X128163528Y-67327478D01*
X128041033Y-67502421D01*
X127950781Y-67695968D01*
X127950777Y-67695977D01*
X127895508Y-67902247D01*
X127895506Y-67902258D01*
X127876894Y-68114998D01*
X127876894Y-68115001D01*
X125436974Y-68115001D01*
X126745332Y-66806643D01*
X126800916Y-66774552D01*
X126981086Y-66726276D01*
X127174637Y-66636021D01*
X127349575Y-66513529D01*
X127500585Y-66362519D01*
X127623077Y-66187581D01*
X127713332Y-65994030D01*
X127768605Y-65787747D01*
X127787218Y-65575001D01*
X130416894Y-65575001D01*
X130435506Y-65787741D01*
X130435508Y-65787752D01*
X130490777Y-65994022D01*
X130490779Y-65994026D01*
X130490780Y-65994030D01*
X130521389Y-66059670D01*
X130581033Y-66187578D01*
X130703528Y-66362521D01*
X130854534Y-66513527D01*
X130854537Y-66513529D01*
X131029475Y-66636021D01*
X131029477Y-66636022D01*
X131029476Y-66636022D01*
X131093992Y-66666106D01*
X131223026Y-66726276D01*
X131429309Y-66781549D01*
X131581271Y-66794843D01*
X131642054Y-66800162D01*
X131642056Y-66800162D01*
X131642058Y-66800162D01*
X131699926Y-66795099D01*
X131854803Y-66781549D01*
X132061086Y-66726276D01*
X132254637Y-66636021D01*
X132429575Y-66513529D01*
X132580585Y-66362519D01*
X132703077Y-66187581D01*
X132793332Y-65994030D01*
X132848605Y-65787747D01*
X132867218Y-65575000D01*
X132848605Y-65362253D01*
X132795736Y-65164941D01*
X132793334Y-65155977D01*
X132793333Y-65155976D01*
X132793332Y-65155970D01*
X132703077Y-64962419D01*
X132580585Y-64787481D01*
X132580583Y-64787478D01*
X132429577Y-64636472D01*
X132254634Y-64513977D01*
X132254635Y-64513977D01*
X132122273Y-64452256D01*
X132061086Y-64423724D01*
X132061082Y-64423723D01*
X132061078Y-64423721D01*
X131854808Y-64368452D01*
X131854804Y-64368451D01*
X131854803Y-64368451D01*
X131854802Y-64368450D01*
X131854797Y-64368450D01*
X131642058Y-64349838D01*
X131642054Y-64349838D01*
X131429314Y-64368450D01*
X131429303Y-64368452D01*
X131223033Y-64423721D01*
X131223024Y-64423725D01*
X131029477Y-64513977D01*
X130854534Y-64636472D01*
X130703528Y-64787478D01*
X130581033Y-64962421D01*
X130490781Y-65155968D01*
X130490777Y-65155977D01*
X130435508Y-65362247D01*
X130435506Y-65362258D01*
X130416894Y-65574998D01*
X130416894Y-65575001D01*
X127787218Y-65575001D01*
X127787218Y-65575000D01*
X127768605Y-65362253D01*
X127715736Y-65164941D01*
X127713334Y-65155977D01*
X127713333Y-65155976D01*
X127713332Y-65155970D01*
X127623077Y-64962419D01*
X127500585Y-64787481D01*
X127500583Y-64787478D01*
X127349577Y-64636472D01*
X127174634Y-64513977D01*
X127174635Y-64513977D01*
X127042273Y-64452256D01*
X126981086Y-64423724D01*
X126981082Y-64423723D01*
X126981078Y-64423721D01*
X126774808Y-64368452D01*
X126774804Y-64368451D01*
X126774803Y-64368451D01*
X126774802Y-64368450D01*
X126774797Y-64368450D01*
X126562058Y-64349838D01*
X126562054Y-64349838D01*
X126349314Y-64368450D01*
X126349303Y-64368452D01*
X126143033Y-64423721D01*
X126143024Y-64423725D01*
X125949477Y-64513977D01*
X125774534Y-64636472D01*
X125623528Y-64787478D01*
X125501033Y-64962421D01*
X125410781Y-65155968D01*
X125410777Y-65155977D01*
X125362505Y-65336134D01*
X125330411Y-65391722D01*
X125077770Y-65644364D01*
X125016447Y-65677849D01*
X124946756Y-65672865D01*
X124890822Y-65630994D01*
X124866561Y-65567490D01*
X124862314Y-65518943D01*
X124848605Y-65362253D01*
X124795736Y-65164941D01*
X124793334Y-65155977D01*
X124793333Y-65155976D01*
X124793332Y-65155970D01*
X124703077Y-64962419D01*
X124580585Y-64787481D01*
X124580583Y-64787478D01*
X124429577Y-64636472D01*
X124254634Y-64513977D01*
X124254635Y-64513977D01*
X124122273Y-64452256D01*
X124061086Y-64423724D01*
X124061082Y-64423723D01*
X124061078Y-64423721D01*
X123854808Y-64368452D01*
X123854804Y-64368451D01*
X123854803Y-64368451D01*
X123854802Y-64368450D01*
X123854797Y-64368450D01*
X123642058Y-64349838D01*
X123642054Y-64349838D01*
X123429314Y-64368450D01*
X123429303Y-64368452D01*
X123223033Y-64423721D01*
X123223024Y-64423725D01*
X123029477Y-64513977D01*
X122854534Y-64636472D01*
X122703528Y-64787478D01*
X122581033Y-64962421D01*
X122490781Y-65155968D01*
X122490777Y-65155977D01*
X122435508Y-65362247D01*
X122435506Y-65362258D01*
X122416894Y-65574998D01*
X122416894Y-65575001D01*
X122435506Y-65787741D01*
X122435508Y-65787752D01*
X122490777Y-65994022D01*
X122490779Y-65994026D01*
X122490780Y-65994030D01*
X122521389Y-66059670D01*
X122581033Y-66187578D01*
X122703528Y-66362521D01*
X122854534Y-66513527D01*
X122854537Y-66513529D01*
X123029475Y-66636021D01*
X123029477Y-66636022D01*
X123029476Y-66636022D01*
X123093992Y-66666106D01*
X123223026Y-66726276D01*
X123429309Y-66781549D01*
X123634547Y-66799505D01*
X123699616Y-66824957D01*
X123740595Y-66881548D01*
X123744473Y-66951310D01*
X123711422Y-67010713D01*
X123643953Y-67078182D01*
X123582633Y-67111666D01*
X123556274Y-67114500D01*
X121840167Y-67114500D01*
X121773128Y-67094815D01*
X121769044Y-67092075D01*
X121714637Y-67053979D01*
X121714635Y-67053978D01*
X121521087Y-66963724D01*
X121521078Y-66963721D01*
X121314808Y-66908452D01*
X121314804Y-66908451D01*
X121314803Y-66908451D01*
X121314802Y-66908450D01*
X121314797Y-66908450D01*
X121102058Y-66889838D01*
X121102054Y-66889838D01*
X120889314Y-66908450D01*
X120889303Y-66908452D01*
X120683033Y-66963721D01*
X120683024Y-66963725D01*
X120489477Y-67053977D01*
X120314534Y-67176472D01*
X120163528Y-67327478D01*
X120041033Y-67502421D01*
X119950781Y-67695968D01*
X119950777Y-67695977D01*
X119895508Y-67902247D01*
X119895506Y-67902258D01*
X119876894Y-68114998D01*
X119876894Y-68115001D01*
X119562556Y-68115001D01*
X119562556Y-66313110D01*
X119582241Y-66246071D01*
X119584982Y-66241986D01*
X119623075Y-66187584D01*
X119623077Y-66187580D01*
X119625390Y-66182620D01*
X119713332Y-65994030D01*
X119768605Y-65787747D01*
X119787218Y-65575000D01*
X119768605Y-65362253D01*
X119715736Y-65164941D01*
X119713334Y-65155977D01*
X119713333Y-65155976D01*
X119713332Y-65155970D01*
X119623077Y-64962419D01*
X119500585Y-64787481D01*
X119500583Y-64787478D01*
X119349577Y-64636472D01*
X119174634Y-64513977D01*
X119174635Y-64513977D01*
X119042273Y-64452256D01*
X118981086Y-64423724D01*
X118981082Y-64423723D01*
X118981078Y-64423721D01*
X118774808Y-64368452D01*
X118774804Y-64368451D01*
X118774803Y-64368451D01*
X118774802Y-64368450D01*
X118774797Y-64368450D01*
X118562058Y-64349838D01*
X118562054Y-64349838D01*
X118349314Y-64368450D01*
X118349303Y-64368452D01*
X118143033Y-64423721D01*
X118143024Y-64423725D01*
X117949477Y-64513977D01*
X117774534Y-64636472D01*
X117623528Y-64787478D01*
X117501033Y-64962421D01*
X117410781Y-65155968D01*
X117410777Y-65155977D01*
X117355508Y-65362247D01*
X117355506Y-65362258D01*
X117336894Y-65574998D01*
X117336894Y-65575001D01*
X117355506Y-65787741D01*
X117355508Y-65787752D01*
X117410777Y-65994022D01*
X117410779Y-65994026D01*
X117410780Y-65994030D01*
X117441389Y-66059670D01*
X117501034Y-66187580D01*
X117501036Y-66187584D01*
X117539130Y-66241986D01*
X117561458Y-66308192D01*
X117561556Y-66313110D01*
X117561556Y-68089217D01*
X117541871Y-68156256D01*
X117525237Y-68176898D01*
X116909237Y-68792899D01*
X116847914Y-68826384D01*
X116778223Y-68821400D01*
X116722289Y-68779529D01*
X116697872Y-68714064D01*
X116697556Y-68705218D01*
X116697556Y-65769256D01*
X116682130Y-65617560D01*
X116621218Y-65423420D01*
X116621216Y-65423416D01*
X116621215Y-65423412D01*
X116522465Y-65245498D01*
X116522464Y-65245497D01*
X116522463Y-65245495D01*
X116389923Y-65091106D01*
X116389921Y-65091104D01*
X116229018Y-64966554D01*
X116229015Y-64966553D01*
X116229014Y-64966552D01*
X116046327Y-64876940D01*
X115849341Y-64825937D01*
X115849343Y-64825937D01*
X115713860Y-64819066D01*
X115646120Y-64815631D01*
X115646119Y-64815631D01*
X115646117Y-64815631D01*
X115444992Y-64846442D01*
X115444980Y-64846445D01*
X115254174Y-64917111D01*
X115254167Y-64917115D01*
X115081488Y-65024745D01*
X115081483Y-65024749D01*
X114934005Y-65164938D01*
X114934004Y-65164940D01*
X114817761Y-65331949D01*
X114737515Y-65518943D01*
X114696556Y-65718258D01*
X114696556Y-69452557D01*
X114682466Y-69509965D01*
X114670586Y-69532710D01*
X114663145Y-69546955D01*
X114607168Y-69742584D01*
X114591718Y-69945474D01*
X114591718Y-69945477D01*
X100000500Y-69945477D01*
X100000500Y-63181624D01*
X103197840Y-63181624D01*
X103207741Y-63414700D01*
X103207742Y-63414709D01*
X103256892Y-63642766D01*
X103256893Y-63642769D01*
X103343875Y-63859231D01*
X103343877Y-63859235D01*
X103466194Y-64057891D01*
X103620325Y-64233018D01*
X103620326Y-64233019D01*
X103620329Y-64233022D01*
X103801829Y-64379573D01*
X103801835Y-64379578D01*
X103842646Y-64402376D01*
X103891573Y-64452256D01*
X103905765Y-64520669D01*
X103880717Y-64585895D01*
X103851609Y-64613365D01*
X103708284Y-64710235D01*
X103539916Y-64871603D01*
X103539915Y-64871604D01*
X103401245Y-65059097D01*
X103296252Y-65267338D01*
X103227962Y-65490329D01*
X103222882Y-65529999D01*
X103222883Y-65530000D01*
X104256586Y-65530000D01*
X104217371Y-65624674D01*
X104196922Y-65780000D01*
X104217371Y-65935326D01*
X104256586Y-66030000D01*
X103224480Y-66030000D01*
X103257372Y-66182619D01*
X103257372Y-66182620D01*
X103344323Y-66399005D01*
X103466597Y-66597592D01*
X103620673Y-66772656D01*
X103620677Y-66772660D01*
X103660852Y-66805099D01*
X103700645Y-66862529D01*
X103703072Y-66932357D01*
X103667361Y-66992411D01*
X103635356Y-67013958D01*
X103632723Y-67015185D01*
X103483398Y-67107289D01*
X103359345Y-67231342D01*
X103267243Y-67380663D01*
X103267241Y-67380666D01*
X103267242Y-67380666D01*
X103212057Y-67547203D01*
X103212057Y-67547204D01*
X103212056Y-67547204D01*
X103201556Y-67649983D01*
X103201556Y-68990001D01*
X103201557Y-68990018D01*
X103212056Y-69092796D01*
X103212057Y-69092799D01*
X103267241Y-69259331D01*
X103267243Y-69259336D01*
X103271523Y-69266275D01*
X103359344Y-69408656D01*
X103483400Y-69532712D01*
X103632722Y-69624814D01*
X103799259Y-69679999D01*
X103902047Y-69690500D01*
X105692064Y-69690499D01*
X105794853Y-69679999D01*
X105961390Y-69624814D01*
X106110712Y-69532712D01*
X106234768Y-69408656D01*
X106326870Y-69259334D01*
X106382055Y-69092797D01*
X106392556Y-68990009D01*
X106392555Y-67649992D01*
X106391533Y-67639992D01*
X106382055Y-67547203D01*
X106382054Y-67547200D01*
X106367215Y-67502419D01*
X106326870Y-67380666D01*
X106234768Y-67231344D01*
X106110712Y-67107288D01*
X105961390Y-67015186D01*
X105961388Y-67015185D01*
X105961386Y-67015184D01*
X105958630Y-67013899D01*
X105957056Y-67012513D01*
X105955243Y-67011395D01*
X105955434Y-67011085D01*
X105906191Y-66967727D01*
X105887039Y-66900533D01*
X105907255Y-66833652D01*
X105925235Y-66811994D01*
X106054195Y-66688396D01*
X106054196Y-66688395D01*
X106192866Y-66500902D01*
X106297859Y-66292661D01*
X106366149Y-66069670D01*
X106371229Y-66030000D01*
X105337526Y-66030000D01*
X105376741Y-65935326D01*
X105397190Y-65780000D01*
X105376741Y-65624674D01*
X105337526Y-65530000D01*
X106369632Y-65530000D01*
X106369631Y-65529999D01*
X106336739Y-65377380D01*
X106336739Y-65377379D01*
X106249788Y-65160994D01*
X106127514Y-64962407D01*
X105973438Y-64787343D01*
X105973434Y-64787339D01*
X105792001Y-64640842D01*
X105791991Y-64640835D01*
X105751489Y-64618209D01*
X105702563Y-64568329D01*
X105688371Y-64499916D01*
X105713419Y-64434691D01*
X105742525Y-64407222D01*
X105886144Y-64310153D01*
X106054572Y-64148728D01*
X106193296Y-63961161D01*
X106298326Y-63752847D01*
X106366639Y-63529780D01*
X106396272Y-63298376D01*
X106390887Y-63171624D01*
X143817840Y-63171624D01*
X143827741Y-63404700D01*
X143827742Y-63404709D01*
X143876892Y-63632766D01*
X143876893Y-63632769D01*
X143925145Y-63752847D01*
X143963877Y-63849235D01*
X144086194Y-64047891D01*
X144166139Y-64138726D01*
X144240326Y-64223019D01*
X144240329Y-64223022D01*
X144421829Y-64369573D01*
X144421835Y-64369578D01*
X144462646Y-64392376D01*
X144511573Y-64442256D01*
X144525765Y-64510669D01*
X144500717Y-64575895D01*
X144471609Y-64603365D01*
X144328284Y-64700235D01*
X144159916Y-64861603D01*
X144159915Y-64861604D01*
X144021245Y-65049097D01*
X143916252Y-65257338D01*
X143847962Y-65480329D01*
X143842882Y-65519999D01*
X143842883Y-65520000D01*
X144876586Y-65520000D01*
X144837371Y-65614674D01*
X144816922Y-65770000D01*
X144837371Y-65925326D01*
X144876586Y-66020000D01*
X143844480Y-66020000D01*
X143877372Y-66172619D01*
X143877372Y-66172620D01*
X143964323Y-66389005D01*
X144086597Y-66587592D01*
X144240673Y-66762656D01*
X144240677Y-66762660D01*
X144280852Y-66795099D01*
X144320645Y-66852529D01*
X144323072Y-66922357D01*
X144287361Y-66982411D01*
X144255356Y-67003958D01*
X144252723Y-67005185D01*
X144103398Y-67097289D01*
X143979345Y-67221342D01*
X143887243Y-67370663D01*
X143887241Y-67370668D01*
X143859405Y-67454670D01*
X143832057Y-67537203D01*
X143832057Y-67537204D01*
X143832056Y-67537204D01*
X143821556Y-67639983D01*
X143821556Y-68980001D01*
X143821557Y-68980018D01*
X143832056Y-69082796D01*
X143832057Y-69082799D01*
X143887241Y-69249331D01*
X143887243Y-69249336D01*
X143897691Y-69266275D01*
X143979344Y-69398656D01*
X144103400Y-69522712D01*
X144252722Y-69614814D01*
X144419259Y-69669999D01*
X144522047Y-69680500D01*
X146312064Y-69680499D01*
X146414853Y-69669999D01*
X146581390Y-69614814D01*
X146730712Y-69522712D01*
X146854768Y-69398656D01*
X146946870Y-69249334D01*
X147002055Y-69082797D01*
X147012556Y-68980009D01*
X147012555Y-67639992D01*
X147002055Y-67537203D01*
X146946870Y-67370666D01*
X146854768Y-67221344D01*
X146730712Y-67097288D01*
X146581390Y-67005186D01*
X146581388Y-67005185D01*
X146581386Y-67005184D01*
X146578630Y-67003899D01*
X146577056Y-67002513D01*
X146575243Y-67001395D01*
X146575434Y-67001085D01*
X146526191Y-66957727D01*
X146507039Y-66890533D01*
X146527255Y-66823652D01*
X146545235Y-66801994D01*
X146674195Y-66678396D01*
X146674196Y-66678395D01*
X146812866Y-66490902D01*
X146917859Y-66282661D01*
X146986149Y-66059670D01*
X146991229Y-66020000D01*
X145957526Y-66020000D01*
X145996741Y-65925326D01*
X146017190Y-65770000D01*
X145996741Y-65614674D01*
X145957526Y-65520000D01*
X146989632Y-65520000D01*
X146989631Y-65519999D01*
X146956739Y-65367380D01*
X146956739Y-65367379D01*
X146869788Y-65150994D01*
X146747514Y-64952407D01*
X146593438Y-64777343D01*
X146593434Y-64777339D01*
X146412001Y-64630842D01*
X146411991Y-64630835D01*
X146371489Y-64608209D01*
X146322563Y-64558329D01*
X146308371Y-64489916D01*
X146333419Y-64424691D01*
X146362525Y-64397222D01*
X146506144Y-64300153D01*
X146674572Y-64138728D01*
X146813296Y-63951161D01*
X146918326Y-63742847D01*
X146986639Y-63519780D01*
X147016272Y-63288376D01*
X147006370Y-63055293D01*
X146957220Y-62827235D01*
X146870235Y-62610765D01*
X146747918Y-62412109D01*
X146593787Y-62236982D01*
X146593785Y-62236980D01*
X146593782Y-62236977D01*
X146412282Y-62090426D01*
X146412276Y-62090421D01*
X146208610Y-61976646D01*
X145988647Y-61898929D01*
X145988642Y-61898927D01*
X145988640Y-61898927D01*
X145988636Y-61898926D01*
X145988635Y-61898926D01*
X145758711Y-61859500D01*
X145758703Y-61859500D01*
X145133840Y-61859500D01*
X145133835Y-61859500D01*
X144959609Y-61874328D01*
X144959607Y-61874329D01*
X144959603Y-61874329D01*
X144959603Y-61874330D01*
X144950606Y-61876672D01*
X144733837Y-61933114D01*
X144521253Y-62029208D01*
X144327967Y-62159847D01*
X144327965Y-62159849D01*
X144159539Y-62321272D01*
X144159538Y-62321273D01*
X144020818Y-62508834D01*
X143915789Y-62717147D01*
X143915786Y-62717153D01*
X143847472Y-62940223D01*
X143817840Y-63171624D01*
X106390887Y-63171624D01*
X106386370Y-63065293D01*
X106337220Y-62837235D01*
X106250235Y-62620765D01*
X106127918Y-62422109D01*
X105973787Y-62246982D01*
X105973785Y-62246980D01*
X105973782Y-62246977D01*
X105792282Y-62100426D01*
X105792276Y-62100421D01*
X105588610Y-61986646D01*
X105368647Y-61908929D01*
X105368642Y-61908927D01*
X105368640Y-61908927D01*
X105368636Y-61908926D01*
X105368635Y-61908926D01*
X105138711Y-61869500D01*
X105138703Y-61869500D01*
X104513840Y-61869500D01*
X104513835Y-61869500D01*
X104339609Y-61884328D01*
X104339607Y-61884329D01*
X104113837Y-61943114D01*
X103901253Y-62039208D01*
X103707967Y-62169847D01*
X103707965Y-62169849D01*
X103539539Y-62331272D01*
X103539538Y-62331273D01*
X103400818Y-62518834D01*
X103295789Y-62727147D01*
X103295786Y-62727153D01*
X103227472Y-62950223D01*
X103197840Y-63181624D01*
X100000500Y-63181624D01*
X100000500Y-63001437D01*
X100000566Y-62998574D01*
X100008487Y-62827235D01*
X100008487Y-62827233D01*
X100008488Y-62827230D01*
X100008493Y-62827092D01*
X100018302Y-62627446D01*
X100018818Y-62621955D01*
X100044670Y-62436633D01*
X100048308Y-62412110D01*
X100072331Y-62250162D01*
X100073292Y-62245137D01*
X100116689Y-62060626D01*
X100161993Y-61879764D01*
X100163323Y-61875216D01*
X100223915Y-61694431D01*
X100286457Y-61519641D01*
X100288100Y-61515527D01*
X100365368Y-61340530D01*
X100444615Y-61172977D01*
X100446444Y-61169423D01*
X100539781Y-61001852D01*
X100634990Y-60843005D01*
X100636979Y-60839904D01*
X100745570Y-60681381D01*
X100855924Y-60532586D01*
X100857928Y-60530033D01*
X100980875Y-60381973D01*
X101105351Y-60244636D01*
X101107361Y-60242526D01*
X101242526Y-60107361D01*
X101244636Y-60105351D01*
X101381973Y-59980875D01*
X101530033Y-59857928D01*
X101532586Y-59855924D01*
X101681381Y-59745570D01*
X101839904Y-59636979D01*
X101843005Y-59634990D01*
X102001858Y-59539778D01*
X102169423Y-59446444D01*
X102172977Y-59444615D01*
X102340530Y-59365368D01*
X102515538Y-59288095D01*
X102519641Y-59286457D01*
X102694431Y-59223915D01*
X102875216Y-59163323D01*
X102879764Y-59161993D01*
X103060626Y-59116689D01*
X103245137Y-59073292D01*
X103250162Y-59072331D01*
X103436651Y-59044667D01*
X103621955Y-59018818D01*
X103627446Y-59018302D01*
X103826958Y-59008500D01*
X103968945Y-59001935D01*
X103998577Y-59000566D01*
X104001440Y-59000500D01*
X145998560Y-59000500D01*
X146001423Y-59000566D01*
G37*
%TD.AperFunction*%
%TD*%
M02*
