M48
; DRILL file {KiCad 7.0.7-7.0.7~ubuntu22.04.1} date Tue 26 Sep 2023 14:07:12
; FORMAT={-:-/ absolute / inch / decimal}
; #@! TF.CreationDate,2023-09-26T14:07:12+13:00
; #@! TF.GenerationSoftware,Kicad,Pcbnew,7.0.7-7.0.7~ubuntu22.04.1
; #@! TF.FileFunction,Plated,1,2,PTH
FMAT,2
INCH
; #@! TA.AperFunction,Plated,PTH,ViaDrill
T1C0.0157
; #@! TA.AperFunction,Plated,PTH,ComponentDrill
T2C0.0315
; #@! TA.AperFunction,Plated,PTH,ComponentDrill
T3C0.0394
; #@! TA.AperFunction,Plated,PTH,ComponentDrill
T4C0.0469
%
G90
G05
T1
X3.3551Y-4.7598
X3.3551Y-2.7126
X3.3553Y-4.689
X3.3553Y-2.6417
X3.4299Y-4.6929
X3.4299Y-4.7598
X3.4299Y-2.6457
X3.4299Y-2.7126
X3.5953Y-4.378
X3.5953Y-2.3307
X3.5992Y-4.2165
X3.5992Y-2.1693
X3.6307Y-5.2087
X3.6307Y-3.1614
X3.6543Y-4.3819
X3.6543Y-2.3346
X3.9024Y-4.7283
X3.9024Y-2.6811
X3.9063Y-4.8465
X3.9063Y-2.7992
X3.9535Y-4.8031
X3.9535Y-2.7559
X4.2055Y-5.0079
X4.2055Y-2.9606
X4.3748Y-4.6772
X4.3748Y-2.6299
X5.4024Y-2.7126
X5.4024Y-4.7598
X5.4026Y-2.6417
X5.4026Y-4.689
X5.4772Y-2.6457
X5.4772Y-2.7126
X5.4772Y-4.6929
X5.4772Y-4.7598
X5.6425Y-2.3307
X5.6425Y-4.378
X5.6465Y-2.1693
X5.6465Y-4.2165
X5.678Y-3.1614
X5.678Y-5.2087
X5.7016Y-2.3346
X5.7016Y-4.3819
X5.9496Y-2.6811
X5.9496Y-4.7283
X5.9535Y-2.7992
X5.9535Y-4.8465
X6.0008Y-2.7559
X6.0008Y-4.8031
X6.2528Y-2.9606
X6.2528Y-5.0079
X6.422Y-2.6299
X6.422Y-4.6772
T2
X3.5858Y-4.6008
X3.5858Y-2.5535
X3.6858Y-4.6008
X3.6858Y-2.5535
X3.712Y-4.2069
X3.712Y-2.1596
X3.7858Y-4.6008
X3.7858Y-2.5535
X3.812Y-4.3069
X3.812Y-2.2596
X3.8189Y-4.8425
X3.8189Y-4.9425
X3.8189Y-5.0425
X3.8189Y-5.1425
X3.8189Y-2.7953
X3.8189Y-2.8953
X3.8189Y-2.9953
X3.8189Y-3.0953
X3.8693Y-4.6008
X3.8693Y-2.5535
X3.912Y-4.2069
X3.912Y-2.1596
X3.9693Y-4.6008
X3.9693Y-2.5535
X4.027Y-4.2069
X4.027Y-2.1596
X4.0693Y-4.6008
X4.0693Y-2.5535
X4.1189Y-4.8425
X4.1189Y-4.9425
X4.1189Y-5.0425
X4.1189Y-5.1425
X4.1189Y-2.7953
X4.1189Y-2.8953
X4.1189Y-2.9953
X4.1189Y-3.0953
X4.127Y-4.3069
X4.127Y-2.2596
X4.1531Y-4.6004
X4.1531Y-2.5531
X4.227Y-4.2069
X4.227Y-2.1596
X4.2531Y-4.6004
X4.2531Y-2.5531
X4.3531Y-4.6004
X4.3531Y-2.5531
X5.6331Y-2.5535
X5.6331Y-4.6008
X5.7331Y-2.5535
X5.7331Y-4.6008
X5.7593Y-2.1596
X5.7593Y-4.2069
X5.8331Y-2.5535
X5.8331Y-4.6008
X5.8593Y-2.2596
X5.8593Y-4.3069
X5.8661Y-2.7953
X5.8661Y-2.8953
X5.8661Y-2.9953
X5.8661Y-3.0953
X5.8661Y-4.8425
X5.8661Y-4.9425
X5.8661Y-5.0425
X5.8661Y-5.1425
X5.9165Y-2.5535
X5.9165Y-4.6008
X5.9593Y-2.1596
X5.9593Y-4.2069
X6.0165Y-2.5535
X6.0165Y-4.6008
X6.0742Y-2.1596
X6.0742Y-4.2069
X6.1165Y-2.5535
X6.1165Y-4.6008
X6.1661Y-2.7953
X6.1661Y-2.8953
X6.1661Y-2.9953
X6.1661Y-3.0953
X6.1661Y-4.8425
X6.1661Y-4.9425
X6.1661Y-5.0425
X6.1661Y-5.1425
X6.1742Y-2.2596
X6.1742Y-4.3069
X6.2004Y-2.5531
X6.2004Y-4.6004
X6.2742Y-2.1596
X6.2742Y-4.2069
X6.3004Y-2.5531
X6.3004Y-4.6004
X6.4004Y-2.5531
X6.4004Y-4.6004
T3
X3.119Y-4.6173
X3.119Y-4.7173
X3.119Y-5.5535
X3.119Y-5.6535
X3.119Y-2.5701
X3.119Y-2.6701
X3.119Y-3.5063
X3.119Y-3.6063
X3.5795Y-5.2953
X3.5795Y-3.248
X3.678Y-5.2953
X3.678Y-3.248
X3.7764Y-5.2953
X3.7764Y-3.248
X4.1622Y-5.2953
X4.1622Y-3.248
X4.2606Y-5.2953
X4.2606Y-3.248
X4.3591Y-5.2953
X4.3591Y-3.248
X4.8504Y-5.5565
X4.8504Y-5.6565
X4.8504Y-3.5093
X4.8504Y-3.6093
X5.1663Y-2.5701
X5.1663Y-2.6701
X5.1663Y-3.5063
X5.1663Y-3.6063
X5.1663Y-4.6173
X5.1663Y-4.7173
X5.1663Y-5.5535
X5.1663Y-5.6535
X5.6268Y-3.248
X5.6268Y-5.2953
X5.7252Y-3.248
X5.7252Y-5.2953
X5.8236Y-3.248
X5.8236Y-5.2953
X6.2094Y-3.248
X6.2094Y-5.2953
X6.3079Y-3.248
X6.3079Y-5.2953
X6.4063Y-3.248
X6.4063Y-5.2953
X6.8976Y-3.5093
X6.8976Y-3.6093
X6.8976Y-5.5565
X6.8976Y-5.6565
T4
X3.1701Y-4.115
X3.1701Y-4.215
X3.1701Y-4.315
X3.1701Y-2.0677
X3.1701Y-2.1677
X3.1701Y-2.2677
X4.7827Y-4.1142
X4.7827Y-4.2142
X4.7827Y-4.3142
X4.7827Y-2.0669
X4.7827Y-2.1669
X4.7827Y-2.2669
X5.2173Y-2.0677
X5.2173Y-2.1677
X5.2173Y-2.2677
X5.2173Y-4.115
X5.2173Y-4.215
X5.2173Y-4.315
X6.8299Y-2.0669
X6.8299Y-2.1669
X6.8299Y-2.2669
X6.8299Y-4.1142
X6.8299Y-4.2142
X6.8299Y-4.3142
T0
M30
